{
.appVersion = "3087";
.formatVersion = 3;
axes = (
{
name = Weight;
tag = wght;
}
);
customParameters = (
{
name = "Variable Font Origin";
value = "19FA402B-9607-46D9-AAD6-815AECBA5B6B";
},
{
name = "Use Typo Metrics";
value = 1;
}
);
date = "2022-05-27 18:49:23 +0000";
familyName = "26F Galaxy Sans";
featurePrefixes = (
{
automatic = 1;
code = "languagesystem DFLT dflt;

languagesystem latn dflt;
languagesystem latn ROM;
languagesystem latn MOL;
languagesystem latn CAT;
languagesystem latn NLD;
languagesystem latn AZE;
languagesystem latn CRT;
languagesystem latn KAZ;
languagesystem latn TAT;
languagesystem latn TRK;
";
name = Languagesystems;
}
);
features = (
{
automatic = 1;
code = "feature locl;
feature subs;
feature sinf;
feature sups;
feature numr;
feature dnom;
feature frac;
feature ordn;
feature ss01;
";
tag = aalt;
},
{
code = "lookup locl_latn_0 {
	script latn;
	language ROM;
	sub Scedilla by Scommaaccent;
	sub Tcedilla by Tcommaaccent;
	language MOL;
	sub Scedilla by Scommaaccent;
	sub Tcedilla by Tcommaaccent;
} locl_latn_0;

lookup locl_latn_1 {
	script latn;
	language CAT;
	sub  L' periodcentered' L by Ldot;
} locl_latn_1;

lookup locl_latn_2 {
	script latn;
	language NLD;
	sub Iacute J' by Jacute;
} locl_latn_2;

lookup locl_latn_3 {
	script latn;
	language AZE;
	sub i by Idotaccent;
	language CRT;
	sub i by Idotaccent;
	language KAZ;
	sub i by Idotaccent;
	language TAT;
	sub i by Idotaccent;
	language TRK;
	sub i by Idotaccent;
} locl_latn_3;
";
tag = locl;
},
{
automatic = 1;
code = "sub zero by zeroinferior;
sub one by oneinferior;
sub two by twoinferior;
sub three by threeinferior;
sub four by fourinferior;
sub five by fiveinferior;
sub six by sixinferior;
sub seven by seveninferior;
sub eight by eightinferior;
sub nine by nineinferior;
";
tag = subs;
},
{
automatic = 1;
code = "sub zero by zeroinferior;
sub one by oneinferior;
sub two by twoinferior;
sub three by threeinferior;
sub four by fourinferior;
sub five by fiveinferior;

glyphs = (
{
color = 4;
glyphname = A;
kernLeft = A;
kernRight = A;
lastChange = "2022-06-05 19:15:00 +0000";
layers = (
{
anchors = (
{
name = bottom;
pos = (676,0);
},
{
name = ogonek;
pos = (1267,0);
},
{
name = top;
pos = (676,1400);
}
);
layerId = m01;
shapes = (
{
closed = 1;
nodes = (
(389.272,680.547,l),
(390.537,683.537,o),
(391.236,686.826,o),
(391.236,690.277,c),
(391.236,704.084,o),
(380.043,715.277,o),
(366.236,715.277,c),
(356.082,715.277,o),
(347.342,709.223,o),
(343.428,700.528,c),
(61.728,34.453,l),
(60.463,31.463,o),
(59.764,28.174,o),
(59.764,24.723,c),
(59.764,10.916,o),
(70.957,-0.277,o),
(84.764,-0.277,c),
(94.922,-0.277,o),
(103.664,5.78,o),
(107.576,14.48,c)
);
},
{
closed = 1;
nodes = (
(710.626,1385.685,l),
(706.688,1394.32,o),
(697.979,1400.322,o),
(687.869,1400.322,c),
(674.061,1400.322,o),
(662.869,1389.129,o),
(662.869,1375.322,c),
(662.869,1371.821,o),
(663.588,1368.489,o),
(670.273,1352.921,c),
(1244.374,14.315,l),
(1248.312,5.68,o),
(1257.021,-0.322,o),
(1267.131,-0.322,c),
(1280.939,-0.322,o),
(1292.131,10.871,o),
(1292.131,24.678,c),
(1292.131,28.179,o),
(1291.412,31.511,o),
(1284.727,47.078,c)
);
}
);
width = 1352;
},
{
anchors = (
{
name = bottom;
pos = (706,0);
},
{
name = ogonek;
pos = (1283,-1);
},
{
name = top;
pos = (706,1400);
}
);
layerId = "19FA402B-9607-46D9-AAD6-815AECBA5B6B";
name = Regular;
shapes = (
{
closed = 1;
nodes = (
(438.748,636.68,l),
(442.119,644.179,o),
(443.994,652.497,o),
(443.994,661.253,c),
(443.994,694.39,o),
(417.132,721.253,o),
(383.994,721.253,c),
(359.613,721.253,o),
(338.628,706.711,o),
(329.241,685.827,c),
(75.252,84.32,l),
(71.881,76.821,o),
(70.006,68.503,o),
(70.006,59.747,c),
(70.006,26.61,o),
(96.868,-0.253,o),
(130.006,-0.253,c),
(154.387,-0.253,o),
(175.372,14.289,o),
(184.759,35.173,c)
);
},
{
closed = 1;
nodes = (
(787.889,1365.205,l),
(778.443,1385.944,o),
(757.535,1400.361,o),
(733.259,1400.361,c),
(700.121,1400.361,o),
(673.259,1373.498,o),
(673.259,1340.361,c),
(673.259,1331.499,o),
(675.18,1323.086,o),
(678.628,1315.516,c),
(1227.111,34.795,l),
(1236.557,14.056,o),
(1257.465,-0.361,o),
(1281.741,-0.361,c),
(1314.879,-0.361,o),
(1341.741,26.502,o),
(1341.741,59.639,c),
(1341.741,68.501,o),
(1339.82,76.914,o),
(1336.372,84.484,c)
);
}
);
width = 1412;
},
{
anchors = (
{
name = bottom;
pos = (768,0);
},
{
name = ogonek;
pos = (1289,3);
},
{
name = top;
pos = (768,1400);
}
);
layerId = "FF87E3F2-B049-41CB-BF2F-09DB15105515";
name = Black;
shapes = (
{
closed = 1;
nodes = (
(574.432,522.325,l),
(584.317,542.331,o),
(589.871,564.858,o),
(589.871,588.684,c),
(589.871,671.527,o),
(522.715,738.684,o),
(439.871,738.684,c),
(380.853,738.684,o),
(329.796,704.6,o),
(305.31,655.042,c),
(100.568,216.675,l),
(90.683,196.669,o),
(85.129,174.141,o),
(85.129,150.316,c),
(85.129,67.473,o),
(152.285,0.316,o),
(235.129,0.316,c),
(294.147,0.316,o),
(345.204,34.4,o),
(369.69,83.958,c)
);
},
{
closed = 1;
nodes = (
(923.628,1315.845,l),
(899.169,1365.477,o),
(848.073,1399.623,o),
(789,1399.623,c),
(706.156,1399.623,o),
(639,1332.467,o),
(639,1249.623,c),
(639,1225.853,o),
(644.529,1203.374,o),
(654.371,1183.402,c),
(1166.372,84.155,l),
(1190.831,34.523,o),
(1241.927,0.377,o),
(1301,0.377,c),
(1383.844,0.377,o),
(1451,67.533,o),
(1451,150.377,c),
(1451,174.147,o),
(1445.471,196.626,o),
(1435.629,216.598,c)
);
}
);
width = 1536;
}
);
unicode = (65,97);
},
{
color = 5;
glyphname = AE;
kernLeft = A;
kernRight = E;
lastChange = "2022-06-05 19:17:49 +0000";
layers = (
{
layerId = m01;
shapes = (
{
closed = 1;
nodes = (
(706.741,1364.306,l),
(708.114,1367.401,o),
(708.877,1370.828,o),
(708.877,1374.433,c),
(708.877,1388.24,o),
(697.684,1399.433,o),
(683.877,1399.433,c),
(673.873,1399.433,o),
(665.242,1393.557,o),
(661.246,1385.068,c),
(62.259,34.694,l),
(60.886,31.599,o),
(60.123,28.172,o),
(60.123,24.567,c),
(60.123,10.76,o),
(71.316,-0.433,o),
(85.123,-0.433,c),
(95.129,-0.433,o),
(103.761,5.445,o),
(107.756,13.936,c)
);
},
{
closed = 1;
nodes = (
(870,50,l),
(856.193,50,o),
(845,38.807,o),
(845,25,c),
(845,11.193,o),
(856.193,0,o),
(870,0,c),
(1542.5,0,l),
(1556.307,0,o),
(1567.5,11.193,o),
(1567.5,25,c),
(1567.5,38.807,o),
(1556.307,50,o),
(1542.5,50,c)
);
},
{
closed = 1;
nodes = (
(895,735.5,l),
(895,749.307,o),
(883.807,760.5,o),
(870,760.5,c),
(856.193,760.5,o),
(845,749.307,o),
(845,735.5,c),
(845,28,l),
(895,28,l)
);
},
{
closed = 1;
nodes = (
(1542.5,675,l),
(1556.307,675,o),
(1567.5,686.193,o),
(1567.5,700,c),
(1567.5,713.807,o),
(1556.307,725,o),
(1542.5,725,c),
(1165.5,725,l),
(1151.693,725,o),
(1140.5,713.807,o),
(1140.5,700,c),
(1140.5,686.193,o),
(1151.693,675,o),
(1165.5,675,c)
);
},
{
closed = 1;
nodes = (
(1542.5,1350,l),
(1556.307,1350,o),
(1567.5,1361.193,o),
(1567.5,1375,c),
(1567.5,1388.807,o),
(1556.307,1400,o),
(1542.5,1400,c),
(684,1400,l),
(670.193,1400,o),
(659,1388.807,o),
(659,1375,c),
(659,1361.193,o),
(670.193,1350,o),
(684,1350,c)
);
}
);
width = 1638;
},
{
layerId = "19FA402B-9607-46D9-AAD6-815AECBA5B6B";
shapes = (
{
closed = 1;
nodes = (
(749.401,1311.105,l),
(753.051,1318.854,o),
(755.092,1327.51,o),
(755.092,1336.644,c),
(755.092,1369.781,o),
(728.229,1396.644,o),
(695.092,1396.644,c),
(671.088,1396.644,o),
(650.376,1382.548,o),
(640.783,1362.183,c),
(75.599,88.895,l),
(71.949,81.146,o),
(69.908,72.49,o),
(69.908,63.356,c),
(69.908,30.219,o),
(96.771,3.356,o),
(129.908,3.356,c),
(153.912,3.356,o),
(174.624,17.452,o),
(184.217,37.817,c)
);
},
{
closed = 1;
nodes = (
(897,120,l),
(863.863,120,o),
(837,93.137,o),
(837,60,c),
(837,26.863,o),
(863.863,0,o),
(897,0,c),
(1540,0,l),
(1573.137,0,o),
(1600,26.863,o),
(1600,60,c),
(1600,93.137,o),
(1573.137,120,o),
(1540,120,c)
);
},
{
closed = 1;
nodes = (
(957,706,l),
(957,739.137,o),
(930.137,766,o),
(897,766,c),
(863.863,766,o),
(837,739.137,o),
(837,706,c),
(837,60,l),
(957,60,l)
);
},
{
closed = 1;
nodes = (
(1539,640,l),
(1572.137,640,o),
(1599,666.863,o),
(1599,700,c),
(1599,733.137,o),
(1572.137,760,o),
(1539,760,c),
(1224,760,l),
(1190.863,760,o),
(1164,733.137,o),
(1164,700,c),
(1164,666.863,o),
(1190.863,640,o),
(1224,640,c)
);
},
{
closed = 1;
nodes = (
(1540,1280,l),
(1573.137,1280,o),
(1600,1306.863,o),
(1600,1340,c),
(1600,1373.137,o),
(1573.137,1400,o),
(1540,1400,c),
(697,1400,l),
(663.863,1400,o),
(637,1373.137,o),
(637,1340,c),
(637,1306.863,o),
(663.863,1280,o),
(697,1280,c)
);
}
);
width = 1680;
},
{
layerId = "FF87E3F2-B049-41CB-BF2F-09DB15105515";
shapes = (
{
closed = 1;
nodes = (
(802.481,1192.539,l),
(809.883,1210.295,o),
(813.971,1229.779,o),
(813.971,1250.218,c),
(813.971,1333.061,o),
(746.814,1400.218,o),
(663.971,1400.218,c),
(601.566,1400.218,o),
(548.063,1362.111,o),
(525.461,1307.896,c),
(96.519,207.461,l),
(89.117,189.705,o),
(85.029,170.221,o),
(85.029,149.782,c),
(85.029,66.939,o),
(152.186,-0.218,o),
(235.029,-0.218,c),
(297.434,-0.218,o),
(350.937,37.889,o),
(373.539,92.104,c)
);
},
{
closed = 1;
nodes = (
(1003,300,l),
(920.157,300,o),
(853,232.843,o),
(853,150,c),
(853,67.157,o),
(920.157,0,o),
(1003,0,c),
(1686,0,l),
(1768.843,0,o),
(1836,67.157,o),
(1836,150,c),
(1836,232.843,o),
(1768.843,300,o),
(1686,300,c)
);
},
{
closed = 1;
nodes = (
(1153,705,l),
(1153,787.843,o),
(1085.843,855,o),
(1003,855,c),
(920.157,855,o),
(853,787.843,o),
(853,705,c),
(853,140,l),
(1153,140,l)
);
},
{
closed = 1;
nodes = (
(1686,550,l),
(1768.843,550,o),
(1836,617.157,o),
(1836,700,c),
(1836,782.843,o),
(1768.843,850,o),
(1686,850,c),
(1421,850,l),
(1338.157,850,o),
(1271,782.843,o),
(1271,700,c),
(1271,617.157,o),
(1338.157,550,o),
(1421,550,c)
);
},
{
closed = 1;
nodes = (
(1686,1100,l),
(1768.843,1100,o),
(1836,1167.157,o),
(1836,1250,c),
(1836,1332.843,o),
(1768.843,1400,o),
(1686,1400,c),
(663,1400,l),
(580.157,1400,o),
(513,1332.843,o),
(513,1250,c),
(513,1167.157,o),
(580.157,1100,o),
(663,1100,c)
);
}
);
width = 1938;
}
);
metricLeft = A;
metricRight = E;
unicode = (198,230);
},
{
color = 4;
glyphname = B;
kernLeft = I;
kernRight = B;
lastChange = "2022-08-24 06:18:27 +0000";
layers = (
{
anchors = (
{
name = bottom;
pos = (594,0);
},
{
name = center;
pos = (594,700);
},
{
name = top;
pos = (594,1400);
}
);
layerId = m01;
shapes = (
{
closed = 1;
nodes = (
(135,977.5,l),
(135,991.307,o),
(123.807,1002.5,o),
(110,1002.5,c),
(96.193,1002.5,o),
(85,991.307,o),
(85,977.5,c),
(85,25.5,l),
(85,11.693,o),
(96.193,0.5,o),
(110,0.5,c),
(123.807,0.5,o),
(135,11.693,o),
(135,25.5,c)
);
},
{
closed = 1;
nodes = (
(795,675,l),
(967,675,o),
(1107,507,o),
(1107,348,c),
(1107,190,o),
(967,50,o),
(795,50,c),
(557.5,50,l),
(543.693,50,o),
(532.5,38.807,o),
(532.5,25,c),
(532.5,11.193,o),
(543.693,0,o),
(557.5,0,c),
(795,0,l),
(994.511,0,o),
(1157,162.489,o),
(1157,348,c),
(1157,531.902,o),
(997.219,725,o),
(795,725,c),
(615,725,l),
(615,675,l)
);
},
{
closed = 1;
nodes = (
(695,675,l),
(894.511,675,o),
(1057,837.489,o),
(1057,1038,c),
(1057,1238.616,o),
(894.406,1400,o),
(695,1400,c),
(110,1400,l),
(96.193,1400,o),
(85,1388.807,o),
(85,1375,c),
(85,1361.193,o),
(96.193,1350,o),
(110,1350,c),
(695,1350,l),
(867,1350,o),
(1007,1211,o),
(1007,1038,c),
(1007,865,o),
(867,725,o),
(695,725,c),
(447.5,725,l),
(433.693,725,o),
(422.5,713.807,o),
(422.5,700,c),
(422.5,686.193,o),
(433.693,675,o),
(447.5,675,c)
);
}
);
width = 1200;
},
{
anchors = (
{
name = bottom;
pos = (620,0);
},
{
name = center;
pos = (620,700);
},
{
name = top;
pos = (570,1400);
}
);
layerId = "19FA402B-9607-46D9-AAD6-815AECBA5B6B";
name = Regular;
shapes = (
{
closed = 1;
nodes = (
(220,946,l),
(220,979.137,o),
(193.137,1006,o),
(160,1006,c),
(126.863,1006,o),
(100,979.137,o),
(100,946,c),
(100,60,l),
(100,26.863,o),
(126.863,0,o),
(160,0,c),
(193.137,0,o),
(220,26.863,o),
(220,60,c)
);
},
{
closed = 1;
nodes = (
(810,640,l),
(954,640,o),
(1070,524,o),
(1070,380,c),
(1070,236,o),
(954,120,o),
(810,120,c),
(604,120,l),
(570.863,120,o),
(544,93.137,o),
(544,60,c),
(544,26.863,o),
(570.863,0,o),
(604,0,c),
(810,0,l),
(1020.106,0,o),
(1190,169.894,o),
(1190,380,c),
(1190,590.106,o),
(1020.106,760,o),
(810,760,c),
(630,760,l),
(630,640,l)
);
},
{
closed = 1;
nodes = (
(710,640,l),
(920.106,640,o),
(1090,809.894,o),
(1090,1020,c),
(1090,1230.106,o),
(920.106,1400,o),
(710,1400,c),
(160,1400,l),
(126.863,1400,o),
(100,1373.137,o),
(100,1340,c),
(100,1306.863,o),
(126.863,1280,o),
(160,1280,c),
(710,1280,l),
(854,1280,o),
(970,1164,o),
(970,1020,c),
(970,876,o),
(854,760,o),
(710,760,c),
(494,760,l),
(460.863,760,o),
(434,733.137,o),
(434,700,c),
(434,666.863,o),
(460.863,640,o),
(494,640,c)
);
}
);
width = 1240;
},
{
anchors = (
{
name = bottom;
pos = (630,0);
},
{
name = center;
pos = (630,700);
},
{
name = top;
pos = (630,1400);
}
);
layerId = "FF87E3F2-B049-41CB-BF2F-09DB15105515";
shapes = (
{
closed = 1;
nodes = (
(410,785,l),
(410,867.843,o),
(342.843,935,o),
(260,935,c),
(177.157,935,o),
(110,867.843,o),
(110,785,c),
(110,150,l),
(110,67.157,o),
(177.157,0,o),
(260,0,c),
(342.843,0,o),
(410,67.157,o),
(410,150,c)
);
},
{
closed = 1;
nodes = (
(800,551,l),
(869,551,o),
(925,495,o),
(925,426,c),
(925,357,o),
(869,300,o),
(800,300,c),
(724,300,l),
(641.157,300,o),
(574,232.843,o),
(574,150,c),
(574,67.157,o),
(641.157,0,o),
(724,0,c),
(800,0,l),
(1034.6,0,o),
(1225,191.4,o),
(1225,426,c),
(1225,660.6,o),
(1034.6,851,o),
(800,851,c),
(669,851,l),
(669,551,l)
);
},
{
closed = 1;
nodes = (
(720,551,l),
(953.6,551,o),
(1144,741.4,o),
(1144,976,c),
(1144,1209.6,o),
(953.6,1400,o),
(720,1400,c),
(260,1400,l),
(177.157,1400,o),
(110,1332.843,o),
(110,1250,c),
(110,1167.157,o),
(177.157,1100,o),
(260,1100,c),
(720,1100,l),
(788,1100,o),
(844,1044,o),
(844,976,c),
(844,907,o),
(788,851,o),
(720,851,c),
(685,851,l),
(602.157,851,o),
(535,783.843,o),
(535,701,c),
(535,618.157,o),
(602.157,551,o),
(685,551,c)
);
}
);
width = 1280;
}
);
metricLeft = H;
metricRight = "=H/2";
unicode = (66,98);
},
{
color = 4;
glyphname = C;
kernLeft = O;
kernRight = C;
lastChange = "2022-08-25 01:08:12 +0000";
layers = (
{
anchors = (
{
name = bottom;
pos = (594,0);
},
{
name = top;
pos = (694,1400);
}
);
layerId = m01;
shapes = (
{
closed = 1;
nodes = (
(1118,0,ls),
(1132,0,o),
(1143,11,o),
(1143,25,cs),
(1143,39,o),
(1132,50,o),
(1118,50,cs),
(764,50,ls),
(405,50,o),
(114,341,o),
(114,700,cs),
(114,1052,o),
(393,1338,o),
(742,1350,cs),
(756,1350,o),
(767,1361,o),
(767,1375,cs),
(767,1389,o),
(754,1400,o),
(741,1400,cs),
(365,1387,o),
(64,1079,o),
(64,700,cs),
(64,313,o),
(377,0,o),
(764,0,cs)
);
},
{
closed = 1;
nodes = (
(1134,1350,o),
(1145,1361,o),
(1145,1375,cs),
(1145,1389,o),
(1134,1400,o),
(1120,1400,cs),
(1106,1400,o),
(1095,1389,o),
(1095,1375,cs),
(1095,1361,o),
(1106,1350,o),
(1120,1350,cs)
);
}
);
width = 1188;
},
{
anchors = (
{
name = bottom;
pos = (631,0);
},
{
name = top;
pos = (691,1400);
}
);
layerId = "19FA402B-9607-46D9-AAD6-815AECBA5B6B";
name = Regular;
shapes = (
{
closed = 1;
nodes = (
(1134,0,ls),
(1167,0,o),
(1194,27,o),
(1194,60,cs),
(1194,93,o),
(1167,120,o),
(1134,120,cs),
(780,120,ls),
(460,120,o),
(200,380,o),
(200,700,cs),
(200,1004,o),
(434,1253,o),
(731,1278,cs),
(762,1281,o),
(786,1306,o),
(786,1338,cs),
(786,1374,o),
(755,1400,o),
(721,1398,cs),
(362,1368,o),
(80,1066,o),
(80,700,cs),
(80,314,o),
(394,0,o),
(780,0,cs)
);
},
{
closed = 1;
nodes = (
(1167,1280,o),
(1194,1307,o),
(1194,1340,cs),
(1194,1373,o),
(1167,1400,o),
(1134,1400,cs),
(1101,1400,o),
(1074,1373,o),
(1074,1340,cs),
(1074,1307,o),
(1101,1280,o),
(1134,1280,cs)
);
}
);
width = 1244;
},
{
anchors = (
{
name = bottom;
pos = (631,0);
},
{
name = top;
pos = (731,1400);
}
);
layerId = "FF87E3F2-B049-41CB-BF2F-09DB15105515";
shapes = (
{
closed = 1;
nodes = (
(1056,0,ls),
(1139,0,o),
(1206,67,o),
(1206,150,cs),
(1206,233,o),
(1139,300,o),
(1056,300,cs),
(807,300,ls),
(582,300,o),
(400,483,o),
(400,708,cs),
(400,899,o),
(532,1060,o),
(709,1104,cs),
(775,1120,o),
(823,1179,o),
(823,1250,cs),
(823,1347,o),
(731,1420,o),
(637,1396,cs),
(329,1319,o),
(100,1040,o),
(100,708,cs),
(100,317,o),
(416,0,o),
(807,0,cs)
);
},
{
closed = 1;
nodes = (
(1139,1100,o),
(1206,1167,o),
(1206,1250,cs),
(1206,1333,o),
(1139,1400,o),
(1056,1400,cs),
(973,1400,o),
(906,1333,o),
(906,1250,cs),
(906,1167,o),
(973,1100,o),
(1056,1100,cs)
);
}
);
width = 1270;
}
);
metricLeft = O;
unicode = (67,99);
},
{
color = 4;
glyphname = D;
kernLeft = I;
kernRight = O;
lastChange = "2022-06-05 19:17:41 +0000";
layers = (
{
anchors = (
{
name = bottom;
pos = (623,0);
},
{
name = center;
pos = (623,700);
},
{
name = top;
pos = (573,1400);
}
);
layerId = m01;
shapes = (
{
closed = 1;
nodes = (
(87,25.5,l),
(87,11.693,o),
(98.193,0.5,o),
(112,0.5,c),
(125.807,0.5,o),
(137,11.693,o),
(137,25.5,c),
(137,768.5,l),
(137,782.307,o),
(125.807,793.5,o),
(112,793.5,c),
(98.193,793.5,o),
(87,782.307,o),
(87,768.5,c)
);
},
{
closed = 1;
nodes = (
(892.511,0,o),
(1206,313.489,o),
(1206,700,c),
(1206,1086.511,o),
(892.511,1400,o),
(506,1400,c),
(109.5,1400,l),
(95.693,1400,o),
(84.5,1388.807,o),
(84.5,1375,c),
(84.5,1361.193,o),
(95.693,1350,o),
(109.5,1350,c),
(506,1350,l),
(865,1350,o),
(1156,1059,o),
(1156,700,c),
(1156,341,o),
(865,50,o),
(506,50,c),
(492.193,50,o),
(481,38.807,o),
(481,25,c),
(481,11.193,o),
(492.193,0,o),
(506,0,c)
);
}
);
width = 1270;
},
{
anchors = (
{
name = bottom;
pos = (643,0);
},
{
name = center;
pos = (643,700);
},
{
name = top;
pos = (583,1400);
}
);
layerId = "19FA402B-9607-46D9-AAD6-815AECBA5B6B";
name = Regular;
shapes = (
{
closed = 1;
nodes = (
(100,60,l),
(100,26.863,o),
(126.863,0,o),
(160,0,c),
(193.137,0,o),
(220,26.863,o),
(220,60,c),
(220,737,l),
(220,770.137,o),
(193.137,797,o),
(160,797,c),
(126.863,797,o),
(100,770.137,o),
(100,737,c)
);
},
{
closed = 1;
nodes = (
(911.106,0,o),
(1225,313.894,o),
(1225,700,c),
(1225,1086.106,o),
(911.106,1400,o),
(525,1400,c),
(160,1400,l),
(126.863,1400,o),
(100,1373.137,o),
(100,1340,c),
(100,1306.863,o),
(126.863,1280,o),
(160,1280,c),
(525,1280,l),
(845,1280,o),
(1105,1020,o),
(1105,700,c),
(1105,380,o),
(845,120,o),
(525,120,c),
(491.863,120,o),
(465,93.137,o),
(465,60,c),
(465,26.863,o),
(491.863,0,o),
(525,0,c)
);
}
);
width = 1305;
},
{
anchors = (
{
name = bottom;
pos = (743,0);
},
{
name = center;
pos = (743,700);
},
{
name = top;
pos = (713,1400);
}
);
layerId = "FF87E3F2-B049-41CB-BF2F-09DB15105515";
shapes = (
{
closed = 1;
nodes = (
(125,150,l),
(125,67.157,o),
(192.157,0,o),
(275,0,c),
(357.843,0,o),
(425,67.157,o),
(425,150,c),
(425,656,l),
(425,738.843,o),
(357.843,806,o),
(275,806,c),
(192.157,806,o),
(125,738.843,o),
(125,656,c)
);
},
{
closed = 1;
nodes = (
(1090.6,0,o),
(1405,313.4,o),
(1405,701,c),
(1405,1086.6,o),
(1090.6,1400,o),
(705,1400,c),
(260,1400,l),
(177.157,1400,o),
(110,1332.843,o),
(110,1250,c),
(110,1167.157,o),
(177.157,1100,o),
(260,1100,c),
(705,1100,l),
(925,1100,o),
(1105,921,o),
(1105,701,c),
(1105,479,o),
(925,300,o),
(705,300,c),
(622.157,300,o),
(555,232.843,o),
(555,150,c),
(555,67.157,o),
(622.157,0,o),
(705,0,c)
);
}
);
width = 1505;
}
);
metricLeft = H;
metricRight = O;
unicode = (68,100);
},
{
color = 5;
glyphname = Eth;
kernLeft = I;
kernRight = O;
lastChange = "2022-06-05 19:17:49 +0000";
layers = (
{
anchors = (
{
name = bottom;
pos = (744,0);
},
{
name = center;
pos = (744,700);
},
{
name = top;
pos = (694,1400);
}
);
layerId = m01;
shapes = (
{
closed = 1;
nodes = (
(208,25.5,l),
(208,11.693,o),
(219.193,0.5,o),
(233,0.5,c),
(246.807,0.5,o),
(258,11.693,o),
(258,25.5,c),
(258,468.5,l),
(258,482.307,o),
(246.807,493.5,o),
(233,493.5,c),
(219.193,493.5,o),
(208,482.307,o),
(208,468.5,c)
);
},
{
closed = 1;
nodes = (
(24.5,725,l),
(10.693,725,o),
(-0.5,713.807,o),
(-0.5,700,c),
(-0.5,686.193,o),
(10.693,675,o),
(24.5,675,c),
(565.5,675,l),
(579.307,675,o),
(590.5,686.193,o),
(590.5,700,c),
(590.5,713.807,o),
(579.307,725,o),
(565.5,725,c)
);
},
{
closed = 1;
nodes = (
(1013.511,0,o),
(1327,313.489,o),
(1327,700,c),
(1327,1086.511,o),
(1013.511,1400,o),
(627,1400,c),
(230.5,1400,l),
(216.693,1400,o),
(205.5,1388.807,o),
(205.5,1375,c),
(205.5,1361.193,o),
(216.693,1350,o),
(230.5,1350,c),
(627,1350,l),
(986,1350,o),
(1277,1059,o),
(1277,700,c),
(1277,341,o),
(986,50,o),
(627,50,c),
(613.193,50,o),
(602,38.807,o),
(602,25,c),
(602,11.193,o),
(613.193,0,o),
(627,0,c)
);
}
);
width = 1391;
},
{
anchors = (
{
name = bottom;
pos = (722,0);
},
{
name = center;
pos = (722,700);
},
{
name = top;
pos = (662,1400);
}
);
layerId = "19FA402B-9607-46D9-AAD6-815AECBA5B6B";
shapes = (
{
closed = 1;
nodes = (
(179,60,l),
(179,26.863,o),
(205.863,0,o),
(239,0,c),
(272.137,0,o),
(299,26.863,o),
(299,60,c),
(299,437,l),
(299,470.137,o),
(272.137,497,o),
(239,497,c),
(205.863,497,o),
(179,470.137,o),
(179,437,c)
);
},
{
closed = 1;
nodes = (
(60,760,l),
(26.863,760,o),
(0,733.137,o),
(0,700,c),
(0,666.863,o),
(26.863,640,o),
(60,640,c),
(538,640,l),
(571.137,640,o),
(598,666.863,o),
(598,700,c),
(598,733.137,o),
(571.137,760,o),
(538,760,c)
);
},
{
closed = 1;
nodes = (
(990.106,0,o),
(1304,313.894,o),
(1304,700,c),
(1304,1086.106,o),
(990.106,1400,o),
(604,1400,c),
(239,1400,l),
(205.863,1400,o),
(179,1373.137,o),
(179,1340,c),
(179,1306.863,o),
(205.863,1280,o),
(239,1280,c),
(604,1280,l),
(924,1280,o),
(1184,1020,o),
(1184,700,c),
(1184,380,o),
(924,120,o),
(604,120,c),
(570.863,120,o),
(544,93.137,o),
(544,60,c),
(544,26.863,o),
(570.863,0,o),
(604,0,c)
);
}
);
width = 1384;
},
{
anchors = (
{
name = bottom;
pos = (660,0);
},
{
name = center;
pos = (792,700);
},
{
name = top;
pos = (760,1400);
}
);
layerId = "FF87E3F2-B049-41CB-BF2F-09DB15105515";
shapes = (
{
closed = 1;
nodes = (
(174,150,l),
(174,67.157,o),
(241.157,0,o),
(324,0,c),
(406.843,0,o),
(474,67.157,o),
(474,150,c),
(474,286,l),
(474,368.843,o),
(406.843,436,o),
(324,436,c),
(241.157,436,o),
(174,368.843,o),
(174,286,c)
);
},
{
closed = 1;
nodes = (
(150,850,l),
(67.157,850,o),
(0,782.843,o),
(0,700,c),
(0,617.157,o),
(67.157,550,o),
(150,550,c),
(466,550,l),
(548.843,550,o),
(616,617.157,o),
(616,700,c),
(616,782.843,o),
(548.843,850,o),
(466,850,c)
);
},
{
closed = 1;
nodes = (
(1139.6,0,o),
(1454,313.4,o),
(1454,701,c),
(1454,1086.6,o),
(1139.6,1400,o),
(754,1400,c),
(309,1400,l),
(226.157,1400,o),
(159,1332.843,o),
(159,1250,c),
(159,1167.157,o),
(226.157,1100,o),
(309,1100,c),
(754,1100,l),
(974,1100,o),
(1154,921,o),
(1154,701,c),
(1154,479,o),
(974,300,o),
(754,300,c),
(671.157,300,o),
(604,232.843,o),
(604,150,c),
(604,67.157,o),
(671.157,0,o),
(754,0,c)
);
}
);
width = 1554;
}
);
metricRight = O;
unicode = (208,240);
},
{
color = 4;
glyphname = E;
kernLeft = I;
kernRight = E;
lastChange = "2022-06-05 19:17:41 +0000";
layers = (
{
anchors = (
{
name = bottom;
pos = (488,0);
},
{
name = ogonek;
pos = (906,1);
},
{
name = top;
pos = (488,1400);
},
{
name = topleft;
pos = (-5,1400);
}
);
layerId = m01;
shapes = (
{
closed = 1;
nodes = (
(135,735.5,l),
(135,749.307,o),
(123.807,760.5,o),
(110,760.5,c),
(96.193,760.5,o),
(85,749.307,o),
(85,735.5,c),
(85,28,l),
(135,28,l)
);
},
{
closed = 1;
nodes = (
(110,50,l),
(96.193,50,o),
(85,38.807,o),
(85,25,c),
(85,11.193,o),
(96.193,0,o),
(110,0,c),
(905.5,0,l),
(919.307,0,o),
(930.5,11.193,o),
(930.5,25,c),
(930.5,38.807,o),
(919.307,50,o),
(905.5,50,c)
);
},
{
closed = 1;
nodes = (
(905.5,675,l),
(919.307,675,o),
(930.5,686.193,o),
(930.5,700,c),
(930.5,713.807,o),
(919.307,725,o),
(905.5,725,c),
(405.5,725,l),
(391.693,725,o),
(380.5,713.807,o),
(380.5,700,c),
(380.5,686.193,o),
(391.693,675,o),
(405.5,675,c)
);
},
{
closed = 1;
nodes = (
(905.5,1350,l),
(919.307,1350,o),
(930.5,1361.193,o),
(930.5,1375,c),
(930.5,1388.807,o),
(919.307,1400,o),
(905.5,1400,c),
(110,1400,l),
(96.193,1400,o),
(85,1388.807,o),
(85,1375,c),
(85,1361.193,o),
(96.193,1350,o),
(110,1350,c)
);
}
);
width = 1001;
},
{
anchors = (
{
name = bottom;
pos = (497,0);
},
{
name = ogonek;
pos = (925,0);
},
{
name = top;
pos = (517,1400);
},
{
name = topleft;
pos = (20,1400);
}
);
layerId = "19FA402B-9607-46D9-AAD6-815AECBA5B6B";
name = Regular;
shapes = (
{
closed = 1;
nodes = (
(220,706,l),
(220,739.137,o),
(193.137,766,o),
(160,766,c),
(126.863,766,o),
(100,739.137,o),
(100,706,c),
(100,60,l),
(220,60,l)
);
},
{
closed = 1;
nodes = (
(160,120,l),
(126.863,120,o),
(100,93.137,o),
(100,60,c),
(100,26.863,o),
(126.863,0,o),
(160,0,c),
(924,0,l),
(957.137,0,o),
(984,26.863,o),
(984,60,c),
(984,93.137,o),
(957.137,120,o),
(924,120,c)
);
},
{
closed = 1;
nodes = (
(924,640,l),
(957.137,640,o),
(984,666.863,o),
(984,700,c),
(984,733.137,o),
(957.137,760,o),
(924,760,c),
(487,760,l),
(453.863,760,o),
(427,733.137,o),
(427,700,c),
(427,666.863,o),
(453.863,640,o),
(487,640,c)
);
},
{
closed = 1;
nodes = (
(924,1280,l),
(957.137,1280,o),
(984,1306.863,o),
(984,1340,c),
(984,1373.137,o),
(957.137,1400,o),
(924,1400,c),
(160,1400,l),
(126.863,1400,o),
(100,1373.137,o),
(100,1340,c),
(100,1306.863,o),
(126.863,1280,o),
(160,1280,c)
);
}
);
width = 1064;
},
{
anchors = (
{
name = bottom;
pos = (587,0);
},
{
name = ogonek;
pos = (929,0);
},
{
name = top;
pos = (587,1400);
},
{
name = topleft;
pos = (-20,1400);
}
);
layerId = "FF87E3F2-B049-41CB-BF2F-09DB15105515";
shapes = (
{
closed = 1;
nodes = (
(410,705,l),
(410,787.843,o),
(342.843,855,o),
(260,855,c),
(177.157,855,o),
(110,787.843,o),
(110,705,c),
(110,140,l),
(410,140,l)
);
},
{
closed = 1;
nodes = (
(260,300,l),
(177.157,300,o),
(110,232.843,o),
(110,150,c),
(110,67.157,o),
(177.157,0,o),
(260,0,c),
(943,0,l),
(1025.843,0,o),
(1093,67.157,o),
(1093,150,c),
(1093,232.843,o),
(1025.843,300,o),
(943,300,c)
);
},
{
closed = 1;
nodes = (
(943,550,l),
(1025.843,550,o),
(1093,617.157,o),
(1093,700,c),
(1093,782.843,o),
(1025.843,850,o),
(943,850,c),
(678,850,l),
(595.157,850,o),
(528,782.843,o),
(528,700,c),
(528,617.157,o),
(595.157,550,o),
(678,550,c)
);
},
{
closed = 1;
nodes = (
(943,1100,l),
(1025.843,1100,o),
(1093,1167.157,o),
(1093,1250,c),
(1093,1332.843,o),
(1025.843,1400,o),
(943,1400,c),
(260,1400,l),
(177.157,1400,o),
(110,1332.843,o),
(110,1250,c),
(110,1167.157,o),
(177.157,1100,o),
(260,1100,c)
);
}
);
width = 1195;
}
);
metricLeft = H;
unicode = (69,101);
},
{
color = 5;
glyphname = Schwa;
kernLeft = O;
kernRight = O;
lastChange = "2022-06-03 00:04:08 +0000";
layers = (
{
anchors = (
{
name = bottom;
pos = (764,0);
},
{
name = center;
pos = (764,700);
},
{
name = ogonek;
pos = (1375,10);
},
{
name = top;
pos = (764,1400);
},
{
name = topleft;
pos = (20,1400);
},
{
name = topright;
pos = (1508,1400);
}
);
layerId = m01;
shapes = (
{
closed = 1;
nodes = (
(1123,1350,o),
(1414,1059,o),
(1414,700,c),
(1414,341,o),
(1123,50,o),
(764,50,c),
(405,50,o),
(114,341,o),
(114,700,c),
(114,713.807,o),
(102.807,725,o),
(89,725,c),
(75.193,725,o),
(64,713.807,o),
(64,700,c),
(64,313.489,o),
(377.489,0,o),
(764,0,c),
(1150.511,0,o),
(1464,313.489,o),
(1464,700,c),
(1464,1086.511,o),
(1150.511,1400,o),
(764,1400,c),
(750.193,1400,o),
(739,1388.807,o),
(739,1375,c),
(739,1361.193,o),
(750.193,1350,o),
(764,1350,c)
);
},
{
closed = 1;
nodes = (
(1064,675,l),
(1077.807,675,o),
(1089,686.193,o),
(1089,700,c),
(1089,713.807,o),
(1077.807,725,o),
(1064,725,c),
(89.5,725,l),
(75.693,725,o),
(64.5,713.807,o),
(64.5,700,c),
(64.5,686.193,o),
(75.693,675,o),
(89.5,675,c)
);
}
);
width = 1528;
},
{
anchors = (
{
name = bottom;
pos = (780,0);
},
{
name = center;
pos = (780,700);
},
{
name = ogonek;
pos = (780,0);
},
{
name = top;
pos = (780,1400);
},
{
name = topleft;
pos = (40,1400);
},
{
name = topright;
pos = (1520,1400);
}
);
layerId = "19FA402B-9607-46D9-AAD6-815AECBA5B6B";
shapes = (
{
closed = 1;
nodes = (
(1101,1280,o),
(1360,1021,o),
(1360,700,c),
(1360,379,o),
(1101,120,o),
(780,120,c),
(459,120,o),
(200,379,o),
(200,700,c),
(200,733.137,o),
(173.137,760,o),
(140,760,c),
(106.863,760,o),
(80,733.137,o),
(80,700,c),
(80,312.894,o),
(392.894,0,o),
(780,0,c),
(1167.106,0,o),
(1480,312.894,o),
(1480,700,c),
(1480,1087.106,o),
(1167.106,1400,o),
(780,1400,c),
(746.863,1400,o),
(720,1373.137,o),
(720,1340,c),
(720,1306.863,o),
(746.863,1280,o),
(780,1280,c)
);
},
{
closed = 1;
nodes = (
(1080,640,l),
(1113.137,640,o),
(1140,666.863,o),
(1140,700,c),
(1140,733.137,o),
(1113.137,760,o),
(1080,760,c),
(140,760,l),
(106.863,760,o),
(80,733.137,o),
(80,700,c),
(80,666.863,o),
(106.863,640,o),
(140,640,c)
);
}
);
width = 1560;
},
{
anchors = (
{
name = bottom;
pos = (820,0);
},
{
name = center;
pos = (820,700);
},
{
name = ogonek;
pos = (1476,10);
},
{
name = top;
pos = (820,1400);
},
{
name = topleft;
pos = (20,1400);
},
{
name = topright;
pos = (1620,1400);
}
);
layerId = "FF87E3F2-B049-41CB-BF2F-09DB15105515";
shapes = (
{
closed = 1;
nodes = (
(1041,1100,o),
(1220,921,o),
(1220,700,c),
(1220,479,o),
(1041,300,o),
(820,300,c),
(599,300,o),
(420,479,o),
(420,700,c),
(420,782.843,o),
(352.843,850,o),
(270,850,c),
(187.157,850,o),
(120,782.843,o),
(120,700,c),
(120,313.4,o),
(433.4,0,o),
(820,0,c),
(1206.6,0,o),
(1520,313.4,o),
(1520,700,c),
(1520,1086.6,o),
(1206.6,1400,o),
(820,1400,c),
(737.157,1400,o),
(670,1332.843,o),
(670,1250,c),
(670,1167.157,o),
(737.157,1100,o),
(820,1100,c)
);
},
{
closed = 1;
nodes = (
(920,550,l),
(1002.843,550,o),
(1070,617.157,o),
(1070,700,c),
(1070,782.843,o),
(1002.843,850,o),
(920,850,c),
(270,850,l),
(187.157,850,o),
(120,782.843,o),
(120,700,c),
(120,617.157,o),
(187.157,550,o),
(270,550,c)
);
}
);
width = 1640;
}
);
unicode = (399,601);
},
{
color = 4;
glyphname = F;
kernLeft = E;
kernRight = F;
lastChange = "2022-06-05 19:17:41 +0000";
layers = (
{
anchors = (
{
name = bottom;
pos = (488,0);
},
{
name = top;
pos = (488,1400);
}
);
layerId = m01;
shapes = (
{
closed = 1;
nodes = (
(85,25,l),
(85,11.193,o),
(96.193,0,o),
(110,0,c),
(123.807,0,o),
(135,11.193,o),
(135,25,c),
(135,700,l),
(85,700,l)
);
},
{
closed = 1;
nodes = (
(110,725,l),
(96.193,725,o),
(85,713.807,o),
(85,700,c),
(85,686.193,o),
(96.193,675,o),
(110,675,c),
(813.5,675,l),
(827.307,675,o),
(838.5,686.193,o),
(838.5,700,c),
(838.5,713.807,o),
(827.307,725,o),
(813.5,725,c)
);
},
{
closed = 1;
nodes = (
(905.5,1350,l),
(919.307,1350,o),
(930.5,1361.193,o),
(930.5,1375,c),
(930.5,1388.807,o),
(919.307,1400,o),
(905.5,1400,c),
(110,1400,l),
(96.193,1400,o),
(85,1388.807,o),
(85,1375,c),
(85,1361.193,o),
(96.193,1350,o),
(110,1350,c)
);
}
);
width = 1001;
},
{
anchors = (
{
name = bottom;
pos = (520,0);
},
{
name = top;
pos = (540,1400);
}
);
layerId = "19FA402B-9607-46D9-AAD6-815AECBA5B6B";
name = Regular;
shapes = (
{
closed = 1;
nodes = (
(100,60,l),
(100,26.863,o),
(126.863,0,o),
(160,0,c),
(193.137,0,o),
(220,26.863,o),
(220,60,c),
(220,700,l),
(100,700,l)
);
},
{
closed = 1;
nodes = (
(160,760,l),
(126.863,760,o),
(100,733.137,o),
(100,700,c),
(100,666.863,o),
(126.863,640,o),
(160,640,c),
(829,640,l),
(862.137,640,o),
(889,666.863,o),
(889,700,c),
(889,733.137,o),
(862.137,760,o),
(829,760,c)
);
},
{
closed = 1;
nodes = (
(929,1280,l),
(962.137,1280,o),
(989,1306.863,o),
(989,1340,c),
(989,1373.137,o),
(962.137,1400,o),
(929,1400,c),
(160,1400,l),
(126.863,1400,o),
(100,1373.137,o),
(100,1340,c),
(100,1306.863,o),
(126.863,1280,o),
(160,1280,c)
);
}
);
width = 1069;
},
{
anchors = (
{
name = bottom;
pos = (589,0);
},
{
name = top;
pos = (589,1400);
}
);
layerId = "FF87E3F2-B049-41CB-BF2F-09DB15105515";
shapes = (
{
closed = 1;
nodes = (
(110,150,l),
(110,67.157,o),
(177.157,0,o),
(260,0,c),
(342.843,0,o),
(410,67.157,o),
(410,150,c),
(410,710,l),
(110,710,l)
);
},
{
closed = 1;
nodes = (
(260,850,l),
(177.157,850,o),
(110,782.843,o),
(110,700,c),
(110,617.157,o),
(177.157,550,o),
(260,550,c),
(848,550,l),
(930.843,550,o),
(998,617.157,o),
(998,700,c),
(998,782.843,o),
(930.843,850,o),
(848,850,c)
);
},
{
closed = 1;
nodes = (
(948,1100,l),
(1030.843,1100,o),
(1098,1167.157,o),
(1098,1250,c),
(1098,1332.843,o),
(1030.843,1400,o),
(948,1400,c),
(260,1400,l),
(177.157,1400,o),
(110,1332.843,o),
(110,1250,c),
(110,1167.157,o),
(177.157,1100,o),
(260,1100,c)
);
}
);
width = 1200;
}
);
metricLeft = H;
metricRight = E;
unicode = (70,102);
},
{
color = 4;
glyphname = G;
kernLeft = O;
kernRight = G;
lastChange = "2022-06-05 19:17:41 +0000";
layers = (
{
anchors = (
{
name = bottom;
pos = (686,0);
},
{
name = top;
pos = (776,1400);
}
);
layerId = m01;
shapes = (
{
closed = 1;
nodes = (
(405,50,o),
(114,341,o),
(114,700,c),
(114,1059,o),
(405,1350,o),
(764,1350,c),
(1235.5,1350,l),
(1249.307,1350,o),
(1260.5,1361.193,o),
(1260.5,1375,c),
(1260.5,1388.807,o),
(1249.307,1400,o),
(1235.5,1400,c),
(764,1400,l),
(377.489,1400,o),
(64,1086.511,o),
(64,700,c),
(64,313.489,o),
(377.489,0,o),
(764,0,c),
(777.807,0,o),
(789,11.193,o),
(789,25,c),
(789,38.807,o),
(777.807,50,o),
(764,50,c)
);
},
{
closed = 1;
nodes = (
(1258,608,l),
(1258,621.807,o),
(1246.807,633,o),
(1233,633,c),
(1219.193,633,o),
(1208,621.807,o),
(1208,608,c),
(1208,25,l),
(1208,11.193,o),
(1219.193,0,o),
(1233,0,c),
(1246.807,0,o),
(1258,11.193,o),
(1258,25,c)
);
}
);
width = 1346;
},
{
anchors = (
{
name = bottom;
pos = (700,0);
},
{
name = top;
pos = (790,1400);
}
);
layerId = "19FA402B-9607-46D9-AAD6-815AECBA5B6B";
name = Regular;
shapes = (
{
closed = 1;
nodes = (
(460,120,o),
(200,380,o),
(200,700,c),
(200,1020,o),
(460,1280,o),
(780,1280,c),
(1220,1280,l),
(1253.137,1280,o),
(1280,1306.863,o),
(1280,1340,c),
(1280,1373.137,o),
(1253.137,1400,o),
(1220,1400,c),
(780,1400,l),
(393.894,1400,o),
(80,1086.106,o),
(80,700,c),
(80,313.894,o),
(393.894,0,o),
(780,0,c),
(813.137,0,o),
(840,26.863,o),
(840,60,c),
(840,93.137,o),
(813.137,120,o),
(780,120,c)
);
},
{
closed = 1;
nodes = (
(1274,608,l),
(1274,641.137,o),
(1247.137,668,o),
(1214,668,c),
(1180.863,668,o),
(1154,641.137,o),
(1154,608,c),
(1154,60,l),
(1154,26.863,o),
(1180.863,0,o),
(1214,0,c),
(1247.137,0,o),
(1274,26.863,o),
(1274,60,c)
);
}
);
width = 1380;
},
{
anchors = (
{
name = bottom;
pos = (747,0);
},
{
name = top;
pos = (827,1400);
}
);
layerId = "FF87E3F2-B049-41CB-BF2F-09DB15105515";
shapes = (
{
closed = 1;
nodes = (
(578,301,o),
(400,480,o),
(400,700,c),
(400,921,o),
(578,1100,o),
(798,1100,c),
(1213,1100,l),
(1295.843,1100,o),
(1363,1167.157,o),
(1363,1250,c),
(1363,1332.843,o),
(1295.843,1400,o),
(1213,1400,c),
(798,1400,l),
(412.4,1400,o),
(100,1086.6,o),
(100,700,c),
(100,314.4,o),
(412.4,1,o),
(798,1,c),
(880.843,1,o),
(948,68.157,o),
(948,151,c),
(948,233.843,o),
(880.843,301,o),
(798,301,c)
);
},
{
closed = 1;
nodes = (
(1364,608,l),
(1364,690.843,o),
(1296.843,758,o),
(1214,758,c),
(1131.157,758,o),
(1064,690.843,o),
(1064,608,c),
(1064,150,l),
(1064,67.157,o),
(1131.157,0,o),
(1214,0,c),
(1296.843,0,o),
(1364,67.157,o),
(1364,150,c)
);
}
);
width = 1474;
}
);
metricLeft = O;
metricRight = H;
unicode = (71,103);
},
{
color = 4;
glyphname = H;
kernLeft = I;
kernRight = I;
lastChange = "2022-06-05 19:15:27 +0000";
layers = (
{
anchors = (
{
name = bottom;
pos = (613,0);
},
{
name = center;
pos = (613,700);
},
{
name = top;
pos = (613,1400);
},
{
name = topleft;
pos = (5,1400);
}
);
layerId = m01;
shapes = (
{
closed = 1;
nodes = (
(135,382.5,l),
(135,396.307,o),
(123.807,407.5,o),
(110,407.5,c),
(96.193,407.5,o),
(85,396.307,o),
(85,382.5,c),
(85,25.5,l),
(85,11.693,o),
(96.193,0.5,o),
(110,0.5,c),
(123.807,0.5,o),
(135,11.693,o),
(135,25.5,c)
);
},
{
closed = 1;
nodes = (
(85,700,l),
(85,686.193,o),
(96.193,675,o),
(110,675,c),
(123.807,675,o),
(135,686.193,o),
(135,700,c),
(135,1374.5,l),
(135,1388.307,o),
(123.807,1399.5,o),
(110,1399.5,c),
(96.193,1399.5,o),
(85,1388.307,o),
(85,1374.5,c)
);
},
{
closed = 1;
nodes = (
(110,725,l),
(110,675,l),
(1116,675,l),
(1116,725,l)
);
},
{
closed = 1;
nodes = (
(1091,25.5,l),
(1091,11.693,o),
(1102.193,0.5,o),
(1116,0.5,c),
(1129.807,0.5,o),
(1141,11.693,o),
(1141,25.5,c),
(1141,700,l),
(1141,713.807,o),
(1129.807,725,o),
(1116,725,c),
(1102.193,725,o),
(1091,713.807,o),
(1091,700,c)
);
},
{
closed = 1;
nodes = (
(1141,1374.5,l),
(1141,1388.307,o),
(1129.807,1399.5,o),
(1116,1399.5,c),
(1102.193,1399.5,o),
(1091,1388.307,o),
(1091,1374.5,c),
(1091,1017.5,l),
(1091,1003.693,o),
(1102.193,992.5,o),
(1116,992.5,c),
(1129.807,992.5,o),
(1141,1003.693,o),
(1141,1017.5,c)
);
}
);
width = 1226;
},
{
anchors = (
{
name = bottom;
pos = (663,0);
},
{
name = center;
pos = (663,700);
},
{
name = top;
pos = (663,1400);
},
{
name = topleft;
pos = (20,1400);
}
);
layerId = "19FA402B-9607-46D9-AAD6-815AECBA5B6B";
shapes = (
{
closed = 1;
nodes = (
(220,351,l),
(220,384.137,o),
(193.137,411,o),
(160,411,c),
(126.863,411,o),
(100,384.137,o),
(100,351,c),
(100,60,l),
(100,26.863,o),
(126.863,0,o),
(160,0,c),
(193.137,0,o),
(220,26.863,o),
(220,60,c)
);
},
{
closed = 1;
nodes = (
(100,700,l),
(100,666.863,o),
(126.863,640,o),
(160,640,c),
(193.137,640,o),
(220,666.863,o),
(220,700,c),
(220,1340,l),
(220,1373.137,o),
(193.137,1400,o),
(160,1400,c),
(126.863,1400,o),
(100,1373.137,o),
(100,1340,c)
);
},
{
closed = 1;
nodes = (
(160,760,l),
(160,640,l),
(1166,640,l),
(1166,760,l)
);
},
{
closed = 1;
nodes = (
(1106,60,l),
(1106,26.863,o),
(1132.863,0,o),
(1166,0,c),
(1199.137,0,o),
(1226,26.863,o),
(1226,60,c),
(1226,700,l),
(1226,733.137,o),
(1199.137,760,o),
(1166,760,c),
(1132.863,760,o),
(1106,733.137,o),
(1106,700,c)
);
},
{
closed = 1;
nodes = (
(1226,1340,l),
(1226,1373.137,o),
(1199.137,1400,o),
(1166,1400,c),
(1132.863,1400,o),
(1106,1373.137,o),
(1106,1340,c),
(1106,1049,l),
(1106,1015.863,o),
(1132.863,989,o),
(1166,989,c),
(1199.137,989,o),
(1226,1015.863,o),
(1226,1049,c)
);
}
);
width = 1326;
},
{
anchors = (
{
name = bottom;
pos = (763,0);
},
{
name = center;
pos = (763,700);
},
{
name = top;
pos = (763,1400);
},
{
name = topleft;
pos = (30,1400);
}
);
layerId = "FF87E3F2-B049-41CB-BF2F-09DB15105515";
shapes = (
{
closed = 1;
nodes = (
(410,270,l),
(410,352.843,o),
(342.843,420,o),
(260,420,c),
(177.157,420,o),
(110,352.843,o),
(110,270,c),
(110,150,l),
(110,67.157,o),
(177.157,0,o),
(260,0,c),
(342.843,0,o),
(410,67.157,o),
(410,150,c)
);
},
{
closed = 1;
nodes = (
(110,700,l),
(110,617.157,o),
(177.157,550,o),
(260,550,c),
(342.843,550,o),
(410,617.157,o),
(410,700,c),
(410,1250,l),
(410,1332.843,o),
(342.843,1400,o),
(260,1400,c),
(177.157,1400,o),
(110,1332.843,o),
(110,1250,c)
);
},
{
closed = 1;
nodes = (
(260,850,l),
(260,550,l),
(1266,550,l),
(1266,850,l)
);
},
{
closed = 1;
nodes = (
(1116,150,l),
(1116,67.157,o),
(1183.157,0,o),
(1266,0,c),
(1348.843,0,o),
(1416,67.157,o),
(1416,150,c),
(1416,700,l),
(1416,782.843,o),
(1348.843,850,o),
(1266,850,c),
(1183.157,850,o),
(1116,782.843,o),
(1116,700,c)
);
},
{
closed = 1;
nodes = (
(1416,1250,l),
(1416,1332.843,o),
(1348.843,1400,o),
(1266,1400,c),
(1183.157,1400,o),
(1116,1332.843,o),
(1116,1250,c),
(1116,1130,l),
(1116,1047.157,o),
(1183.157,980,o),
(1266,980,c),
(1348.843,980,o),
(1416,1047.157,o),
(1416,1130,c)
);
}
);
width = 1526;
}
);
unicode = (72,104);
},
{
color = 4;
glyphname = I;
kernLeft = I;
kernRight = I;
lastChange = "2022-06-05 19:17:41 +0000";
layers = (
{
anchors = (
{
name = bottom;
pos = (110,0);
},
{
name = ogonek;
pos = (109,0);
},
{
name = top;
pos = (110,1400);
},
{
name = topleft;
pos = (-5,1400);
}
);
layerId = m01;
shapes = (
{
closed = 1;
nodes = (
(135,500,l),
(135,513.807,o),
(123.807,525,o),
(110,525,c),
(96.193,525,o),
(85,513.807,o),
(85,500,c),
(85,25.5,l),
(85,11.693,o),
(96.193,0.5,o),
(110,0.5,c),
(123.807,0.5,o),
(135,11.693,o),
(135,25.5,c)
);
},
{
closed = 1;
nodes = (
(135,1374.5,l),
(135,1388.307,o),
(123.807,1399.5,o),
(110,1399.5,c),
(96.193,1399.5,o),
(85,1388.307,o),
(85,1374.5,c),
(85,900,l),
(85,886.193,o),
(96.193,875,o),
(110,875,c),
(123.807,875,o),
(135,886.193,o),
(135,900,c)
);
}
);
width = 220;
},
{
anchors = (
{
name = bottom;
pos = (160,0);
},
{
name = ogonek;
pos = (160,0);
},
{
name = top;
pos = (160,1400);
},
{
name = topleft;
pos = (20,1400);
}
);
layerId = "19FA402B-9607-46D9-AAD6-815AECBA5B6B";
shapes = (
{
closed = 1;
nodes = (
(220,500,l),
(220,533.137,o),
(193.137,560,o),
(160,560,c),
(126.863,560,o),
(100,533.137,o),
(100,500,c),
(100,60,l),
(100,26.863,o),
(126.863,0,o),
(160,0,c),
(193.137,0,o),
(220,26.863,o),
(220,60,c)
);
},
{
closed = 1;
nodes = (
(220,1340,l),
(220,1373.137,o),
(193.137,1400,o),
(160,1400,c),
(126.863,1400,o),
(100,1373.137,o),
(100,1340,c),
(100,900,l),
(100,866.863,o),
(126.863,840,o),
(160,840,c),
(193.137,840,o),
(220,866.863,o),
(220,900,c)
);
}
);
width = 320;
},
{
anchors = (
{
name = bottom;
pos = (260,0);
},
{
name = ogonek;
pos = (247,0);
},
{
name = top;
pos = (260,1400);
},
{
name = topleft;
pos = (-20,1400);
}
);
layerId = "FF87E3F2-B049-41CB-BF2F-09DB15105515";
shapes = (
{
closed = 1;
nodes = (
(410,440,l),
(410,522.843,o),
(342.843,590,o),
(260,590,c),
(177.157,590,o),
(110,522.843,o),
(110,440,c),
(110,150,l),
(110,67.157,o),
(177.157,0,o),
(260,0,c),
(342.843,0,o),
(410,67.157,o),
(410,150,c)
);
},
{
closed = 1;
nodes = (
(410,1250,l),
(410,1332.843,o),
(342.843,1400,o),
(260,1400,c),
(177.157,1400,o),
(110,1332.843,o),
(110,1250,c),
(110,960,l),
(110,877.157,o),
(177.157,810,o),
(260,810,c),
(342.843,810,o),
(410,877.157,o),
(410,960,c)
);
}
);
width = 520;
}
);
metricLeft = H;
metricRight = H;
unicode = (73,305);
},
{
color = 5;
glyphname = Idotaccent;
kernLeft = I;
kernRight = I;
lastChange = "2022-06-05 19:22:37 +0000";
layers = (
{
anchors = (
{
name = _top;
pos = (122,1400);
},
{
name = top;
pos = (122,1669);
}
);
layerId = m01;
shapes = (
{
closed = 1;
nodes = (
(142,1594,o),
(160,1612,o),
(160,1632,cs),
(160,1652,o),
(142,1669,o),
(122,1669,cs),
(102,1669,o),
(85,1652,o),
(85,1632,cs),
(85,1612,o),
(102,1594,o),
(122,1594,cs)
);
},
{
pos = (12,0);
ref = I;
}
);
width = 245;
},
{
anchors = (
{
name = _top;
pos = (175,1400);
},
{
name = top;
pos = (175,1744);
}
);
layerId = "19FA402B-9607-46D9-AAD6-815AECBA5B6B";
shapes = (
{
closed = 1;
nodes = (
(216,1594,o),
(250,1628,o),
(250,1669,cs),
(250,1710,o),
(216,1744,o),
(175,1744,cs),
(134,1744,o),
(100,1710,o),
(100,1669,cs),
(100,1628,o),
(134,1594,o),
(175,1594,cs)
);
},
{
pos = (15,0);
ref = I;
}
);
width = 350;
},
{
anchors = (
{
name = _top;
pos = (300,1400);
},
{
name = top;
pos = (300,1833);
}
);
layerId = "FF87E3F2-B049-41CB-BF2F-09DB15105515";
shapes = (
{
closed = 1;
nodes = (
(342,1534,o),
(410,1602,o),
(410,1683,cs),
(410,1765,o),
(341,1833,o),
(260,1833,cs),
(179,1833,o),
(110,1765,o),
(110,1683,cs),
(110,1602,o),
(180,1534,o),
(261,1534,cs)
);
},
{
ref = I;
}
);
width = 520;
}
);
metricLeft = I;
metricRight = I;
unicode = 304;
},
{
color = 4;
glyphname = J;
kernLeft = J;
kernRight = J;
lastChange = "2022-06-05 19:17:41 +0000";
layers = (
{
anchors = (
{
name = bottom;
pos = (559,0);
},
{
name = top;
pos = (1031,1399);
}
);
layerId = m01;
shapes = (
{
closed = 1;
nodes = (
(1005,250,o),
(805,50,o),
(558,50,c),
(310,50,o),
(110,250,o),
(110,498,c),
(110,511.807,o),
(98.807,523,o),
(85,523,c),
(71.193,523,o),
(60,511.807,o),
(60,498,c),
(60,222.489,o),
(282.489,0,o),
(558,0,c),
(832.511,0,o),
(1055,222.489,o),
(1055,498,c),
(1055,511.807,o),
(1043.807,523,o),
(1030,523,c),
(1016.193,523,o),
(1005,511.807,o),
(1005,498,c)
);
},
{
closed = 1;
nodes = (
(1056,1374.5,l),
(1056,1388.307,o),
(1044.807,1399.5,o),
(1031,1399.5,c),
(1017.193,1399.5,o),
(1006,1388.307,o),
(1006,1374.5,c),
(1006,900,l),
(1006,886.193,o),
(1017.193,875,o),
(1031,875,c),
(1044.807,875,o),
(1056,886.193,o),
(1056,900,c)
);
}
);
width = 1133;
},
{
anchors = (
{
name = bottom;
pos = (568,0);
},
{
name = top;
pos = (1006,1400);
}
);
layerId = "19FA402B-9607-46D9-AAD6-815AECBA5B6B";
shapes = (
{
closed = 1;
nodes = (
(945,289,o),
(776,120,o),
(568,120,c),
(359,120,o),
(190,289,o),
(190,498,c),
(190,531.137,o),
(163.137,558,o),
(130,558,c),
(96.863,558,o),
(70,531.137,o),
(70,498,c),
(70,222.894,o),
(292.894,0,o),
(568,0,c),
(842.106,0,o),
(1065,222.894,o),
(1065,498,c),
(1065,531.137,o),
(1038.137,558,o),
(1005,558,c),
(971.863,558,o),
(945,531.137,o),
(945,498,c)
);
},
{
closed = 1;
nodes = (
(1066,1340,l),
(1066,1373.137,o),
(1039.137,1400,o),
(1006,1400,c),
(972.863,1400,o),
(946,1373.137,o),
(946,1340,c),
(946,900,l),
(946,866.863,o),
(972.863,840,o),
(1006,840,c),
(1039.137,840,o),
(1066,866.863,o),
(1066,900,c)
);
}
);
width = 1154;
},
{
anchors = (
{
name = bottom;
pos = (641,0);
},
{
name = top;
pos = (1046,1400);
}
);
layerId = "FF87E3F2-B049-41CB-BF2F-09DB15105515";
shapes = (
{
closed = 1;
nodes = (
(896,404,o),
(781,290,o),
(641,290,c),
(500,290,o),
(385,404,o),
(385,545,c),
(385,627.843,o),
(317.843,695,o),
(235,695,c),
(152.157,695,o),
(85,627.843,o),
(85,545,c),
(85,236.2,o),
(336.8,-10,o),
(641,-10,c),
(944.2,-10,o),
(1196,236.2,o),
(1196,545,c),
(1196,627.843,o),
(1128.843,695,o),
(1046,695,c),
(963.157,695,o),
(896,627.843,o),
(896,545,c)
);
},
{
closed = 1;
nodes = (
(1196,1250,l),
(1196,1332.843,o),
(1128.843,1400,o),
(1046,1400,c),
(963.157,1400,o),
(896,1332.843,o),
(896,1250,c),
(896,1030,l),
(896,947.157,o),
(963.157,880,o),
(1046,880,c),
(1128.843,880,o),
(1196,947.157,o),
(1196,1030,c)
);
}
);
width = 1308;
}
);
metricLeft = A;
unicode = (74,106,567);
},
{
color = 4;
glyphname = K;
kernLeft = I;
kernRight = K;
lastChange = "2022-08-24 06:24:18 +0000";
layers = (
{
anchors = (
{
name = bottom;
pos = (590,0);
},
{
name = top;
pos = (590,1400);
}
);
layerId = m01;
shapes = (
{
closed = 1;
nodes = (
(135,1374.5,l),
(135,1388.307,o),
(123.807,1399.5,o),
(110,1399.5,c),
(96.193,1399.5,o),
(85,1388.307,o),
(85,1374.5,c),
(85,25.5,l),
(85,11.693,o),
(96.193,0.5,o),
(110,0.5,c),
(123.807,0.5,o),
(135,11.693,o),
(135,25.5,c)
);
},
{
closed = 1;
nodes = (
(461.678,717.678,l),
(457.154,722.202,o),
(450.904,725,o),
(444,725,c),
(430.193,725,o),
(419,713.807,o),
(419,700,c),
(419,693.096,o),
(421.798,686.846,o),
(426.322,682.322,c),
(1101.412,7.232,l),
(1105.936,2.708,o),
(1112.186,-0.09,o),
(1119.09,-0.09,c),
(1132.897,-0.09,o),
(1144.09,11.103,o),
(1144.09,24.91,c),
(1144.09,31.814,o),
(1141.292,38.064,o),
(1136.768,42.588,c)
);
},
{
closed = 1;
nodes = (
(724.322,1015.678,l),
(719.798,1011.154,o),
(717,1004.904,o),
(717,998,c),
(717,984.193,o),
(728.193,973,o),
(742,973,c),
(748.904,973,o),
(755.154,975.798,o),
(759.678,980.322,c),
(1136.768,1357.412,l),
(1141.292,1361.936,o),
(1144.09,1368.186,o),
(1144.09,1375.09,c),
(1144.09,1388.897,o),
(1132.897,1400.09,o),
(1119.09,1400.09,c),
(1112.186,1400.09,o),
(1105.936,1397.292,o),
(1101.412,1392.768,c)
);
}
);
width = 1204;
},
{
anchors = (
{
name = bottom;
pos = (610,0);
},
{
name = top;
pos = (610,1400);
}
);
layerId = "19FA402B-9607-46D9-AAD6-815AECBA5B6B";
shapes = (
{
closed = 1;
nodes = (
(220,1340,l),
(220,1373.137,o),
(193.137,1400,o),
(160,1400,c),
(126.863,1400,o),
(100,1373.137,o),
(100,1340,c),
(100,60,l),
(100,26.863,o),
(126.863,0,o),
(160,0,c),
(193.137,0,o),
(220,26.863,o),
(220,60,c)
);
},
{
closed = 1;
nodes = (
(501.426,742.426,l),
(490.569,753.284,o),
(475.569,760,o),
(459,760,c),
(425.863,760,o),
(399,733.137,o),
(399,700,c),
(399,683.431,o),
(405.716,668.431,o),
(416.574,657.574,c),
(1056.39,17.757,l),
(1067.248,6.899,o),
(1082.248,0.184,o),
(1098.816,0.184,c),
(1131.954,0.184,o),
(1158.816,27.046,o),
(1158.816,60.184,c),
(1158.816,76.752,o),
(1152.101,91.752,o),
(1141.243,102.61,c)
);
},
{
closed = 1;
nodes = (
(714.574,1040.426,l),
(703.716,1029.569,o),
(697,1014.569,o),
(697,998,c),
(697,964.863,o),
(723.863,938,o),
(757,938,c),
(773.569,938,o),
(788.569,944.716,o),
(799.426,955.574,c),
(1141.243,1297.39,l),
(1152.101,1308.248,o),
(1158.816,1323.248,o),
(1158.816,1339.816,c),
(1158.816,1372.954,o),
(1131.954,1399.816,o),
(1098.816,1399.816,c),
(1082.248,1399.816,o),
(1067.248,1393.101,o),
(1056.39,1382.243,c)
);
}
);
width = 1229;
},
{
anchors = (
{
name = bottom;
pos = (700,0);
},
{
name = top;
pos = (700,1400);
}
);
layerId = "FF87E3F2-B049-41CB-BF2F-09DB15105515";
shapes = (
{
closed = 1;
nodes = (
(410,1250,l),
(410,1332.843,o),
(342.843,1400,o),
(260,1400,c),
(177.157,1400,o),
(110,1332.843,o),
(110,1250,c),
(110,150,l),
(110,67.157,o),
(177.157,0,o),
(260,0,c),
(342.843,0,o),
(410,67.157,o),
(410,150,c)
);
},
{
closed = 1;
nodes = (
(745.066,806.066,l),
(717.922,833.211,o),
(680.422,850,o),
(639,850,c),
(556.157,850,o),
(489,782.843,o),
(489,700,c),
(489,658.578,o),
(505.789,621.078,o),
(532.934,593.934,c),
(1082.474,44.393,l),
(1109.619,17.249,o),
(1147.119,0.459,o),
(1188.541,0.459,c),
(1271.384,0.459,o),
(1338.541,67.616,o),
(1338.541,150.459,c),
(1338.541,191.881,o),
(1321.751,229.381,o),
(1294.607,256.526,c)
);
},
{
closed = 1;
nodes = (
(830.934,1104.066,l),
(803.789,1076.922,o),
(787,1039.422,o),
(787,998,c),
(787,915.157,o),
(854.157,848,o),
(937,848,c),
(978.422,848,o),
(1015.922,864.789,o),
(1043.066,891.934,c),
(1294.375,1143.242,l),
(1321.656,1170.405,o),
(1338.541,1208,o),
(1338.541,1249.541,c),
(1338.541,1332.384,o),
(1271.384,1399.541,o),
(1188.541,1399.541,c),
(1147.002,1399.541,o),
(1109.407,1382.656,o),
(1082.244,1355.376,c)
);
}
);
width = 1424;
}
);
metricLeft = H;
metricRight = A;
unicode = (75,107);
},
{
color = 4;
glyphname = L;
kernLeft = I;
kernRight = L;
lastChange = "2022-06-05 19:17:41 +0000";
layers = (
{
anchors = (
{
name = bottom;
pos = (570,0);
},
{
name = center;
pos = (570,700);
},
{
name = top;
pos = (112,1400);
},
{
name = topright;
pos = (1145,1400);
}
);
layerId = m01;
shapes = (
{
closed = 1;
nodes = (
(109.5,50,l),
(95.693,50,o),
(84.5,38.807,o),
(84.5,25,c),
(84.5,11.193,o),
(95.693,0,o),
(109.5,0,c),
(1079.5,0,l),
(1093.307,0,o),
(1104.5,11.193,o),
(1104.5,25,c),
(1104.5,38.807,o),
(1093.307,50,o),
(1079.5,50,c)
);
},
{
closed = 1;
nodes = (
(137,1374.5,l),
(137,1388.307,o),
(125.807,1399.5,o),
(112,1399.5,c),
(98.193,1399.5,o),
(87,1388.307,o),
(87,1374.5,c),
(87,402,l),
(87,388.193,o),
(98.193,377,o),
(112,377,c),
(125.807,377,o),
(137,388.193,o),
(137,402,c)
);
}
);
width = 1165;
},
{
anchors = (
{
name = bottom;
pos = (594,0);
},
{
name = center;
pos = (594,700);
},
{
name = top;
pos = (166,1400);
},
{
name = topright;
pos = (1167,1400);
}
);
layerId = "19FA402B-9607-46D9-AAD6-815AECBA5B6B";
shapes = (
{
closed = 1;
nodes = (
(160,120,l),
(126.863,120,o),
(100,93.137,o),
(100,60,c),
(100,26.863,o),
(126.863,0,o),
(160,0,c),
(1067,0,l),
(1100.137,0,o),
(1127,26.863,o),
(1127,60,c),
(1127,93.137,o),
(1100.137,120,o),
(1067,120,c)
);
},
{
closed = 1;
nodes = (
(226,1340,l),
(226,1373.137,o),
(199.137,1400,o),
(166,1400,c),
(132.863,1400,o),
(106,1373.137,o),
(106,1340,c),
(106,402,l),
(106,368.863,o),
(132.863,342,o),
(166,342,c),
(199.137,342,o),
(226,368.863,o),
(226,402,c)
);
}
);
width = 1197;
},
{
anchors = (
{
name = bottom;
pos = (608,0);
},
{
name = center;
pos = (608,700);
},
{
name = top;
pos = (275,1400);
},
{
name = topright;
pos = (1235,1400);
}
);
layerId = "FF87E3F2-B049-41CB-BF2F-09DB15105515";
shapes = (
{
closed = 1;
nodes = (
(260,300,l),
(177.157,300,o),
(110,232.843,o),
(110,150,c),
(110,67.157,o),
(177.157,0,o),
(260,0,c),
(1005,0,l),
(1087.843,0,o),
(1155,67.157,o),
(1155,150,c),
(1155,232.843,o),
(1087.843,300,o),
(1005,300,c)
);
},
{
closed = 1;
nodes = (
(425,1250,l),
(425,1332.843,o),
(357.843,1400,o),
(275,1400,c),
(192.157,1400,o),
(125,1332.843,o),
(125,1250,c),
(125,602,l),
(125,519.157,o),
(192.157,452,o),
(275,452,c),
(357.843,452,o),
(425,519.157,o),
(425,602,c)
);
}
);
width = 1240;
}
);
metricLeft = H;
metricRight = A;
unicode = (76,108);
},
{
color = 5;
glyphname = Lslash;
kernLeft = I;
kernRight = L;
lastChange = "2022-06-05 19:17:49 +0000";
layers = (
{
layerId = m01;
shapes = (
{
closed = 1;
nodes = (
(258,451.5,l),
(258,465.307,o),
(246.807,476.5,o),
(233,476.5,c),
(219.193,476.5,o),
(208,465.307,o),
(208,451.5,c),
(208,28.5,l),
(208,14.693,o),
(219.193,3.5,o),
(233,3.5,c),
(246.807,3.5,o),
(258,14.693,o),
(258,28.5,c)
);
},
{
closed = 1;
nodes = (
(233,50,l),
(219.193,50,o),
(208,38.807,o),
(208,25,c),
(208,11.193,o),
(219.193,0,o),
(233,0,c),
(1128,0,l),
(1141.807,0,o),
(1153,11.193,o),
(1153,25,c),
(1153,38.807,o),
(1141.807,50,o),
(1128,50,c)
);
},
{
closed = 1;
nodes = (
(11.896,602.615,l),
(4.529,598.266,o),
(-0.412,590.246,o),
(-0.412,581.071,c),
(-0.412,567.264,o),
(10.78,556.071,o),
(24.588,556.071,c),
(29.22,556.071,o),
(33.559,557.331,o),
(37.279,559.528,c),
(458.104,797.385,l),
(465.471,801.734,o),
(470.412,809.754,o),
(470.412,818.929,c),
(470.412,832.736,o),
(459.22,843.929,o),
(445.412,843.929,c),
(440.78,843.929,o),
(436.441,842.669,o),
(432.721,840.472,c)
);
},
{
closed = 1;
nodes = (
(258,1371.5,l),
(258,1385.307,o),
(246.807,1396.5,o),
(233,1396.5,c),
(219.193,1396.5,o),
(208,1385.307,o),
(208,1371.5,c),
(208,948.5,l),
(208,934.693,o),
(219.193,923.5,o),
(233,923.5,c),
(246.807,923.5,o),
(258,934.693,o),
(258,948.5,c)
);
}
);
width = 1213;
},
{
layerId = "19FA402B-9607-46D9-AAD6-815AECBA5B6B";
shapes = (
{
closed = 1;
nodes = (
(301,420,l),
(301,453.137,o),
(274.137,480,o),
(241,480,c),
(207.863,480,o),
(181,453.137,o),
(181,420,c),
(181,60,l),
(181,26.863,o),
(207.863,0,o),
(241,0,c),
(274.137,0,o),
(301,26.863,o),
(301,60,c)
);
},
{
closed = 1;
nodes = (
(241,120,l),
(207.863,120,o),
(181,93.137,o),
(181,60,c),
(181,26.863,o),
(207.863,0,o),
(241,0,c),
(1136,0,l),
(1169.137,0,o),
(1196,26.863,o),
(1196,60,c),
(1196,93.137,o),
(1169.137,120,o),
(1136,120,c)
);
},
{
closed = 1;
nodes = (
(29.551,648.276,l),
(11.871,637.838,o),
(0.01,618.59,o),
(0.01,596.571,c),
(0.01,563.434,o),
(26.873,536.571,o),
(60.01,536.571,c),
(71.129,536.571,o),
(81.542,539.595,o),
(90.47,544.866,c),
(456.449,751.724,l),
(474.129,762.162,o),
(485.99,781.41,o),
(485.99,803.429,c),
(485.99,836.566,o),
(459.127,863.429,o),
(425.99,863.429,c),
(414.871,863.429,o),
(404.458,860.405,o),
(395.53,855.134,c)
);
},
{
closed = 1;
nodes = (
(301,1340,l),
(301,1373.137,o),
(274.137,1400,o),
(241,1400,c),
(207.863,1400,o),
(181,1373.137,o),
(181,1340,c),
(181,980,l),
(181,946.863,o),
(207.863,920,o),
(241,920,c),
(274.137,920,o),
(301,946.863,o),
(301,980,c)
);
}
);
width = 1266;
},
{
layerId = "FF87E3F2-B049-41CB-BF2F-09DB15105515";
shapes = (
{
closed = 1;
nodes = (
(509,379,l),
(509,461.843,o),
(441.843,529,o),
(359,529,c),
(276.157,529,o),
(209,461.843,o),
(209,379,c),
(209,150,l),
(209,67.157,o),
(276.157,0,o),
(359,0,c),
(441.843,0,o),
(509,67.157,o),
(509,150,c)
);
},
{
closed = 1;
nodes = (
(359,300,l),
(276.157,300,o),
(209,232.843,o),
(209,150,c),
(209,67.157,o),
(276.157,0,o),
(359,0,c),
(1089,0,l),
(1171.843,0,o),
(1239,67.157,o),
(1239,150,c),
(1239,232.843,o),
(1171.843,300,o),
(1089,300,c)
);
},
{
closed = 1;
nodes = (
(107.036,816.102,l),
(44.901,797.77,o),
(-0.445,740.288,o),
(-0.445,672.213,c),
(-0.445,589.37,o),
(66.712,522.213,o),
(149.555,522.213,c),
(164.324,522.213,o),
(178.595,524.348,o),
(192.075,528.325,c),
(614.964,663.898,l),
(677.099,682.23,o),
(722.445,739.712,o),
(722.445,807.787,c),
(722.445,890.63,o),
(655.288,957.787,o),
(572.445,957.787,c),
(557.676,957.787,o),
(543.405,955.652,o),
(529.925,951.675,c)
);
},
{
closed = 1;
nodes = (
(509,1259,l),
(509,1341.843,o),
(441.843,1409,o),
(359,1409,c),
(276.157,1409,o),
(209,1341.843,o),
(209,1259,c),
(209,1101,l),
(209,1018.157,o),
(276.157,951,o),
(359,951,c),
(441.843,951,o),
(509,1018.157,o),
(509,1101,c)
);
}
);
width = 1324;
}
);
metricRight = L;
unicode = (321,322);
},
{
color = 4;
glyphname = M;
kernLeft = I;
kernRight = I;
lastChange = "2022-06-05 19:17:41 +0000";
layers = (
{
anchors = (
{
name = bottom;
pos = (745,0);
},
{
name = top;
pos = (745,1400);
}
);
layerId = m01;
shapes = (
{
closed = 1;
nodes = (
(85,25.5,l),
(85,11.693,o),
(96.193,0.5,o),
(110,0.5,c),
(123.807,0.5,o),
(135,11.693,o),
(135,25.5,c),
(135,1374.5,l),
(135,1388.307,o),
(123.807,1399.5,o),
(110,1399.5,c),
(96.193,1399.5,o),
(85,1388.307,o),
(85,1374.5,c)
);
},
{
closed = 1;
nodes = (
(129.63,1389.711,l),
(125.069,1394.567,o),
(118.591,1397.599,o),
(111.404,1397.599,c),
(97.596,1397.599,o),
(86.404,1386.407,o),
(86.404,1372.599,c),
(86.404,1365.978,o),
(88.978,1359.957,o),
(93.696,1354.935,c),
(726.777,680.885,l),
(731.337,676.031,o),
(737.815,673,o),
(745,673,c),
(758.807,673,o),
(770,684.193,o),
(770,698,c),
(770,704.622,o),
(767.426,710.642,o),
(763.223,715.115,c)
);
},
{
closed = 1;
nodes = (
(1355,25.5,l),
(1355,11.693,o),
(1366.193,0.5,o),
(1380,0.5,c),
(1393.807,0.5,o),
(1405,11.693,o),
(1405,25.5,c),
(1405,1374.5,l),
(1405,1388.307,o),
(1393.807,1399.5,o),
(1380,1399.5,c),
(1366.193,1399.5,o),
(1355,1388.307,o),
(1355,1374.5,c)
);
}
);
width = 1490;
},
{
anchors = (
{
name = bottom;
pos = (690,0);
},
{
name = top;
pos = (760,1400);
}
);
layerId = "19FA402B-9607-46D9-AAD6-815AECBA5B6B";
shapes = (
{
closed = 1;
nodes = (
(100,60,l),
(100,26.863,o),
(126.863,0,o),
(160,0,c),
(193.137,0,o),
(220,26.863,o),
(220,60,c),
(220,1340,l),
(220,1373.137,o),
(193.137,1400,o),
(160,1400,c),
(126.863,1400,o),
(100,1373.137,o),
(100,1340,c)
);
},
{
closed = 1;
nodes = (
(207.57,1376.681,l),
(196.627,1388.301,o),
(181.101,1395.556,o),
(163.88,1395.556,c),
(130.743,1395.556,o),
(103.88,1368.693,o),
(103.88,1335.556,c),
(103.88,1319.639,o),
(110.078,1305.17,o),
(120.191,1294.43,c),
(716.173,657.022,l),
(727.122,645.316,o),
(742.707,638,o),
(760,638,c),
(793.137,638,o),
(820,664.863,o),
(820,698,c),
(820,713.844,o),
(813.859,728.254,o),
(803.827,738.978,c)
);
},
{
closed = 1;
nodes = (
(1300,60,l),
(1300,26.863,o),
(1326.863,0,o),
(1360,0,c),
(1393.137,0,o),
(1420,26.863,o),
(1420,60,c),
(1420,1340,l),
(1420,1373.137,o),
(1393.137,1400,o),
(1360,1400,c),
(1326.863,1400,o),
(1300,1373.137,o),
(1300,1340,c)
);
}
);
width = 1520;
},
{
anchors = (
{
name = bottom;
pos = (770,0);
},
{
name = top;
pos = (770,1400);
}
);
layerId = "FF87E3F2-B049-41CB-BF2F-09DB15105515";
shapes = (
{
closed = 1;
nodes = (
(110,150,l),
(110,67.157,o),
(177.157,0,o),
(260,0,c),
(342.843,0,o),
(410,67.157,o),
(410,150,c),
(410,1250,l),
(410,1332.843,o),
(342.843,1400,o),
(260,1400,c),
(177.157,1400,o),
(110,1332.843,o),
(110,1250,c)
);
},
{
closed = 1;
nodes = (
(383.41,1338.798,l),
(356.019,1368.283,o),
(316.909,1386.73,o),
(273.49,1386.73,c),
(190.647,1386.73,o),
(123.49,1319.573,o),
(123.49,1236.73,c),
(123.49,1197.305,o),
(138.699,1161.433,o),
(163.571,1134.661,c),
(659.7,596.344,l),
(687.108,566.619,o),
(726.379,548,o),
(770,548,c),
(852.843,548,o),
(920,615.157,o),
(920,698,c),
(920,737.223,o),
(904.946,772.929,o),
(880.3,799.656,c)
);
},
{
closed = 1;
nodes = (
(1130,150,l),
(1130,67.157,o),
(1197.157,0,o),
(1280,0,c),
(1362.843,0,o),
(1430,67.157,o),
(1430,150,c),
(1430,1250,l),
(1430,1332.843,o),
(1362.843,1400,o),
(1280,1400,c),
(1197.157,1400,o),
(1130,1332.843,o),
(1130,1250,c)
);
}
);
width = 1540;
}
);
metricLeft = H;
metricRight = H;
unicode = (77,109);
},
{
color = 4;
glyphname = N;
kernLeft = I;
kernRight = I;
lastChange = "2022-06-05 19:17:41 +0000";
layers = (
{
anchors = (
{
name = bottom;
pos = (692,0);
},
{
name = top;
pos = (692,1400);
}
);
layerId = m01;
shapes = (
{
closed = 1;
nodes = (
(135,1374.5,l),
(135,1388.307,o),
(123.807,1399.5,o),
(110,1399.5,c),
(96.193,1399.5,o),
(85,1388.307,o),
(85,1374.5,c),
(85,25.5,l),
(85,11.693,o),
(96.193,0.5,o),
(110,0.5,c),
(123.807,0.5,o),
(135,11.693,o),
(135,25.5,c)
);
},
{
closed = 1;
nodes = (
(1251.985,11.02,l),
(1292.015,40.98,l),
(563.015,1014.981,l),
(558.456,1021.064,o),
(551.188,1025,o),
(543,1025,c),
(529.193,1025,o),
(518,1013.807,o),
(518,1000,c),
(518,994.38,o),
(519.854,989.194,o),
(522.985,985.019,c)
);
},
{
closed = 1;
nodes = (
(1298,1374.5,l),
(1298,1388.307,o),
(1286.807,1399.5,o),
(1273,1399.5,c),
(1259.193,1399.5,o),
(1248,1388.307,o),
(1248,1374.5,c),
(1248,25.5,l),
(1248,11.693,o),
(1259.193,0.5,o),
(1273,0.5,c),
(1286.807,0.5,o),
(1298,11.693,o),
(1298,25.5,c)
);
}
);
width = 1383;
},
{
anchors = (
{
name = bottom;
pos = (707,0);
},
{
name = top;
pos = (707,1400);
}
);
layerId = "19FA402B-9607-46D9-AAD6-815AECBA5B6B";
shapes = (
{
closed = 1;
nodes = (
(220,1340,l),
(220,1373.137,o),
(193.137,1400,o),
(160,1400,c),
(126.863,1400,o),
(100,1373.137,o),
(100,1340,c),
(100,60,l),
(100,26.863,o),
(126.863,0,o),
(160,0,c),
(193.137,0,o),
(220,26.863,o),
(220,60,c)
);
},
{
closed = 1;
nodes = (
(1206.749,21.337,l),
(1303.251,92.663,l),
(606.252,1035.665,l),
(595.324,1050.429,o),
(577.78,1060,o),
(558,1060,c),
(524.863,1060,o),
(498,1033.137,o),
(498,1000,c),
(498,986.642,o),
(502.365,974.304,o),
(509.748,964.335,c)
);
},
{
closed = 1;
nodes = (
(1313,1340,l),
(1313,1373.137,o),
(1286.137,1400,o),
(1253,1400,c),
(1219.863,1400,o),
(1193,1373.137,o),
(1193,1340,c),
(1193,60,l),
(1193,26.863,o),
(1219.863,0,o),
(1253,0,c),
(1286.137,0,o),
(1313,26.863,o),
(1313,60,c)
);
}
);
width = 1413;
},
{
anchors = (
{
name = bottom;
pos = (757,0);
},
{
name = top;
pos = (757,1400);
}
);
layerId = "FF87E3F2-B049-41CB-BF2F-09DB15105515";
shapes = (
{
closed = 1;
nodes = (
(410,1250,l),
(410,1332.843,o),
(342.843,1400,o),
(260,1400,c),
(177.157,1400,o),
(110,1332.843,o),
(110,1250,c),
(110,150,l),
(110,67.157,o),
(177.157,0,o),
(260,0,c),
(342.843,0,o),
(410,67.157,o),
(410,150,c)
);
},
{
closed = 1;
nodes = (
(1153.232,37.96,l),
(1376.768,238.04,l),
(813.768,867.041,l),
(786.304,897.705,o),
(746.406,917,o),
(702,917,c),
(619.157,917,o),
(552,849.843,o),
(552,767,c),
(552,728.562,o),
(566.457,693.501,o),
(590.232,666.959,c)
);
},
{
closed = 1;
nodes = (
(1403,1250,l),
(1403,1332.843,o),
(1335.843,1400,o),
(1253,1400,c),
(1170.157,1400,o),
(1103,1332.843,o),
(1103,1250,c),
(1103,150,l),
(1103,67.157,o),
(1170.157,0,o),
(1253,0,c),
(1335.843,0,o),
(1403,67.157,o),
(1403,150,c)
);
}
);
width = 1513;
}
);
metricLeft = H;
metricRight = H;
unicode = (78,110);
},
{
color = 4;
glyphname = O;
kernLeft = O;
kernRight = O;
lastChange = "2022-06-05 19:15:44 +0000";
layers = (
{
anchors = (
{
name = bottom;
pos = (764,0);
},
{
name = center;
pos = (764,700);
},
{
name = ogonek;
pos = (1375,10);
},
{
name = top;
pos = (764,1400);
},
{
name = topleft;
pos = (20,1400);
},
{
name = topright;
pos = (1223,1196);
}
);
layerId = m01;
shapes = (
{
closed = 1;
nodes = (
(283,1171,o),
(294,1182,o),
(294,1196,cs),
(294,1210,o),
(283,1221,o),
(269,1221,cs),
(255,1221,o),
(244,1210,o),
(244,1196,cs),
(244,1182,o),
(255,1171,o),
(269,1171,cs)
);
},
{
closed = 1;
nodes = (
(1123,1350,o),
(1414,1059,o),
(1414,700,c),
(1414,341,o),
(1123,50,o),
(764,50,c),
(405,50,o),
(114,341,o),
(114,700,c),
(114,713.807,o),
(102.807,725,o),
(89,725,c),
(75.193,725,o),
(64,713.807,o),
(64,700,c),
(64,313.489,o),
(377.489,0,o),
(764,0,c),
(1150.511,0,o),
(1464,313.489,o),
(1464,700,c),
(1464,1086.511,o),
(1150.511,1400,o),
(764,1400,c),
(750.193,1400,o),
(739,1388.807,o),
(739,1375,c),
(739,1361.193,o),
(750.193,1350,o),
(764,1350,c)
);
}
);
width = 1528;
},
{
anchors = (
{
name = bottom;
pos = (780,0);
},
{
name = center;
pos = (780,700);
},
{
name = ogonek;
pos = (780,0);
},
{
name = top;
pos = (780,1400);
},
{
name = topleft;
pos = (40,1400);
},
{
name = topright;
pos = (1228,1196);
}
);
layerId = "19FA402B-9607-46D9-AAD6-815AECBA5B6B";
shapes = (
{
closed = 1;
nodes = (
(318,1136,o),
(345,1163,o),
(345,1196,cs),
(345,1229,o),
(318,1256,o),
(285,1256,cs),
(252,1256,o),
(225,1229,o),
(225,1196,cs),
(225,1163,o),
(252,1136,o),
(285,1136,cs)
);
},
{
closed = 1;
nodes = (
(1101,1280,o),
(1360,1021,o),
(1360,700,c),
(1360,379,o),
(1101,120,o),
(780,120,c),
(459,120,o),
(200,379,o),
(200,700,c),
(200,733.137,o),
(173.137,760,o),
(140,760,c),
(106.863,760,o),
(80,733.137,o),
(80,700,c),
(80,312.894,o),
(392.894,0,o),
(780,0,c),
(1167.106,0,o),
(1480,312.894,o),
(1480,700,c),
(1480,1087.106,o),
(1167.106,1400,o),
(780,1400,c),
(746.863,1400,o),
(720,1373.137,o),
(720,1340,c),
(720,1306.863,o),
(746.863,1280,o),
(780,1280,c)
);
}
);
width = 1560;
},
{
anchors = (
{
name = bottom;
pos = (810,0);
},
{
name = center;
pos = (810,700);
},
{
name = ogonek;
pos = (1466,10);
},
{
name = top;
pos = (810,1400);
},
{
name = topleft;
pos = (10,1400);
},
{
name = topright;
pos = (1208,1166);
}
);
layerId = "FF87E3F2-B049-41CB-BF2F-09DB15105515";
shapes = (
{
closed = 1;
nodes = (
(458,979,o),
(525,1046,o),
(525,1129,cs),
(525,1212,o),
(458,1279,o),
(375,1279,cs),
(292,1279,o),
(225,1212,o),
(225,1129,cs),
(225,1046,o),
(292,979,o),
(375,979,cs)
);
},
{
closed = 1;
nodes = (
(1037,1110,o),
(1220,927,o),
(1220,700,c),
(1220,473,o),
(1037,290,o),
(810,290,c),
(583,290,o),
(400,473,o),
(400,700,c),
(400,782.843,o),
(332.843,850,o),
(250,850,c),
(167.157,850,o),
(100,782.843,o),
(100,700,c),
(100,307.4,o),
(417.4,-10,o),
(810,-10,c),
(1202.6,-10,o),
(1520,307.4,o),
(1520,700,c),
(1520,1092.6,o),
(1202.6,1410,o),
(810,1410,c),
(727.157,1410,o),
(660,1342.843,o),
(660,1260,c),
(660,1177.157,o),
(727.157,1110,o),
(810,1110,c)
);
}
);
width = 1620;
}
);
unicode = (79,111);
},
{
color = 5;
glyphname = Oslash;
kernLeft = O;
kernRight = O;
lastChange = "2022-06-02 05:39:42 +0000";
layers = (
{
layerId = m01;
shapes = (
{
closed = 1;
nodes = (
(127,0,o),
(133,3,o),
(138,7,c),
(1426,1357,ls),
(1430,1362,o),
(1432,1368,o),
(1432,1375,cs),
(1432,1389,o),
(1421,1400,o),
(1407,1400,cs),
(1401,1400,o),
(1395,1397,o),
(1390,1393,c),
(102,43,ls),
(98,38,o),
(96,32,o),
(96,25,cs),
(96,11,o),
(107,0,o),
(121,0,cs)
);
},
{
closed = 1;
nodes = (
(150,437,o),
(161,455,o),
(155,470,cs),
(128,543,o),
(113,621,o),
(113,700,cs),
(113,1049,o),
(397,1350,o),
(764,1350,cs),
(840,1350,o),
(917,1337,o),
(992,1308,cs),
(1007,1302,o),
(1026,1313,o),
(1026,1331,cs),
(1026,1342,o),
(1019,1351,o),
(1010,1355,cs),
(929,1385,o),
(845,1400,o),
(764,1400,cs),
(369,1400,o),
(63,1076,o),
(63,700,cs),
(63,616,o),
(79,531,o),
(108,453,cs),
(112,443,o),
(121,437,o),
(132,437,cs)
);
},
{
closed = 1;
nodes = (
(1159,0,o),
(1465,324,o),
(1465,700,cs),
(1465,784,o),
(1449,869,o),
(1420,947,cs),
(1416,957,o),
(1407,963,o),
(1396,963,cs),
(1378,963,o),
(1367,945,o),
(1373,930,cs),
(1400,857,o),
(1415,779,o),
(1415,700,cs),
(1415,351,o),
(1131,50,o),
(764,50,cs),
(688,50,o),
(611,63,o),
(536,92,cs),
(521,98,o),
(502,87,o),
(502,69,cs),
(502,58,o),
(509,49,o),
(518,45,cs),
(599,15,o),
(683,0,o),
(764,0,cs)
);
}
);
width = 1528;
},
{
layerId = "19FA402B-9607-46D9-AAD6-815AECBA5B6B";
shapes = (
{
closed = 1;
nodes = (
(138,0,o),
(153,7,o),
(163,18,cs),
(1443,1297,ls),
(1454,1308,o),
(1461,1323,o),
(1461,1340,cs),
(1461,1373,o),
(1434,1400,o),
(1401,1400,cs),
(1384,1400,o),
(1369,1393,o),
(1358,1382,cs),
(79,102,ls),
(68,92,o),
(61,77,o),
(61,60,cs),
(61,27,o),
(88,0,o),
(121,0,cs)
);
},
{
closed = 1;
nodes = (
(190,446,o),
(219,485,o),
(206,524,cs),
(188,581,o),
(178,641,o),
(178,701,cs),
(178,1008,o),
(428,1280,o),
(759,1280,cs),
(818,1280,o),
(878,1271,o),
(936,1253,cs),
(974,1241,o),
(1014,1270,o),
(1014,1310,cs),
(1014,1337,o),
(996,1359,o),
(972,1367,cs),
(902,1389,o),
(830,1400,o),
(759,1400,cs),
(359,1400,o),
(58,1071,o),
(58,701,cs),
(58,628,o),
(70,556,o),
(92,487,cs),
(100,463,o),
(122,446,o),
(149,446,cs)
);
},
{
closed = 1;
nodes = (
(1162,0,o),
(1463,329,o),
(1463,699,cs),
(1463,772,o),
(1451,844,o),
(1429,913,cs),
(1421,937,o),
(1399,954,o),
(1372,954,cs),
(1331,954,o),
(1302,915,o),
(1315,876,cs),
(1333,819,o),
(1343,759,o),
(1343,699,cs),
(1343,392,o),
(1093,120,o),
(762,120,cs),
(703,120,o),
(643,129,o),
(585,147,cs),
(547,159,o),
(507,130,o),
(507,90,cs),
(507,63,o),
(525,41,o),
(549,33,cs),
(619,11,o),
(691,0,o),
(762,0,cs)
);
}
);
width = 1521;
},
{
layerId = "FF87E3F2-B049-41CB-BF2F-09DB15105515";
shapes = (
{
closed = 1;
nodes = (
(300,0,o),
(335,16,o),
(360,41,cs),
(1479,1161,ls),
(1504,1186,o),
(1520,1221,o),
(1520,1260,cs),
(1520,1337,o),
(1457,1400,o),
(1380,1400,cs),
(1342,1400,o),
(1307,1384,o),
(1282,1360,cs),
(162,239,ls),
(137,214,o),
(121,179,o),
(121,140,cs),
(121,63,o),
(184,0,o),
(261,0,cs)
);
},
{
closed = 1;
nodes = (
(371,468,o),
(438,552,o),
(425,640,cs),
(422,659,o),
(421,679,o),
(421,699,cs),
(421,914,o),
(595,1099,o),
(821,1099,cs),
(841,1099,o),
(861,1098,o),
(881,1095,cs),
(969,1082,o),
(1052,1149,o),
(1052,1243,cs),
(1052,1319,o),
(997,1381,o),
(924,1392,cs),
(890,1397,o),
(855,1399,o),
(821,1399,cs),
(427,1399,o),
(121,1077,o),
(121,699,cs),
(121,665,o),
(124,630,o),
(128,596,cs),
(139,524,o),
(201,468,o),
(277,468,cs)
);
},
{
closed = 1;
nodes = (
(1215,1,o),
(1521,323,o),
(1521,701,cs),
(1521,735,o),
(1518,770,o),
(1514,804,cs),
(1503,876,o),
(1441,932,o),
(1365,932,cs),
(1271,932,o),
(1204,848,o),
(1217,760,cs),
(1220,741,o),
(1221,721,o),
(1221,701,cs),
(1221,486,o),
(1047,301,o),
(821,301,cs),
(801,301,o),
(781,302,o),
(761,305,cs),
(673,318,o),
(590,251,o),
(590,157,cs),
(590,81,o),
(645,19,o),
(718,8,cs),
(752,3,o),
(787,1,o),
(821,1,cs)
);
}
);
width = 1642;
}
);
unicode = (216,248);
},
{
color = 5;
glyphname = OE;
kernLeft = O;
kernRight = E;
lastChange = "2022-06-05 19:17:49 +0000";
layers = (
{
layerId = m01;
shapes = (
{
closed = 1;
nodes = (
(970,50,l),
(956.193,50,o),
(945,38.807,o),
(945,25,c),
(945,11.193,o),
(956.193,0,o),
(970,0,c),
(1642.5,0,l),
(1656.307,0,o),
(1667.5,11.193,o),
(1667.5,25,c),
(1667.5,38.807,o),
(1656.307,50,o),
(1642.5,50,c)
);
},
{
closed = 1;
nodes = (
(995,735.5,l),
(995,749.307,o),
(983.807,760.5,o),
(970,760.5,c),
(956.193,760.5,o),
(945,749.307,o),
(945,735.5,c),
(945,28,l),
(995,28,l)
);
},
{
closed = 1;
nodes = (
(405,50,o),
(114,341,o),
(114,700,c),
(114,1059,o),
(405,1350,o),
(764,1350,c),
(1642.5,1350,l),
(1656.307,1350,o),
(1667.5,1361.193,o),
(1667.5,1375,c),
(1667.5,1388.807,o),
(1656.307,1400,o),
(1642.5,1400,c),
(764,1400,l),
(377.489,1400,o),
(64,1086.511,o),
(64,700,c),
(64,313.489,o),
(377.489,0,o),
(764,0,c),
(777.807,0,o),
(789,11.193,o),
(789,25,c),
(789,38.807,o),
(777.807,50,o),
(764,50,c)
);
},
{
closed = 1;
nodes = (
(1642.5,675,l),
(1656.307,675,o),
(1667.5,686.193,o),
(1667.5,700,c),
(1667.5,713.807,o),
(1656.307,725,o),
(1642.5,725,c),
(1265.5,725,l),
(1251.693,725,o),
(1240.5,713.807,o),
(1240.5,700,c),
(1240.5,686.193,o),
(1251.693,675,o),
(1265.5,675,c)
);
}
);
width = 1738;
},
{
layerId = "19FA402B-9607-46D9-AAD6-815AECBA5B6B";
shapes = (
{
closed = 1;
nodes = (
(1036,120,l),
(1002.863,120,o),
(976,93.137,o),
(976,60,c),
(976,26.863,o),
(1002.863,0,o),
(1036,0,c),
(1679,0,l),
(1712.137,0,o),
(1739,26.863,o),
(1739,60,c),
(1739,93.137,o),
(1712.137,120,o),
(1679,120,c)
);
},
{
closed = 1;
nodes = (
(1096,706,l),
(1096,739.137,o),
(1069.137,766,o),
(1036,766,c),
(1002.863,766,o),
(976,739.137,o),
(976,706,c),
(976,60,l),
(1096,60,l)
);
},
{
closed = 1;
nodes = (
(459,120,o),
(200,379,o),
(200,700,c),
(200,1021,o),
(459,1280,o),
(780,1280,c),
(1679,1280,l),
(1712.137,1280,o),
(1739,1306.863,o),
(1739,1340,c),
(1739,1373.137,o),
(1712.137,1400,o),
(1679,1400,c),
(780,1400,l),
(392.894,1400,o),
(80,1087.106,o),
(80,700,c),
(80,312.894,o),
(392.894,0,o),
(780,0,c),
(813.137,0,o),
(840,26.863,o),
(840,60,c),
(840,93.137,o),
(813.137,120,o),
(780,120,c)
);
},
{
closed = 1;
nodes = (
(1678,640,l),
(1711.137,640,o),
(1738,666.863,o),
(1738,700,c),
(1738,733.137,o),
(1711.137,760,o),
(1678,760,c),
(1363,760,l),
(1329.863,760,o),
(1303,733.137,o),
(1303,700,c),
(1303,666.863,o),
(1329.863,640,o),
(1363,640,c)
);
}
);
width = 1819;
},
{
layerId = "FF87E3F2-B049-41CB-BF2F-09DB15105515";
shapes = (
{
closed = 1;
nodes = (
(1209,300,l),
(1126.157,300,o),
(1059,232.843,o),
(1059,150,c),
(1059,67.157,o),
(1126.157,0,o),
(1209,0,c),
(1892,0,l),
(1974.843,0,o),
(2042,67.157,o),
(2042,150,c),
(2042,232.843,o),
(1974.843,300,o),
(1892,300,c)
);
},
{
closed = 1;
nodes = (
(1359,705,l),
(1359,787.843,o),
(1291.843,855,o),
(1209,855,c),
(1126.157,855,o),
(1059,787.843,o),
(1059,705,c),
(1059,140,l),
(1359,140,l)
);
},
{
closed = 1;
nodes = (
(578,301,o),
(400,479,o),
(400,700,c),
(400,921,o),
(578,1099,o),
(799,1099,c),
(1892,1099,l),
(1974.843,1099,o),
(2042,1166.157,o),
(2042,1249,c),
(2042,1331.843,o),
(1974.843,1399,o),
(1892,1399,c),
(799,1399,l),
(412.4,1399,o),
(100,1086.6,o),
(100,700,c),
(100,313.4,o),
(412.4,1,o),
(799,1,c),
(881.843,1,o),
(949,68.157,o),
(949,151,c),
(949,233.843,o),
(881.843,301,o),
(799,301,c)
);
},
{
closed = 1;
nodes = (
(1892,550,l),
(1974.843,550,o),
(2042,617.157,o),
(2042,700,c),
(2042,782.843,o),
(1974.843,850,o),
(1892,850,c),
(1627,850,l),
(1544.157,850,o),
(1477,782.843,o),
(1477,700,c),
(1477,617.157,o),
(1544.157,550,o),
(1627,550,c)
);
}
);
width = 2144;
}
);
metricLeft = O;
metricRight = E;
unicode = (338,339);
},
{
color = 4;
glyphname = P;
kernLeft = P;
kernRight = P;
lastChange = "2022-06-05 19:17:41 +0000";
layers = (
{
anchors = (
{
name = bottom;
pos = (575,0);
},
{
name = top;
pos = (575,1400);
}
);
layerId = m01;
shapes = (
{
closed = 1;
nodes = (
(136,661,l),
(136,674.807,o),
(124.807,686,o),
(111,686,c),
(97.193,686,o),
(86,674.807,o),
(86,661,c),
(86,25.5,l),
(86,11.693,o),
(97.193,0.5,o),
(111,0.5,c),
(124.807,0.5,o),
(136,11.693,o),
(136,25.5,c)
);
},
{
closed = 1;
nodes = (
(727,636,l),
(937.511,636,o),
(1109,807.489,o),
(1109,1019,c),
(1109,1229.609,o),
(937.412,1400,o),
(727,1400,c),
(110,1400,l),
(96.193,1400,o),
(85,1388.807,o),
(85,1375,c),
(85,1361.193,o),
(96.193,1350,o),
(110,1350,c),
(727,1350,l),
(910,1350,o),
(1059,1202,o),
(1059,1019,c),
(1059,835,o),
(910,686,o),
(727,686,c),
(552,686,l),
(538.193,686,o),
(527,674.807,o),
(527,661,c),
(527,647.193,o),
(538.193,636,o),
(552,636,c)
);
}
);
width = 1175;
},
{
anchors = (
{
name = bottom;
pos = (576,0);
},
{
name = top;
pos = (576,1400);
}
);
layerId = "19FA402B-9607-46D9-AAD6-815AECBA5B6B";
shapes = (
{
closed = 1;
nodes = (
(220,661,l),
(220,694.137,o),
(193.137,721,o),
(160,721,c),
(126.863,721,o),
(100,694.137,o),
(100,661,c),
(100,60,l),
(100,26.863,o),
(126.863,0,o),
(160,0,c),
(193.137,0,o),
(220,26.863,o),
(220,60,c)
);
},
{
closed = 1;
nodes = (
(704,605,l),
(923.106,605,o),
(1101,782.894,o),
(1101,1003,c),
(1101,1222.106,o),
(923.106,1400,o),
(704,1400,c),
(160,1400,l),
(126.863,1400,o),
(100,1373.137,o),
(100,1340,c),
(100,1306.863,o),
(126.863,1280,o),
(160,1280,c),
(704,1280,l),
(857,1280,o),
(981,1156,o),
(981,1003,c),
(981,849,o),
(857,725,o),
(704,725,c),
(558,725,l),
(524.863,725,o),
(498,698.137,o),
(498,665,c),
(498,631.863,o),
(524.863,605,o),
(558,605,c)
);
}
);
width = 1176;
},
{
anchors = (
{
name = bottom;
pos = (672,0);
},
{
name = top;
pos = (672,1400);
}
);
layerId = "FF87E3F2-B049-41CB-BF2F-09DB15105515";
shapes = (
{
closed = 1;
nodes = (
(410,661,l),
(410,743.843,o),
(342.843,811,o),
(260,811,c),
(177.157,811,o),
(110,743.843,o),
(110,661,c),
(110,150,l),
(110,67.157,o),
(177.157,0,o),
(260,0,c),
(342.843,0,o),
(410,67.157,o),
(410,150,c)
);
},
{
closed = 1;
nodes = (
(771,422,l),
(1041.6,422,o),
(1260,640.4,o),
(1260,911,c),
(1260,1180.6,o),
(1041.6,1400,o),
(771,1400,c),
(260,1400,l),
(177.157,1400,o),
(110,1332.843,o),
(110,1250,c),
(110,1167.157,o),
(177.157,1100,o),
(260,1100,c),
(771,1100,l),
(876,1100,o),
(960,1015,o),
(960,911,c),
(960,806,o),
(876,722,o),
(771,722,c),
(672,722,l),
(589.157,722,o),
(522,654.843,o),
(522,572,c),
(522,489.157,o),
(589.157,422,o),
(672,422,c)
);
}
);
width = 1364;
}
);
metricLeft = H;
unicode = (80,112);
},
{
color = 5;
glyphname = Thorn;
kernLeft = I;
kernRight = THORN;
lastChange = "2022-06-05 19:17:50 +0000";
layers = (
{
layerId = m01;
shapes = (
{
closed = 1;
nodes = (
(135,345,l),
(135,358.807,o),
(123.807,370,o),
(110,370,c),
(96.193,370,o),
(85,358.807,o),
(85,345,c),
(85,28.5,l),
(85,14.693,o),
(96.193,3.5,o),
(110,3.5,c),
(123.807,3.5,o),
(135,14.693,o),
(135,28.5,c)
);
},
{
closed = 1;
nodes = (
(85,687,l),
(85,673.193,o),
(96.193,662,o),
(110,662,c),
(123.807,662,o),
(135,673.193,o),
(135,687,c),
(135,1371.5,l),
(135,1385.307,o),
(123.807,1396.5,o),
(110,1396.5,c),
(96.193,1396.5,o),
(85,1385.307,o),
(85,1371.5,c)
);
},
{
closed = 1;
nodes = (
(593,320,l),
(803.412,320,o),
(975,490.391,o),
(975,701,c),
(975,912.511,o),
(803.511,1084,o),
(593,1084,c),
(378,1084,l),
(364.193,1084,o),
(353,1072.807,o),
(353,1059,c),
(353,1045.193,o),
(364.193,1034,o),
(378,1034,c),
(593,1034,l),
(776,1034,o),
(925,885,o),
(925,701,c),
(925,518,o),
(776,370,o),
(593,370,c),
(110,370,l),
(96.193,370,o),
(85,358.807,o),
(85,345,c),
(85,331.193,o),
(96.193,320,o),
(110,320,c)
);
}
);
width = 1041;
},
{
layerId = "19FA402B-9607-46D9-AAD6-815AECBA5B6B";
shapes = (
{
closed = 1;
nodes = (
(220,363,l),
(220,396.137,o),
(193.137,423,o),
(160,423,c),
(126.863,423,o),
(100,396.137,o),
(100,363,c),
(100,60,l),
(100,26.863,o),
(126.863,0,o),
(160,0,c),
(193.137,0,o),
(220,26.863,o),
(220,60,c)
);
},
{
closed = 1;
nodes = (
(100,717,l),
(100,683.863,o),
(126.863,657,o),
(160,657,c),
(193.137,657,o),
(220,683.863,o),
(220,717,c),
(220,1340,l),
(220,1373.137,o),
(193.137,1400,o),
(160,1400,c),
(126.863,1400,o),
(100,1373.137,o),
(100,1340,c)
);
},
{
closed = 1;
nodes = (
(658,303,l),
(877.106,303,o),
(1055,480.894,o),
(1055,701,c),
(1055,920.106,o),
(877.106,1098,o),
(658,1098,c),
(500,1098,l),
(466.863,1098,o),
(440,1071.137,o),
(440,1038,c),
(440,1004.863,o),
(466.863,978,o),
(500,978,c),
(658,978,l),
(811,978,o),
(935,854,o),
(935,701,c),
(935,547,o),
(811,423,o),
(658,423,c),
(160,423,l),
(126.863,423,o),
(100,396.137,o),
(100,363,c),
(100,329.863,o),
(126.863,303,o),
(160,303,c)
);
}
);
width = 1130;
},
{
layerId = "FF87E3F2-B049-41CB-BF2F-09DB15105515";
shapes = (
{
closed = 1;
nodes = (
(410,362,l),
(410,444.843,o),
(342.843,512,o),
(260,512,c),
(177.157,512,o),
(110,444.843,o),
(110,362,c),
(110,141,l),
(110,58.157,o),
(177.157,-9,o),
(260,-9,c),
(342.843,-9,o),
(410,58.157,o),
(410,141,c)
);
},
{
closed = 1;
nodes = (
(110,797,l),
(110,714.157,o),
(177.157,647,o),
(260,647,c),
(342.843,647,o),
(410,714.157,o),
(410,797,c),
(410,1259,l),
(410,1341.843,o),
(342.843,1409,o),
(260,1409,c),
(177.157,1409,o),
(110,1341.843,o),
(110,1259,c)
);
},
{
closed = 1;
nodes = (
(746,212,l),
(1016.6,212,o),
(1235,431.4,o),
(1235,701,c),
(1235,971.6,o),
(1016.6,1190,o),
(746,1190,c),
(677,1190,l),
(594.157,1190,o),
(527,1122.843,o),
(527,1040,c),
(527,957.157,o),
(594.157,890,o),
(677,890,c),
(746,890,l),
(851,890,o),
(935,806,o),
(935,701,c),
(935,597,o),
(851,512,o),
(746,512,c),
(260,512,l),
(177.157,512,o),
(110,444.843,o),
(110,362,c),
(110,279.157,o),
(177.157,212,o),
(260,212,c)
);
}
);
width = 1339;
}
);
metricLeft = H;
metricRight = P;
unicode = (222,254);
},
{
color = 4;
glyphname = Q;
kernLeft = O;
kernRight = O;
lastChange = "2022-06-05 19:17:41 +0000";
layers = (
{
anchors = (
{
name = bottom;
pos = (764,0);
},
{
name = top;
pos = (764,1400);
}
);
layerId = m01;
shapes = (
{
closed = 1;
nodes = (
(982.588,515.768,l),
(978.064,520.292,o),
(971.814,523.09,o),
(964.91,523.09,c),
(951.103,523.09,o),
(939.91,511.897,o),
(939.91,498.09,c),
(939.91,491.186,o),
(942.708,484.936,o),
(947.232,480.412,c),
(1420.322,7.322,l),
(1424.846,2.798,o),
(1431.096,0,o),
(1438,0,c),
(1451.807,0,o),
(1463,11.193,o),
(1463,25,c),
(1463,31.904,o),
(1460.202,38.154,o),
(1455.678,42.678,c)
);
},
{
closed = 1;
nodes = (
(405,50,o),
(114,341,o),
(114,700,c),
(114,1059,o),
(405,1350,o),
(764,1350,c),
(1123,1350,o),
(1414,1059,o),
(1414,700,c),
(1414,686.193,o),
(1425.193,675,o),
(1439,675,c),
(1452.807,675,o),
(1464,686.193,o),
(1464,700,c),
(1464,1086.511,o),
(1150.511,1400,o),
(764,1400,c),
(377.489,1400,o),
(64,1086.511,o),
(64,700,c),
(64,313.489,o),
(377.489,0,o),
(764,0,c),
(777.807,0,o),
(789,11.193,o),
(789,25,c),
(789,38.807,o),
(777.807,50,o),
(764,50,c)
);
}
);
width = 1528;
},
{
anchors = (
{
name = bottom;
pos = (780,0);
},
{
name = top;
pos = (780,1400);
}
);
layerId = "19FA402B-9607-46D9-AAD6-815AECBA5B6B";
shapes = (
{
closed = 1;
nodes = (
(1045.61,518.243,l),
(1034.752,529.101,o),
(1019.752,535.816,o),
(1003.184,535.816,c),
(970.046,535.816,o),
(943.184,508.954,o),
(943.184,475.816,c),
(943.184,459.248,o),
(949.899,444.248,o),
(960.757,433.39,c),
(1376.574,17.574,l),
(1387.431,6.716,o),
(1402.431,0,o),
(1419,0,c),
(1452.137,0,o),
(1479,26.863,o),
(1479,60,c),
(1479,76.569,o),
(1472.284,91.569,o),
(1461.426,102.426,c)
);
},
{
closed = 1;
nodes = (
(459,120,o),
(200,379,o),
(200,700,c),
(200,1021,o),
(459,1280,o),
(780,1280,c),
(1101,1280,o),
(1360,1021,o),
(1360,700,c),
(1360,666.863,o),
(1386.863,640,o),
(1420,640,c),
(1453.137,640,o),
(1480,666.863,o),
(1480,700,c),
(1480,1087.106,o),
(1167.106,1400,o),
(780,1400,c),
(392.894,1400,o),
(80,1087.106,o),
(80,700,c),
(80,312.894,o),
(392.894,0,o),
(780,0,c),
(813.137,0,o),
(840,26.863,o),
(840,60,c),
(840,93.137,o),
(813.137,120,o),
(780,120,c)
);
}
);
width = 1560;
},
{
anchors = (
{
name = bottom;
pos = (809,0);
},
{
name = top;
pos = (809,1400);
}
);
layerId = "FF87E3F2-B049-41CB-BF2F-09DB15105515";
shapes = (
{
closed = 1;
nodes = (
(1164.777,554.355,l),
(1137.613,581.647,o),
(1100.009,598.541,o),
(1058.459,598.541,c),
(975.616,598.541,o),
(908.459,531.384,o),
(908.459,448.541,c),
(908.459,407.247,o),
(925.145,369.851,o),
(952.141,342.727,c),
(1249.934,44.934,l),
(1277.078,17.789,o),
(1314.578,1,o),
(1356,1,c),
(1438.843,1,o),
(1506,68.157,o),
(1506,151,c),
(1506,192.422,o),
(1489.211,229.922,o),
(1462.066,257.066,c)
);
},
{
closed = 1;
nodes = (
(583,291,o),
(400,474,o),
(400,700,c),
(400,926,o),
(583,1109,o),
(809,1109,c),
(1035,1109,o),
(1218,926,o),
(1218,700,c),
(1218,617.157,o),
(1285.157,550,o),
(1368,550,c),
(1450.843,550,o),
(1518,617.157,o),
(1518,700,c),
(1518,1091.6,o),
(1200.6,1409,o),
(809,1409,c),
(417.4,1409,o),
(100,1091.6,o),
(100,700,c),
(100,308.4,o),
(417.4,-9,o),
(809,-9,c),
(891.843,-9,o),
(959,58.157,o),
(959,141,c),
(959,223.843,o),
(891.843,291,o),
(809,291,c)
);
}
);
width = 1618;
}
);
metricLeft = O;
metricRight = O;
unicode = (81,113);
},
{
color = 4;
glyphname = R;
kernLeft = P;
kernRight = R;
lastChange = "2022-06-05 19:17:41 +0000";
layers = (
{
anchors = (
{
name = bottom;
pos = (543,0);
},
{
name = top;
pos = (543,1400);
}
);
layerId = m01;
shapes = (
{
closed = 1;
nodes = (
(137,700,l),
(137,713.807,o),
(125.807,725,o),
(112,725,c),
(98.193,725,o),
(87,713.807,o),
(87,700,c),
(87,25.5,l),
(87,11.693,o),
(98.193,0.5,o),
(112,0.5,c),
(125.807,0.5,o),
(137,11.693,o),
(137,25.5,c)
);
},
{
closed = 1;
nodes = (
(561.905,676.127,l),
(557.339,682.127,o),
(550.122,686,o),
(542,686,c),
(528.193,686,o),
(517,674.807,o),
(517,661,c),
(517,655.315,o),
(518.898,650.073,o),
(522.095,645.873,c),
(1005.631,9.592,l),
(1010.204,3.703,o),
(1017.353,-0.086,o),
(1025.386,-0.086,c),
(1039.194,-0.086,o),
(1050.386,11.107,o),
(1050.386,24.914,c),
(1050.386,30.688,o),
(1048.429,36.004,o),
(1045.142,40.236,c)
);
},
{
closed = 1;
nodes = (
(628,636,l),
(838.511,636,o),
(1010,807.489,o),
(1010,1019,c),
(1010,1229.609,o),
(838.412,1400,o),
(628,1400,c),
(110,1400,l),
(96.193,1400,o),
(85,1388.807,o),
(85,1375,c),
(85,1361.193,o),
(96.193,1350,o),
(110,1350,c),
(628,1350,l),
(811,1350,o),
(960,1202,o),
(960,1019,c),
(960,835,o),
(811,686,o),
(628,686,c),
(542,686,l),
(528.193,686,o),
(517,674.807,o),
(517,661,c),
(517,647.193,o),
(528.193,636,o),
(542,636,c)
);
}
);
width = 1110;
},
{
anchors = (
{
name = bottom;
pos = (579,0);
},
{
name = top;
pos = (579,1400);
}
);
layerId = "19FA402B-9607-46D9-AAD6-815AECBA5B6B";
shapes = (
{
closed = 1;
nodes = (
(236,661,l),
(236,694.137,o),
(209.137,721,o),
(176,721,c),
(142.863,721,o),
(116,694.137,o),
(116,661,c),
(116,60,l),
(116,26.863,o),
(142.863,0,o),
(176,0,c),
(209.137,0,o),
(236,26.863,o),
(236,60,c)
);
},
{
closed = 1;
nodes = (
(618.832,700.225,l),
(607.877,714.671,o),
(590.528,724,o),
(571,724,c),
(537.863,724,o),
(511,697.137,o),
(511,664,c),
(511,650.391,o),
(515.531,637.84,o),
(523.168,627.775,c),
(980.923,23.353,l),
(991.898,9.175,o),
(1009.082,0.048,o),
(1028.398,0.048,c),
(1061.535,0.048,o),
(1088.398,26.91,o),
(1088.398,60.048,c),
(1088.398,73.869,o),
(1083.725,86.598,o),
(1075.873,96.742,c)
);
},
{
closed = 1;
nodes = (
(654,605,l),
(873.106,605,o),
(1051,782.894,o),
(1051,1003,c),
(1051,1222.106,o),
(873.106,1400,o),
(654,1400,c),
(160,1400,l),
(126.863,1400,o),
(100,1373.137,o),
(100,1340,c),
(100,1306.863,o),
(126.863,1280,o),
(160,1280,c),
(654,1280,l),
(807,1280,o),
(931,1156,o),
(931,1003,c),
(931,849,o),
(807,725,o),
(654,725,c),
(571,725,l),
(537.863,725,o),
(511,698.137,o),
(511,665,c),
(511,631.863,o),
(537.863,605,o),
(571,605,c)
);
}
);
width = 1158;
},
{
anchors = (
{
name = bottom;
pos = (665,0);
},
{
name = top;
pos = (665,1400);
}
);
layerId = "FF87E3F2-B049-41CB-BF2F-09DB15105515";
shapes = (
{
closed = 1;
nodes = (
(410,661,l),
(410,743.843,o),
(342.843,811,o),
(260,811,c),
(177.157,811,o),
(110,743.843,o),
(110,661,c),
(110,150,l),
(110,67.157,o),
(177.157,0,o),
(260,0,c),
(342.843,0,o),
(410,67.157,o),
(410,150,c)
);
},
{
closed = 1;
nodes = (
(775.449,680.621,l),
(748.536,706.26,o),
(712.106,722,o),
(672,722,c),
(589.157,722,o),
(522,654.843,o),
(522,572,c),
(522,529.263,o),
(539.873,490.7,o),
(568.551,463.379,c),
(1016.494,36.767,l),
(1043.436,10.96,o),
(1079.987,-4.897,o),
(1120.241,-4.897,c),
(1203.085,-4.897,o),
(1270.241,62.26,o),
(1270.241,145.103,c),
(1270.241,187.693,o),
(1252.493,226.136,o),
(1223.988,253.44,c)
);
},
{
closed = 1;
nodes = (
(771,422,l),
(1041.6,422,o),
(1260,640.4,o),
(1260,911,c),
(1260,1180.6,o),
(1041.6,1400,o),
(771,1400,c),
(260,1400,l),
(177.157,1400,o),
(110,1332.843,o),
(110,1250,c),
(110,1167.157,o),
(177.157,1100,o),
(260,1100,c),
(771,1100,l),
(876,1100,o),
(960,1015,o),
(960,911,c),
(960,806,o),
(876,722,o),
(771,722,c),
(672,722,l),
(589.157,722,o),
(522,654.843,o),
(522,572,c),
(522,489.157,o),
(589.157,422,o),
(672,422,c)
);
}
);
width = 1355;
}
);
metricLeft = H;
metricRight = K;
unicode = (82,114);
},
{
color = 4;
glyphname = S;
kernLeft = S;
kernRight = S;
lastChange = "2022-06-05 19:17:30 +0000";
layers = (
{
anchors = (
{
name = bottom;
pos = (544,0);
},
{
name = top;
pos = (544,1400);
}
);
layerId = m01;
shapes = (
{
closed = 1;
nodes = (
(966,164,o),
(852,50,o),
(711,50,c),
(94.5,50,l),
(80.693,50,o),
(69.5,38.807,o),
(69.5,25,c),
(69.5,11.193,o),
(80.693,0,o),
(94.5,0,c),
(711,0,l),
(879.511,0,o),
(1016,136.489,o),
(1016,305,c),
(1016,318.807,o),
(1004.807,330,o),
(991,330,c),
(977.193,330,o),
(966,318.807,o),
(966,305,c)
);
},
{
closed = 1;
nodes = (
(435,725,l),
(421.193,725,o),
(410,713.807,o),
(410,700,c),
(410,686.193,o),
(421.193,675,o),
(435,675,c),
(652,675,l),
(665.807,675,o),
(677,686.193,o),
(677,700,c),
(677,713.807,o),
(665.807,725,o),
(652,725,c)
);
},
{
closed = 1;
nodes = (
(121,1236,o),
(235,1350,o),
(376,1350,c),
(992.5,1350,l),
(1006.307,1350,o),
(1017.5,1361.193,o),
(1017.5,1375,c),
(1017.5,1388.807,o),
(1006.307,1400,o),
(992.5,1400,c),
(376,1400,l),
(207.489,1400,o),
(71,1263.511,o),
(71,1095,c),
(71,1081.193,o),
(82.193,1070,o),
(96,1070,c),
(109.807,1070,o),
(121,1081.193,o),
(121,1095,c)
);
}
);
width = 1088;
},
{
anchors = (
{
name = bottom;
pos = (523,0);
},
{
name = top;
pos = (583,1400);
}
);
layerId = "19FA402B-9607-46D9-AAD6-815AECBA5B6B";
shapes = (
{
closed = 1;
nodes = (
(960,222,o),
(858,120,o),
(732,120,c),
(140,120,l),
(106.863,120,o),
(80,93.137,o),
(80,60,c),
(80,26.863,o),
(106.863,0,o),
(140,0,c),
(732,0,l),
(924.106,0,o),
(1080,155.894,o),
(1080,348,c),
(1080,381.137,o),
(1053.137,408,o),
(1020,408,c),
(986.863,408,o),
(960,381.137,o),
(960,348,c)
);
},
{
closed = 1;
nodes = (
(475,760,l),
(441.863,760,o),
(415,733.137,o),
(415,700,c),
(415,666.863,o),
(441.863,640,o),
(475,640,c),
(692,640,l),
(725.137,640,o),
(752,666.863,o),
(752,700,c),
(752,733.137,o),
(725.137,760,o),
(692,760,c)
);
},
{
closed = 1;
nodes = (
(206,1178,o),
(308,1280,o),
(434,1280,c),
(1026,1280,l),
(1059.137,1280,o),
(1086,1306.863,o),
(1086,1340,c),
(1086,1373.137,o),
(1059.137,1400,o),
(1026,1400,c),
(434,1400,l),
(241.894,1400,o),
(86,1244.106,o),
(86,1052,c),
(86,1018.863,o),
(112.863,992,o),
(146,992,c),
(179.137,992,o),
(206,1018.863,o),
(206,1052,c)
);
}
);
width = 1166;
},
{
anchors = (
{
name = bottom;
pos = (645,0);
},
{
name = top;
pos = (645,1400);
}
);
layerId = "FF87E3F2-B049-41CB-BF2F-09DB15105515";
shapes = (
{
closed = 1;
nodes = (
(901,379,o),
(822,300,o),
(724,300,c),
(283,300,l),
(200.157,300,o),
(133,232.843,o),
(133,150,c),
(133,67.157,o),
(200.157,0,o),
(283,0,c),
(724,0,l),
(987.6,0,o),
(1201,213.4,o),
(1201,476,c),
(1201,558.843,o),
(1133.843,626,o),
(1051,626,c),
(968.157,626,o),
(901,558.843,o),
(901,476,c)
);
},
{
closed = 1;
nodes = (
(590,850,l),
(507.157,850,o),
(440,782.843,o),
(440,700,c),
(440,617.157,o),
(507.157,550,o),
(590,550,c),
(699,550,l),
(781.843,550,o),
(849,617.157,o),
(849,700,c),
(849,782.843,o),
(781.843,850,o),
(699,850,c)
);
},
{
closed = 1;
nodes = (
(388,1021,o),
(467,1100,o),
(565,1100,c),
(1006,1100,l),
(1088.843,1100,o),
(1156,1167.157,o),
(1156,1250,c),
(1156,1332.843,o),
(1088.843,1400,o),
(1006,1400,c),
(565,1400,l),
(301.4,1400,o),
(88,1186.6,o),
(88,924,c),
(88,841.157,o),
(155.157,774,o),
(238,774,c),
(320.843,774,o),
(388,841.157,o),
(388,924,c)
);
}
);
width = 1289;
}
);
unicode = (83,115);
},
{
color = 5;
glyphname = Saltillo;
kernLeft = I;
kernRight = I;
lastChange = "2022-06-03 00:03:28 +0000";
layers = (
{
layerId = m01;
shapes = (
{
closed = 1;
nodes = (
(85,993.5,l),
(85,979.693,o),
(96.193,968.5,o),
(110,968.5,c),
(123.807,968.5,o),
(135,979.693,o),
(135,993.5,c),
(135,1571.5,l),
(135,1585.307,o),
(123.807,1596.5,o),
(110,1596.5,c),
(96.193,1596.5,o),
(85,1585.307,o),
(85,1571.5,c)
);
}
);
width = 220;
},
{
layerId = "19FA402B-9607-46D9-AAD6-815AECBA5B6B";
shapes = (
{
closed = 1;
nodes = (
(100,1025,l),
(100,991.863,o),
(126.863,965,o),
(160,965,c),
(193.137,965,o),
(220,991.863,o),
(220,1025,c),
(220,1540,l),
(220,1573.137,o),
(193.137,1600,o),
(160,1600,c),
(126.863,1600,o),
(100,1573.137,o),
(100,1540,c)
);
}
);
width = 320;
},
{
layerId = "FF87E3F2-B049-41CB-BF2F-09DB15105515";
shapes = (
{
closed = 1;
nodes = (
(150,1045,l),
(150,962.157,o),
(217.157,895,o),
(300,895,c),
(382.843,895,o),
(450,962.157,o),
(450,1045,c),
(450,1520,l),
(450,1602.843,o),
(382.843,1670,o),
(300,1670,c),
(217.157,1670,o),
(150,1602.843,o),
(150,1520,c)
);
}
);
width = 600;
}
);
unicode = (42891,42892);
},
{
color = 5;
glyphname = Germandbls;
kernLeft = I;
kernRight = SZ;
lastChange = "2022-06-05 19:17:50 +0000";
layers = (
{
layerId = m01;
shapes = (
{
closed = 1;
nodes = (
(135,1374,l),
(85,1374,l),
(85,25.5,l),
(85,11.693,o),
(96.193,0.5,o),
(110,0.5,c),
(123.807,0.5,o),
(135,11.693,o),
(135,25.5,c)
);
},
{
closed = 1;
nodes = (
(691,675,l),
(867.645,675,o),
(1004,538.645,o),
(1004,362,c),
(1004,186.355,o),
(867.645,50,o),
(691,50,c),
(333.5,50,l),
(319.693,50,o),
(308.5,38.807,o),
(308.5,25,c),
(308.5,11.193,o),
(319.693,0,o),
(333.5,0,c),
(691,0,l),
(891.955,0,o),
(1054,162.045,o),
(1054,362,c),
(1054,562.955,o),
(891.955,725,o),
(691,725,c),
(470.5,725,l),
(456.693,725,o),
(445.5,713.807,o),
(445.5,700,c),
(445.5,686.193,o),
(456.693,675,o),
(470.5,675,c)
);
},
{
closed = 1;
nodes = (
(110,1400,l),
(96.193,1400,o),
(85,1388.807,o),
(85,1375,c),
(85,1361.193,o),
(96.193,1350,o),
(110,1350,c),
(947.5,1350,l),
(961.307,1350,o),
(972.5,1361.193,o),
(972.5,1375,c),
(972.5,1388.807,o),
(961.307,1400,o),
(947.5,1400,c)
);
},
{
closed = 1;
nodes = (
(624.815,976.752,l),
(621.787,972.618,o),
(620,967.518,o),
(620,962,c),
(620,948.193,o),
(631.193,937,o),
(645,937,c),
(653.29,937,o),
(660.637,941.035,o),
(665.185,947.248,c),
(966.745,1359.861,l),
(969.872,1364.035,o),
(971.724,1369.218,o),
(971.724,1374.834,c),
(971.724,1388.642,o),
(960.531,1399.834,o),
(946.724,1399.834,c),
(938.533,1399.834,o),
(931.262,1395.895,o),
(926.702,1389.808,c)
);
}
);
width = 1097;
},
{
layerId = "19FA402B-9607-46D9-AAD6-815AECBA5B6B";
shapes = (
{
closed = 1;
nodes = (
(220,1336,l),
(100,1336,l),
(100,54,l),
(100,20.863,o),
(126.863,-6,o),
(160,-6,c),
(193.137,-6,o),
(220,20.863,o),
(220,54,c)
);
},
{
closed = 1;
nodes = (
(740,640,l),
(892.147,640,o),
(1000,532.147,o),
(1000,380,c),
(1000,227.853,o),
(892.147,120,o),
(740,120,c),
(434,120,l),
(400.863,120,o),
(374,93.137,o),
(374,60,c),
(374,26.863,o),
(400.863,0,o),
(434,0,c),
(740,0,l),
(950.053,0,o),
(1120,169.947,o),
(1120,380,c),
(1120,590.053,o),
(950.053,760,o),
(740,760,c),
(564,760,l),
(530.863,760,o),
(504,733.137,o),
(504,700,c),
(504,666.863,o),
(530.863,640,o),
(564,640,c)
);
},
{
closed = 1;
nodes = (
(160,1400,l),
(126.863,1400,o),
(100,1373.137,o),
(100,1340,c),
(100,1306.863,o),
(126.863,1280,o),
(160,1280,c),
(946,1280,l),
(979.137,1280,o),
(1006,1306.863,o),
(1006,1340,c),
(1006,1373.137,o),
(979.137,1400,o),
(946,1400,c)
);
},
{
closed = 1;
nodes = (
(692.677,1078.17,l),
(685.944,1068.474,o),
(682,1056.698,o),
(682,1044,c),
(682,1010.863,o),
(708.863,984,o),
(742,984,c),
(762.44,984,o),
(780.492,994.22,o),
(791.323,1009.83,c),
(990.152,1296.84,l),
(997.139,1306.649,o),
(1001.249,1318.65,o),
(1001.249,1331.611,c),
(1001.249,1364.749,o),
(974.386,1391.611,o),
(941.249,1391.611,c),
(921.073,1391.611,o),
(903.223,1381.653,o),
(892.346,1366.384,c)
);
}
);
width = 1170;
},
{
layerId = "FF87E3F2-B049-41CB-BF2F-09DB15105515";
shapes = (
{
closed = 1;
nodes = (
(410,1246,l),
(110,1246,l),
(110,150,l),
(110,67.157,o),
(177.157,0,o),
(260,0,c),
(342.843,0,o),
(410,67.157,o),
(410,150,c)
);
},
{
closed = 1;
nodes = (
(910,488,l),
(962,488,o),
(1004,446,o),
(1004,394,c),
(1004,342,o),
(962,300,o),
(910,300,c),
(621,300,l),
(538.157,300,o),
(471,232.843,o),
(471,150,c),
(471,67.157,o),
(538.157,0,o),
(621,0,c),
(910,0,l),
(1127.6,0,o),
(1304,176.4,o),
(1304,394,c),
(1304,611.6,o),
(1127.6,788,o),
(910,788,c),
(786,788,l),
(703.157,788,o),
(636,720.843,o),
(636,638,c),
(636,555.157,o),
(703.157,488,o),
(786,488,c)
);
},
{
closed = 1;
nodes = (
(260,1400,l),
(177.157,1400,o),
(110,1332.843,o),
(110,1250,c),
(110,1167.157,o),
(177.157,1100,o),
(260,1100,c),
(1075,1100,l),
(1157.843,1100,o),
(1225,1167.157,o),
(1225,1250,c),
(1225,1332.843,o),
(1157.843,1400,o),
(1075,1400,c)
);
},
{
closed = 1;
nodes = (
(766.542,1080.032,l),
(748.586,1055.311,o),
(738,1024.892,o),
(738,992,c),
(738,909.157,o),
(805.157,842,o),
(888,842,c),
(937.952,842,o),
(982.2,866.416,o),
(1009.458,903.968,c),
(1195.316,1160.403,l),
(1213.825,1185.35,o),
(1224.774,1216.242,o),
(1224.774,1249.692,c),
(1224.774,1332.535,o),
(1157.618,1399.692,o),
(1074.774,1399.692,c),
(1025.382,1399.692,o),
(981.566,1375.82,o),
(954.234,1338.984,c)
);
}
);
width = 1359;
}
);
metricLeft = H;
metricRight = B;
unicode = (7838,223);
},
{
color = 4;
glyphname = T;
kernLeft = T;
kernRight = T;
lastChange = "2022-08-25 20:41:49 +0000";
layers = (
{
anchors = (
{
name = bottom;
pos = (542,0);
},
{
name = center;
pos = (612,700);
},
{
name = top;
pos = (612,1400);
}
);
layerId = m01;
shapes = (
{
closed = 1;
nodes = (
(586,25.5,l),
(586,11.693,o),
(597.193,0.5,o),
(611,0.5,c),
(624.807,0.5,o),
(636,11.693,o),
(636,25.5,c),
(636,1375,l),
(586,1375,l)
);
},
{
closed = 1;
nodes = (
(610.5,1350,l),
(624.307,1350,o),
(635.5,1361.193,o),
(635.5,1375,c),
(635.5,1388.807,o),
(624.307,1400,o),
(610.5,1400,c),
(84.5,1400,l),
(70.693,1400,o),
(59.5,1388.807,o),
(59.5,1375,c),
(59.5,1361.193,o),
(70.693,1350,o),
(84.5,1350,c)
);
},
{
closed = 1;
nodes = (
(1137.5,1350,l),
(1151.307,1350,o),
(1162.5,1361.193,o),
(1162.5,1375,c),
(1162.5,1388.807,o),
(1151.307,1400,o),
(1137.5,1400,c),
(869.5,1400,l),
(855.693,1400,o),
(844.5,1388.807,o),
(844.5,1375,c),
(844.5,1361.193,o),
(855.693,1350,o),
(869.5,1350,c)
);
}
);
width = 1223;
},
{
anchors = (
{
name = bottom;
pos = (565,0);
},
{
name = center;
pos = (625,700);
},
{
name = top;
pos = (625,1400);
}
);
layerId = "19FA402B-9607-46D9-AAD6-815AECBA5B6B";
shapes = (
{
closed = 1;
nodes = (
(565,60,l),
(565,26.863,o),
(591.863,0,o),
(625,0,c),
(658.137,0,o),
(685,26.863,o),
(685,60,c),
(685,1346,l),
(565,1346,l)
);
},
{
closed = 1;
nodes = (
(625,1280,l),
(658.137,1280,o),
(685,1306.863,o),
(685,1340,c),
(685,1373.137,o),
(658.137,1400,o),
(625,1400,c),
(130,1400,l),
(96.863,1400,o),
(70,1373.137,o),
(70,1340,c),
(70,1306.863,o),
(96.863,1280,o),
(130,1280,c)
);
},
{
closed = 1;
nodes = (
(1120,1280,l),
(1153.137,1280,o),
(1180,1306.863,o),
(1180,1340,c),
(1180,1373.137,o),
(1153.137,1400,o),
(1120,1400,c),
(915,1400,l),
(881.863,1400,o),
(855,1373.137,o),
(855,1340,c),
(855,1306.863,o),
(881.863,1280,o),
(915,1280,c)
);
}
);
width = 1250;
},
{
anchors = (
{
name = bottom;
pos = (619,0);
},
{
name = center;
pos = (669,700);
},
{
name = top;
pos = (669,1400);
}
);
layerId = "FF87E3F2-B049-41CB-BF2F-09DB15105515";
shapes = (
{
closed = 1;
nodes = (
(519,150,l),
(519,67.157,o),
(586.157,0,o),
(669,0,c),
(751.843,0,o),
(819,67.157,o),
(819,150,c),
(819,1246,l),
(519,1246,l)
);
},
{
closed = 1;
nodes = (
(669,1100,l),
(751.843,1100,o),
(819,1167.157,o),
(819,1250,c),
(819,1332.843,o),
(751.843,1400,o),
(669,1400,c),
(235,1400,l),
(152.157,1400,o),
(85,1332.843,o),
(85,1250,c),
(85,1167.157,o),
(152.157,1100,o),
(235,1100,c)
);
},
{
closed = 1;
nodes = (
(1103,1100,l),
(1185.843,1100,o),
(1253,1167.157,o),
(1253,1250,c),
(1253,1332.843,o),
(1185.843,1400,o),
(1103,1400,c),
(1040,1400,l),
(957.157,1400,o),
(890,1332.843,o),
(890,1250,c),
(890,1167.157,o),
(957.157,1100,o),
(1040,1100,c)
);
}
);
width = 1338;
}
);
metricLeft = A;
metricRight = A;
unicode = (84,116);
},
{
color = 4;
glyphname = U;
kernLeft = U;
kernRight = U;
lastChange = "2022-08-26 23:21:13 +0000";
layers = (
{
anchors = (
{
name = bottom;
pos = (583,0);
},
{
name = ogonek;
pos = (583,0);
},
{
name = top;
pos = (583,1400);
},
{
name = topright;
pos = (1030,1374);
}
);
layerId = m01;
shapes = (
{
closed = 1;
nodes = (
(135,1374.5,l),
(135,1388.307,o),
(123.807,1399.5,o),
(110,1399.5,c),
(96.193,1399.5,o),
(85,1388.307,o),
(85,1374.5,c),
(85,899,l),
(85,885.193,o),
(96.193,874,o),
(110,874,c),
(123.807,874,o),
(135,885.193,o),
(135,899,c)
);
},
{
closed = 1;
nodes = (
(1030,498,l),
(1030,250,o),
(830,50,o),
(583,50,c),
(342.151,50,o),
(146.574,238.632,o),
(135.495,476.67,c),
(134.889,489.938,o),
(123.94,500.508,o),
(110.522,500.508,c),
(95.606,500.508,o),
(84.949,487.449,o),
(85.549,474.347,c),
(97.851,209.866,o),
(315.419,0,o),
(583,0,c),
(857.511,0,o),
(1080,222.489,o),
(1080,498,c),
(1080,1374.5,l),
(1080,1388.307,o),
(1068.807,1399.5,o),
(1055,1399.5,c),
(1041.193,1399.5,o),
(1030,1388.307,o),
(1030,1374.5,c)
);
}
);
width = 1165;
},
{
anchors = (
{
name = bottom;
pos = (598,0);
},
{
name = ogonek;
pos = (628,2);
},
{
name = top;
pos = (598,1400);
},
{
name = topright;
pos = (977,1341);
}
);
layerId = "19FA402B-9607-46D9-AAD6-815AECBA5B6B";
shapes = (
{
closed = 1;
nodes = (
(220,1340,l),
(220,1373.137,o),
(193.137,1400,o),
(160,1400,c),
(126.863,1400,o),
(100,1373.137,o),
(100,1340,c),
(100,899,l),
(100,865.863,o),
(126.863,839,o),
(160,839,c),
(193.137,839,o),
(220,865.863,o),
(220,899,c)
);
},
{
closed = 1;
nodes = (
(976,498,l),
(976,289,o),
(807,120,o),
(599,120,c),
(390,120,o),
(221,289,o),
(221,498,c),
(221,531.137,o),
(194.137,558,o),
(161,558,c),
(127.863,558,o),
(101,531.137,o),
(101,498,c),
(101,222.894,o),
(323.894,0,o),
(599,0,c),
(873.106,0,o),
(1096,222.894,o),
(1096,498,c),
(1096,1340,l),
(1096,1373.137,o),
(1069.137,1400,o),
(1036,1400,c),
(1002.863,1400,o),
(976,1373.137,o),
(976,1340,c)
);
}
);
width = 1196;
},
{
anchors = (
{
name = bottom;
pos = (670,0);
},
{
name = ogonek;
pos = (670,0);
},
{
name = top;
pos = (670,1400);
},
{
name = topright;
pos = (929,1251);
}
);
layerId = "FF87E3F2-B049-41CB-BF2F-09DB15105515";
shapes = (
{
closed = 1;
nodes = (
(410,1250,l),
(410,1332.843,o),
(342.843,1400,o),
(260,1400,c),
(177.157,1400,o),
(110,1332.843,o),
(110,1250,c),
(110,996,l),
(110,913.157,o),
(177.157,846,o),
(260,846,c),
(342.843,846,o),
(410,913.157,o),
(410,996,c)
);
},
{
closed = 1;
nodes = (
(929,548,l),
(929,405,o),
(813,290,o),
(671,290,c),
(529,290,o),
(413,405,o),
(413,548,c),
(413,630.843,o),
(345.843,698,o),
(263,698,c),
(180.157,698,o),
(113,630.843,o),
(113,548,c),
(113,237.2,o),
(365.8,-10,o),
(671,-10,c),
(976.2,-10,o),
(1229,237.2,o),
(1229,548,c),
(1229,1249,l),
(1229,1331.843,o),
(1161.843,1399,o),
(1079,1399,c),
(996.157,1399,o),
(929,1331.843,o),
(929,1249,c)
);
}
);
width = 1339;
}
);
metricLeft = H;
metricRight = H;
unicode = (85,117);
},
{
color = 4;
glyphname = V;
kernLeft = V;
kernRight = V;
lastChange = "2022-06-05 19:17:41 +0000";
layers = (
{
anchors = (
{
name = bottom;
pos = (676,0);
},
{
name = top;
pos = (676,1400);
}
);
layerId = m01;
shapes = (
{
closed = 1;
nodes = (
(107.572,1385.528,l),
(103.658,1394.223,o),
(94.918,1400.277,o),
(84.764,1400.277,c),
(70.957,1400.277,o),
(59.764,1389.084,o),
(59.764,1375.277,c),
(59.764,1371.822,o),
(60.465,1368.53,o),
(67.497,1351.923,c),
(343.428,699.472,l),
(347.342,690.777,o),
(356.082,684.723,o),
(366.236,684.723,c),
(380.043,684.723,o),
(391.236,695.916,o),
(391.236,709.723,c),
(391.236,713.178,o),
(390.535,716.47,o),
(383.504,733.076,c)
);
},
{
closed = 1;
nodes = (
(1290.118,1365.476,l),
(1291.414,1368.497,o),
(1292.131,1371.826,o),
(1292.131,1375.322,c),
(1292.131,1389.129,o),
(1280.939,1400.322,o),
(1267.131,1400.322,c),
(1257.021,1400.322,o),
(1248.312,1394.32,o),
(1244.374,1385.685,c),
(664.882,34.524,l),
(663.586,31.503,o),
(662.869,28.174,o),
(662.869,24.678,c),
(662.869,10.871,o),
(674.061,-0.322,o),
(687.869,-0.322,c),
(697.981,-0.322,o),
(706.69,5.682,o),
(710.628,14.319,c)
);
}
);
width = 1352;
},
{
anchors = (
{
name = bottom;
pos = (706,0);
},
{
name = top;
pos = (706,1400);
}
);
layerId = "19FA402B-9607-46D9-AAD6-815AECBA5B6B";
shapes = (
{
closed = 1;
nodes = (
(184.759,1364.827,l),
(175.372,1385.711,o),
(154.387,1400.253,o),
(130.006,1400.253,c),
(96.868,1400.253,o),
(70.006,1373.39,o),
(70.006,1340.253,c),
(70.006,1331.497,o),
(71.881,1323.179,o),
(75.252,1315.68,c),
(329.241,714.173,l),
(338.628,693.289,o),
(359.613,678.747,o),
(383.994,678.747,c),
(417.132,678.747,o),
(443.994,705.61,o),
(443.994,738.747,c),
(443.994,747.503,o),
(442.119,755.821,o),
(438.748,763.32,c)
);
},
{
closed = 1;
nodes = (
(1336.372,1315.516,l),
(1339.82,1323.086,o),
(1341.741,1331.499,o),
(1341.741,1340.361,c),
(1341.741,1373.498,o),
(1314.879,1400.361,o),
(1281.741,1400.361,c),
(1257.465,1400.361,o),
(1236.557,1385.944,o),
(1227.111,1365.205,c),
(678.628,84.484,l),
(675.18,76.914,o),
(673.259,68.501,o),
(673.259,59.639,c),
(673.259,26.502,o),
(700.121,-0.361,o),
(733.259,-0.361,c),
(757.535,-0.361,o),
(778.443,14.056,o),
(787.889,34.795,c)
);
}
);
width = 1412;
},
{
anchors = (
{
name = bottom;
pos = (768,0);
},
{
name = top;
pos = (768,1400);
}
);
layerId = "FF87E3F2-B049-41CB-BF2F-09DB15105515";
shapes = (
{
closed = 1;
nodes = (
(369.69,1316.042,l),
(345.204,1365.6,o),
(294.147,1399.684,o),
(235.129,1399.684,c),
(152.285,1399.684,o),
(85.129,1332.527,o),
(85.129,1249.684,c),
(85.129,1225.858,o),
(90.683,1203.331,o),
(100.568,1183.325,c),
(305.31,744.958,l),
(329.796,695.4,o),
(380.853,661.316,o),
(439.871,661.316,c),
(522.715,661.316,o),
(589.871,728.473,o),
(589.871,811.316,c),
(589.871,835.141,o),
(584.317,857.669,o),
(574.432,877.675,c)
);
},
{
closed = 1;
nodes = (
(1435.682,1184.423,l),
(1445.513,1204.385,o),
(1451.035,1226.851,o),
(1451.035,1250.607,c),
(1451.035,1333.451,o),
(1383.879,1400.607,o),
(1301.035,1400.607,c),
(1241.947,1400.607,o),
(1190.84,1366.444,o),
(1166.388,1316.791,c),
(654.318,216.577,l),
(644.487,196.615,o),
(638.965,174.149,o),
(638.965,150.393,c),
(638.965,67.549,o),
(706.121,0.393,o),
(788.965,0.393,c),
(848.053,0.393,o),
(899.16,34.556,o),
(923.612,84.209,c)
);
}
);
width = 1536;
}
);
metricLeft = A;
metricRight = A;
unicode = (86,118);
},
{
color = 4;
glyphname = W;
kernLeft = W;
kernRight = W;
lastChange = "2022-06-05 19:17:41 +0000";
layers = (
{
anchors = (
{
name = bottom;
pos = (954,0);
},
{
name = top;
pos = (954,1400);
}
);
layerId = m01;
shapes = (
{
closed = 1;
nodes = (
(1404,0,o),
(1414,8,o),
(1417,18,cs),
(1847,1368,ls),
(1852,1383,o),
(1840,1400,o),
(1823,1400,cs),
(1812,1400,o),
(1802,1392,o),
(1799,1382,cs),
(1369,32,ls),
(1364,17,o),
(1376,0,o),
(1393,0,cs)
);
},
{
closed = 1;
nodes = (
(311,685,o),
(323,702,o),
(318,717,cs),
(109,1382,ls),
(106,1392,o),
(96,1400,o),
(85,1400,cs),
(68,1400,o),
(56,1383,o),
(61,1368,cs),
(270,703,ls),
(273,693,o),
(283,685,o),
(294,685,cs)
);
},
{
closed = 1;
nodes = (
(545,0,o),
(555,8,o),
(558,19,cs),
(978,1368,ls),
(983,1383,o),
(971,1400,o),
(954,1400,cs),
(943,1400,o),
(933,1392,o),
(930,1381,cs),
(510,32,ls),
(505,17,o),
(517,0,o),
(534,0,cs)
);
},
{
closed = 1;
nodes = (
(1169,686,o),
(1181,702,o),
(1177,717,cs),
(979,1382,ls),
(976,1393,o),
(966,1400,o),
(954,1400,cs),
(938,1400,o),
(926,1384,o),
(930,1369,cs),
(1128,704,ls),
(1131,693,o),
(1141,686,o),
(1153,686,cs)
);
}
);
width = 1908;
},
{
anchors = (
{
name = bottom;
pos = (987,0);
},
{
name = top;
pos = (987,1400);
}
);
layerId = "19FA402B-9607-46D9-AAD6-815AECBA5B6B";
shapes = (
{
closed = 1;
nodes = (
(1465,1,o),
(1488,20,o),
(1495,45,cs),
(1902,1320,ls),
(1913,1355,o),
(1891,1399,o),
(1845,1399,cs),
(1817,1399,o),
(1794,1380,o),
(1787,1355,cs),
(1380,80,ls),
(1369,45,o),
(1391,1,o),
(1437,1,cs)
);
},
{
closed = 1;
nodes = (
(362,681,o),
(385,722,o),
(375,757,cs),
(187,1355,ls),
(180,1380,o),
(157,1398,o),
(129,1398,cs),
(85,1398,o),
(62,1357,o),
(72,1322,cs),
(260,724,ls),
(267,699,o),
(290,681,o),
(318,681,cs)
);
},
{
closed = 1;
nodes = (
(606,1,o),
(629,20,o),
(636,44,cs),
(1044,1321,ls),
(1055,1356,o),
(1032,1400,o),
(987,1400,cs),
(959,1400,o),
(936,1381,o),
(929,1357,cs),
(521,80,ls),
(510,45,o),
(533,1,o),
(578,1,cs)
);
},
{
closed = 1;
nodes = (
(1220,681,o),
(1243,722,o),
(1233,757,cs),
(1045,1355,ls),
(1038,1380,o),
(1015,1398,o),
(987,1398,cs),
(943,1398,o),
(920,1357,o),
(930,1322,cs),
(1118,724,ls),
(1125,699,o),
(1148,681,o),
(1176,681,cs)
);
}
);
width = 1975;
},
{
anchors = (
{
name = bottom;
pos = (1033,0);
},
{
name = top;
pos = (1033,1400);
}
);
layerId = "FF87E3F2-B049-41CB-BF2F-09DB15105515";
shapes = (
{
closed = 1;
nodes = (
(1550,0,o),
(1608,45,o),
(1626,108,cs),
(1975,1208,ls),
(2003,1303,o),
(1931,1400,o),
(1831,1400,cs),
(1763,1400,o),
(1705,1355,o),
(1687,1292,cs),
(1338,192,ls),
(1310,97,o),
(1382,0,o),
(1482,0,cs)
);
},
{
closed = 1;
nodes = (
(470,668,o),
(542,763,o),
(514,859,cs),
(379,1291,ls),
(361,1354,o),
(304,1400,o),
(235,1400,cs),
(135,1400,o),
(63,1305,o),
(91,1209,cs),
(226,777,ls),
(244,714,o),
(301,668,o),
(370,668,cs)
);
},
{
closed = 1;
nodes = (
(751,0,o),
(809,45,o),
(827,108,cs),
(1176,1208,ls),
(1204,1303,o),
(1132,1400,o),
(1032,1400,cs),
(964,1400,o),
(906,1355,o),
(888,1292,cs),
(539,192,ls),
(511,97,o),
(583,0,o),
(683,0,cs)
);
},
{
closed = 1;
nodes = (
(1299,572,o),
(1371,667,o),
(1343,763,cs),
(1178,1291,ls),
(1160,1354,o),
(1103,1400,o),
(1034,1400,cs),
(934,1400,o),
(862,1305,o),
(890,1209,cs),
(1055,681,ls),
(1073,618,o),
(1130,572,o),
(1199,572,cs)
);
}
);
width = 2066;
}
);
metricLeft = A;
metricRight = A;
unicode = (87,119);
},
{
color = 4;
glyphname = X;
kernLeft = X;
kernRight = X;
lastChange = "2022-06-05 19:17:41 +0000";
layers = (
{
anchors = (
{
name = bottom;
pos = (616,0);
},
{
name = top;
pos = (616,1400);
}
);
layerId = m01;
shapes = (
{
closed = 1;
nodes = (
(65.362,40.309,l),
(61.938,36.032,o),
(59.891,30.605,o),
(59.891,24.7,c),
(59.891,10.893,o),
(71.084,-0.3,o),
(84.891,-0.3,c),
(92.793,-0.3,o),
(99.839,3.366,o),
(104.42,9.09,c),
(400.667,386.565,l),
(404.008,390.815,o),
(406,396.175,o),
(406,402,c),
(406,415.807,o),
(394.807,427,o),
(381,427,c),
(373.018,427,o),
(365.91,423.259,o),
(361.333,417.435,c)
);
},
{
closed = 1;
nodes = (
(1126.578,9.072,l),
(1131.159,3.354,o),
(1138.202,-0.308,o),
(1146.099,-0.308,c),
(1159.906,-0.308,o),
(1171.099,10.885,o),
(1171.099,24.692,c),
(1171.099,30.522,o),
(1169.103,35.886,o),
(1164.722,41.455,c),
(104.422,1390.927,l),
(99.841,1396.646,o),
(92.799,1400.308,o),
(84.901,1400.308,c),
(71.094,1400.308,o),
(59.901,1389.115,o),
(59.901,1375.308,c),
(59.901,1369.478,o),
(61.897,1364.114,o),
(66.279,1358.544,c)
);
},
{
closed = 1;
nodes = (
(830.309,1013.404,l),
(826.983,1009.159,o),
(825,1003.811,o),
(825,998,c),
(825,984.193,o),
(836.193,973,o),
(850,973,c),
(857.996,973,o),
(865.115,976.754,o),
(869.691,982.596,c),
(1164.691,1359.7,l),
(1168.099,1363.973,o),
(1170.137,1369.388,o),
(1170.137,1375.278,c),
(1170.137,1389.086,o),
(1158.944,1400.278,o),
(1145.137,1400.278,c),
(1137.22,1400.278,o),
(1130.163,1396.599,o),
(1125.583,1390.857,c)
);
}
);
width = 1231;
},
{
anchors = (
{
name = bottom;
pos = (635,0);
},
{
name = top;
pos = (635,1400);
}
);
layerId = "19FA402B-9607-46D9-AAD6-815AECBA5B6B";
shapes = (
{
closed = 1;
nodes = (
(83.476,95.943,l),
(75.258,85.677,o),
(70.343,72.651,o),
(70.343,58.476,c),
(70.343,25.339,o),
(97.206,-1.524,o),
(130.343,-1.524,c),
(149.306,-1.524,o),
(166.215,7.274,o),
(177.21,21.01,c),
(447.197,364.951,l),
(455.217,375.152,o),
(460,388.017,o),
(460,402,c),
(460,435.137,o),
(433.137,462,o),
(400,462,c),
(380.845,462,o),
(363.787,453.024,o),
(352.803,439.049,c)
);
},
{
closed = 1;
nodes = (
(1089.789,23,l),
(1100.784,9.267,o),
(1117.691,0.472,o),
(1136.651,0.472,c),
(1169.789,0.472,o),
(1196.651,27.335,o),
(1196.651,60.472,c),
(1196.651,74.649,o),
(1191.735,87.677,o),
(1183.514,97.945,c),
(179.211,1377,l),
(168.216,1390.733,o),
(151.309,1399.528,o),
(132.349,1399.528,c),
(99.211,1399.528,o),
(72.349,1372.665,o),
(72.349,1339.528,c),
(72.349,1325.351,o),
(77.265,1312.323,o),
(85.486,1302.055,c)
);
},
{
closed = 1;
nodes = (
(821.777,1035.016,l),
(813.773,1024.82,o),
(809,1011.968,o),
(809,998,c),
(809,964.863,o),
(835.863,938,o),
(869,938,c),
(888.17,938,o),
(905.24,946.99,o),
(916.223,960.984,c),
(1183.589,1302.078,l),
(1191.786,1312.338,o),
(1196.687,1325.347,o),
(1196.687,1339.5,c),
(1196.687,1372.638,o),
(1169.824,1399.5,o),
(1136.687,1399.5,c),
(1117.703,1399.5,o),
(1100.779,1390.685,o),
(1089.785,1376.924,c)
);
}
);
width = 1267;
},
{
anchors = (
{
name = bottom;
pos = (667,0);
},
{
name = top;
pos = (667,1400);
}
);
layerId = "FF87E3F2-B049-41CB-BF2F-09DB15105515";
shapes = (
{
closed = 1;
nodes = (
(118.119,243.849,l),
(97.592,218.188,o),
(85.318,185.639,o),
(85.318,150.222,c),
(85.318,67.379,o),
(152.474,0.222,o),
(235.318,0.222,c),
(282.745,0.222,o),
(325.03,22.232,o),
(352.517,56.595,c),
(521.027,271.422,l),
(541.057,296.917,o),
(553,329.064,o),
(553,364,c),
(553,446.843,o),
(485.843,514,o),
(403,514,c),
(355.093,514,o),
(312.432,491.542,o),
(284.973,456.578,c)
);
},
{
closed = 1;
nodes = (
(978.538,57.15,l),
(1006.018,22.607,o),
(1048.417,0.462,o),
(1095.989,0.462,c),
(1178.832,0.462,o),
(1245.989,67.618,o),
(1245.989,150.462,c),
(1245.989,185.734,o),
(1233.815,218.162,o),
(1213.44,243.774,c),
(356.462,1342.85,l),
(328.982,1377.393,o),
(286.583,1399.538,o),
(239.011,1399.538,c),
(156.168,1399.538,o),
(89.011,1332.382,o),
(89.011,1249.538,c),
(89.011,1214.266,o),
(101.185,1181.838,o),
(121.56,1156.226,c)
);
},
{
closed = 1;
nodes = (
(811.973,1128.578,l),
(791.943,1103.083,o),
(780,1070.936,o),
(780,1036,c),
(780,953.157,o),
(847.157,886,o),
(930,886,c),
(977.907,886,o),
(1020.568,908.458,o),
(1048.027,943.422,c),
(1214.965,1156.256,l),
(1235.441,1181.9,o),
(1247.682,1214.41,o),
(1247.682,1249.778,c),
(1247.682,1332.621,o),
(1180.526,1399.778,o),
(1097.682,1399.778,c),
(1050.208,1399.778,o),
(1007.885,1377.724,o),
(980.4,1343.302,c)
);
}
);
width = 1333;
}
);
metricLeft = A;
metricRight = A;
unicode = (88,120);
},
{
color = 4;
glyphname = Y;
kernLeft = Y;
kernRight = Y;
lastChange = "2022-06-05 19:17:41 +0000";
layers = (
{
anchors = (
{
name = bottom;
pos = (616,0);
},
{
name = top;
pos = (616,1400);
},
{
name = topleft;
pos = (20,1400);
}
);
layerId = m01;
shapes = (
{
closed = 1;
nodes = (
(591,25.5,l),
(591,11.693,o),
(602.193,0.5,o),
(616,0.5,c),
(629.807,0.5,o),
(641,11.693,o),
(641,25.5,c),
(641,696.5,l),
(641,710.307,o),
(629.807,721.5,o),
(616,721.5,c),
(602.193,721.5,o),
(591,710.307,o),
(591,696.5,c)
);
},
{
closed = 1;
nodes = (
(104.42,1390.91,l),
(99.839,1396.634,o),
(92.793,1400.3,o),
(84.891,1400.3,c),
(71.084,1400.3,o),
(59.891,1389.107,o),
(59.891,1375.3,c),
(59.891,1369.395,o),
(61.938,1363.968,o),
(65.362,1359.691,c),
(361.333,982.565,l),
(365.91,976.741,o),
(373.018,973,o),
(381,973,c),
(394.807,973,o),
(406,984.193,o),
(406,998,c),
(406,1003.825,o),
(404.008,1009.185,o),
(400.667,1013.435,c)
);
},
{
closed = 1;
nodes = (
(596.324,714.423,l),
(592.989,710.175,o),
(591,704.82,o),
(591,699,c),
(591,685.193,o),
(602.193,674,o),
(616,674,c),
(623.987,674,o),
(631.1,677.746,o),
(635.676,683.577,c),
(1165.658,1359.695,l),
(1169.076,1363.97,o),
(1171.119,1369.392,o),
(1171.119,1375.292,c),
(1171.119,1389.099,o),
(1159.927,1400.292,o),
(1146.119,1400.292,c),
(1138.212,1400.292,o),
(1131.161,1396.621,o),
(1126.58,1390.889,c)
);
}
);
width = 1231;
},
{
anchors = (
{
name = bottom;
pos = (633,0);
},
{
name = top;
pos = (633,1400);
},
{
name = topleft;
pos = (19,1400);
}
);
layerId = "19FA402B-9607-46D9-AAD6-815AECBA5B6B";
shapes = (
{
closed = 1;
nodes = (
(573,60,l),
(573,26.863,o),
(599.863,0,o),
(633,0,c),
(666.137,0,o),
(693,26.863,o),
(693,60,c),
(693,685,l),
(693,718.137,o),
(666.137,745,o),
(633,745,c),
(599.863,745,o),
(573,718.137,o),
(573,685,c)
);
},
{
closed = 1;
nodes = (
(177.205,1376.937,l),
(166.21,1390.69,o),
(149.291,1399.5,o),
(130.313,1399.5,c),
(97.176,1399.5,o),
(70.313,1372.638,o),
(70.313,1339.5,c),
(70.313,1325.34,o),
(75.219,1312.326,o),
(83.422,1302.064,c),
(350.777,960.984,l),
(361.76,946.99,o),
(378.83,938,o),
(398,938,c),
(431.137,938,o),
(458,964.863,o),
(458,998,c),
(458,1011.968,o),
(453.227,1024.82,o),
(445.223,1035.016,c)
);
},
{
closed = 1;
nodes = (
(585.772,736.009,l),
(577.771,725.815,o),
(573,712.965,o),
(573,699,c),
(573,665.863,o),
(599.863,639,o),
(633,639,c),
(652.173,639,o),
(669.245,647.993,o),
(680.228,661.991,c),
(1182.595,1303.073,l),
(1190.792,1313.333,o),
(1195.693,1326.342,o),
(1195.693,1340.496,c),
(1195.693,1373.633,o),
(1168.83,1400.496,o),
(1135.693,1400.496,c),
(1116.709,1400.496,o),
(1099.785,1391.68,o),
(1088.79,1377.919,c)
);
}
);
width = 1266;
},
{
anchors = (
{
name = bottom;
pos = (666,0);
},
{
name = top;
pos = (666,1400);
},
{
name = topleft;
pos = (5,1400);
}
);
layerId = "FF87E3F2-B049-41CB-BF2F-09DB15105515";
shapes = (
{
closed = 1;
nodes = (
(517,150,l),
(517,67.157,o),
(584.157,0,o),
(667,0,c),
(749.843,0,o),
(817,67.157,o),
(817,150,c),
(817,694,l),
(817,776.843,o),
(749.843,844,o),
(667,844,c),
(584.157,844,o),
(517,776.843,o),
(517,694,c)
);
},
{
closed = 1;
nodes = (
(352.517,1343.405,l),
(325.03,1377.768,o),
(282.745,1399.778,o),
(235.318,1399.778,c),
(152.474,1399.778,o),
(85.318,1332.621,o),
(85.318,1249.778,c),
(85.318,1214.361,o),
(97.592,1181.811,o),
(118.119,1156.15,c),
(284.973,943.422,l),
(312.432,908.458,o),
(355.093,886,o),
(403,886,c),
(485.843,886,o),
(553,953.157,o),
(553,1036,c),
(553,1070.936,o),
(541.057,1103.083,o),
(521.027,1128.578,c)
);
},
{
closed = 1;
nodes = (
(548.682,791.205,l),
(528.828,765.771,o),
(517,733.767,o),
(517,699,c),
(517,616.157,o),
(584.157,549,o),
(667,549,c),
(715.077,549,o),
(757.87,571.617,o),
(785.318,606.795,c),
(1213.533,1156.286,l),
(1233.869,1181.885,o),
(1246.017,1214.282,o),
(1246.017,1249.516,c),
(1246.017,1332.36,o),
(1178.861,1399.516,o),
(1096.017,1399.516,c),
(1048.408,1399.516,o),
(1005.98,1377.337,o),
(978.502,1342.747,c)
);
}
);
width = 1331;
}
);
metricLeft = A;
metricRight = A;
unicode = (89,121);
},
{
color = 4;
glyphname = Z;
kernLeft = Z;
kernRight = Z;
lastChange = "2022-06-05 19:17:41 +0000";
layers = (
{
anchors = (
{
name = bottom;
pos = (610,0);
},
{
name = center;
pos = (610,700);
},
{
name = top;
pos = (610,1400);
}
);
layerId = m01;
shapes = (
{
closed = 1;
nodes = (
(84.5,50,l),
(70.693,50,o),
(59.5,38.807,o),
(59.5,25,c),
(59.5,11.193,o),
(70.693,0,o),
(84.5,0,c),
(1133.5,0,l),
(1147.307,0,o),
(1158.5,11.193,o),
(1158.5,25,c),
(1158.5,38.807,o),
(1147.307,50,o),
(1133.5,50,c)
);
},
{
closed = 1;
nodes = (
(691.713,761.701,l),
(695.116,765.972,o),
(697.15,771.382,o),
(697.15,777.268,c),
(697.15,791.075,o),
(685.957,802.268,o),
(672.15,802.268,c),
(664.228,802.268,o),
(657.167,798.583,o),
(652.587,792.835,c),
(70.287,47.299,l),
(66.884,43.028,o),
(64.85,37.618,o),
(64.85,31.732,c),
(64.85,17.925,o),
(76.043,6.732,o),
(89.85,6.732,c),
(97.772,6.732,o),
(104.833,10.417,o),
(109.413,16.165,c)
);
},
{
closed = 1;
nodes = (
(84.5,1396,l),
(70.693,1396,o),
(59.5,1384.807,o),
(59.5,1371,c),
(59.5,1357.193,o),
(70.693,1346,o),
(84.5,1346,c),
(1133.5,1346,l),
(1147.307,1346,o),
(1158.5,1357.193,o),
(1158.5,1371,c),
(1158.5,1384.807,o),
(1147.307,1396,o),
(1133.5,1396,c)
);
}
);
width = 1219;
},
{
anchors = (
{
name = bottom;
pos = (623,0);
},
{
name = center;
pos = (623,700);
},
{
name = top;
pos = (623,1400);
}
);
layerId = "19FA402B-9607-46D9-AAD6-815AECBA5B6B";
shapes = (
{
closed = 1;
nodes = (
(130,120,l),
(96.863,120,o),
(70,93.137,o),
(70,60,c),
(70,26.863,o),
(96.863,0,o),
(130,0,c),
(1116,0,l),
(1149.137,0,o),
(1176,26.863,o),
(1176,60,c),
(1176,93.137,o),
(1149.137,120,o),
(1116,120,c)
);
},
{
closed = 1;
nodes = (
(713.932,715.112,l),
(722.04,725.343,o),
(726.882,738.28,o),
(726.882,752.348,c),
(726.882,785.486,o),
(700.019,812.348,o),
(666.882,812.348,c),
(647.812,812.348,o),
(630.821,803.453,o),
(619.831,789.584,c),
(85.068,100.888,l),
(76.96,90.657,o),
(72.118,77.72,o),
(72.118,63.652,c),
(72.118,30.514,o),
(98.981,3.652,o),
(132.118,3.652,c),
(151.188,3.652,o),
(168.179,12.547,o),
(179.169,26.416,c)
);
},
{
closed = 1;
nodes = (
(130,1396,l),
(96.863,1396,o),
(70,1369.137,o),
(70,1336,c),
(70,1302.863,o),
(96.863,1276,o),
(130,1276,c),
(1116,1276,l),
(1149.137,1276,o),
(1176,1302.863,o),
(1176,1336,c),
(1176,1369.137,o),
(1149.137,1396,o),
(1116,1396,c)
);
}
);
width = 1246;
},
{
anchors = (
{
name = bottom;
pos = (648,0);
},
{
name = center;
pos = (648,700);
},
{
name = top;
pos = (648,1400);
}
);
layerId = "FF87E3F2-B049-41CB-BF2F-09DB15105515";
shapes = (
{
closed = 1;
nodes = (
(237,300,l),
(154.157,300,o),
(87,232.843,o),
(87,150,c),
(87,67.157,o),
(154.157,0,o),
(237,0,c),
(1061,0,l),
(1143.843,0,o),
(1211,67.157,o),
(1211,150,c),
(1211,232.843,o),
(1143.843,300,o),
(1061,300,c)
);
},
{
closed = 1;
nodes = (
(760.802,595.277,l),
(781.079,620.857,o),
(793.188,653.206,o),
(793.188,688.383,c),
(793.188,771.227,o),
(726.031,838.383,o),
(643.188,838.383,c),
(595.522,838.383,o),
(553.049,816.151,o),
(525.574,781.49,c),
(117.198,255.723,l),
(96.921,230.143,o),
(84.812,197.794,o),
(84.812,162.617,c),
(84.812,79.773,o),
(151.969,12.617,o),
(234.812,12.617,c),
(282.478,12.617,o),
(324.951,34.849,o),
(352.426,69.51,c)
);
},
{
closed = 1;
nodes = (
(237,1396,l),
(154.157,1396,o),
(87,1328.843,o),
(87,1246,c),
(87,1163.157,o),
(154.157,1096,o),
(237,1096,c),
(1061,1096,l),
(1143.843,1096,o),
(1211,1163.157,o),
(1211,1246,c),
(1211,1328.843,o),
(1143.843,1396,o),
(1061,1396,c)
);
}
);
width = 1296;
}
);
metricLeft = A;
metricRight = A;
unicode = (90,122);
},
{
color = 6;
glyphname = C_O;
kernLeft = O;
kernRight = I;
lastChange = "2022-06-05 19:17:50 +0000";
layers = (
{
layerId = m01;
shapes = (
{
ref = C;
},
{
closed = 1;
nodes = (
(485,988,o),
(496,999,o),
(496,1013,cs),
(496,1027,o),
(485,1038,o),
(471,1038,cs),
(456,1038,o),
(445,1027,o),
(445,1013,cs),
(445,999,o),
(456,988,o),
(471,988,cs)
);
},
{
closed = 1;
nodes = (
(1009,1100,o),
(1193,917,o),
(1193,690,c),
(1193,464,o),
(1009,281,o),
(783,281,c),
(556,281,o),
(373,464,o),
(373,690,c),
(373,703.807,o),
(361.807,715,o),
(348,715,c),
(334.193,715,o),
(323,703.807,o),
(323,690,c),
(323,436.489,o),
(528.489,231,o),
(783,231,c),
(1036.431,231,o),
(1243,436.409,o),
(1243,690,c),
(1243,944.591,o),
(1036.431,1150,o),
(783,1150,c),
(769.193,1150,o),
(758,1138.807,o),
(758,1125,c),
(758,1111.193,o),
(769.193,1100,o),
(783,1100,c)
);
}
);
width = 1287;
},
{
layerId = "19FA402B-9607-46D9-AAD6-815AECBA5B6B";
shapes = (
{
ref = C;
},
{
closed = 1;
nodes = (
(551,932,o),
(578,959,o),
(578,992,cs),
(578,1025,o),
(551,1052,o),
(518,1052,cs),
(485,1052,o),
(458,1025,o),
(458,992,cs),
(458,959,o),
(485,932,o),
(518,932,cs)
);
},
{
closed = 1;
nodes = (
(971,1013,o),
(1115,869,o),
(1115,691,c),
(1115,512,o),
(971,369,o),
(793,369,c),
(615,369,o),
(471,512,o),
(471,691,c),
(471,724.137,o),
(444.137,751,o),
(411,751,c),
(377.863,751,o),
(351,724.137,o),
(351,691,c),
(351,445.649,o),
(549.139,249,o),
(793,249,c),
(1036.861,249,o),
(1235,445.649,o),
(1235,691,c),
(1235,935.106,o),
(1037.106,1133,o),
(793,1133,c),
(759.863,1133,o),
(733,1106.137,o),
(733,1073,c),
(733,1039.863,o),
(759.863,1013,o),
(793,1013,c)
);
}
);
width = 1285;
},
{
layerId = "FF87E3F2-B049-41CB-BF2F-09DB15105515";
shapes = (
{
ref = C;
},
{
closed = 1;
nodes = (
(716,825,o),
(746,855,o),
(746,892,cs),
(746,929,o),
(716,958,o),
(679,958,cs),
(643,958,o),
(613,929,o),
(613,892,cs),
(613,855,o),
(643,825,o),
(679,825,cs)
);
},
{
closed = 1;
nodes = (
(969,879,o),
(1049,800,o),
(1049,701,c),
(1049,603,o),
(969,523,o),
(871,523,c),
(772,523,o),
(693,603,o),
(693,701,c),
(693,737.727,o),
(663.227,767.5,o),
(626.5,767.5,c),
(589.773,767.5,o),
(560,737.727,o),
(560,701,c),
(560,529.4,o),
(698.4,390,o),
(871,390,c),
(1042.6,390,o),
(1182,529.4,o),
(1182,701,c),
(1182,873.6,o),
(1042.6,1012,o),
(871,1012,c),
(834.273,1012,o),
(804.5,982.227,o),
(804.5,945.5,c),
(804.5,908.773,o),
(834.273,879,o),
(871,879,c)
);
}
);
width = 1270;
}
);
metricLeft = C;
metricRight = C;
},
{
color = 6;
glyphname = F_F;
kernLeft = E;
kernRight = F;
lastChange = "2022-06-05 19:17:50 +0000";
layers = (
{
layerId = m01;
shapes = (
{
ref = F;
},
{
pos = (1001,0);
ref = F;
},
{
closed = 1;
nodes = (
(907,1350,l),
(1112,1350,l),
(1112,1400,l),
(907,1400,l)
);
}
);
width = 2002;
},
{
layerId = "19FA402B-9607-46D9-AAD6-815AECBA5B6B";
shapes = (
{
ref = F;
},
{
pos = (1069,0);
ref = F;
},
{
closed = 1;
nodes = (
(928,1280,l),
(1233,1280,l),
(1233,1400,l),
(928,1400,l)
);
}
);
width = 2138;
},
{
layerId = "FF87E3F2-B049-41CB-BF2F-09DB15105515";
shapes = (
{
ref = F;
},
{
pos = (1258,0);
ref = F;
},
{
closed = 1;
nodes = (
(987,1100,l),
(1575,1100,l),
(1575,1400,l),
(987,1400,l)
);
}
);
width = 2458;
}
);
metricLeft = F;
metricRight = F;
},
{
color = 6;
glyphname = F_L;
kernLeft = E;
kernRight = L;
lastChange = "2022-06-05 19:17:50 +0000";
layers = (
{
layerId = m01;
shapes = (
{
ref = F;
},
{
pos = (1001,0);
ref = L;
},
{
closed = 1;
nodes = (
(907,1350,l),
(1112,1350,l),
(1112,1400,l),
(907,1400,l)
);
}
);
width = 2166;
},
{
layerId = "19FA402B-9607-46D9-AAD6-815AECBA5B6B";
shapes = (
{
ref = F;
},
{
pos = (1069,0);
ref = L;
},
{
closed = 1;
nodes = (
(928,1280,l),
(1233,1280,l),
(1233,1400,l),
(928,1400,l)
);
}
);
width = 2266;
},
{
layerId = "FF87E3F2-B049-41CB-BF2F-09DB15105515";
shapes = (
{
ref = F;
},
{
pos = (1258,0);
ref = L;
},
{
closed = 1;
nodes = (
(987,1100,l),
(1575,1100,l),
(1575,1400,l),
(987,1400,l)
);
}
);
width = 2498;
}
);
metricLeft = F;
metricRight = L;
},
{
color = 6;
glyphname = H_E;
kernLeft = I;
kernRight = E;
lastChange = "2022-06-05 19:17:50 +0000";
layers = (
{
layerId = m01;
shapes = (
{
closed = 1;
nodes = (
(135,382.5,l),
(135,396.307,o),
(123.807,407.5,o),
(110,407.5,c),
(96.193,407.5,o),
(85,396.307,o),
(85,382.5,c),
(85,25.5,l),
(85,11.693,o),
(96.193,0.5,o),
(110,0.5,c),
(123.807,0.5,o),
(135,11.693,o),
(135,25.5,c)
);
},
{
closed = 1;
nodes = (
(85,700,l),
(85,686.193,o),
(96.193,675,o),
(110,675,c),
(123.807,675,o),
(135,686.193,o),
(135,700,c),
(135,1374.5,l),
(135,1388.307,o),
(123.807,1399.5,o),
(110,1399.5,c),
(96.193,1399.5,o),
(85,1388.307,o),
(85,1374.5,c)
);
},
{
closed = 1;
nodes = (
(110,725,l),
(110,675,l),
(1116,675,l),
(1116,725,l)
);
},
{
closed = 1;
nodes = (
(1091,25.5,l),
(1091,11.693,o),
(1102.193,0.5,o),
(1116,0.5,c),
(1129.807,0.5,o),
(1141,11.693,o),
(1141,25.5,c),
(1141,700,l),
(1141,713.807,o),
(1129.807,725,o),
(1116,725,c),
(1102.193,725,o),
(1091,713.807,o),
(1091,700,c)
);
},
{
closed = 1;
nodes = (
(1116,50,l),
(1102.193,50,o),
(1091,38.807,o),
(1091,25,c),
(1091,11.193,o),
(1102.193,0,o),
(1116,0,c),
(1911.5,0,l),
(1925.307,0,o),
(1936.5,11.193,o),
(1936.5,25,c),
(1936.5,38.807,o),
(1925.307,50,o),
(1911.5,50,c)
);
},
{
closed = 1;
nodes = (
(1911.5,675,l),
(1925.307,675,o),
(1936.5,686.193,o),
(1936.5,700,c),
(1936.5,713.807,o),
(1925.307,725,o),
(1911.5,725,c),
(1411.5,725,l),
(1397.693,725,o),
(1386.5,713.807,o),
(1386.5,700,c),
(1386.5,686.193,o),
(1397.693,675,o),
(1411.5,675,c)
);
},
{
closed = 1;
nodes = (
(1911.5,1350,l),
(1925.307,1350,o),
(1936.5,1361.193,o),
(1936.5,1375,c),
(1936.5,1388.807,o),
(1925.307,1400,o),
(1911.5,1400,c),
(1116,1400,l),
(1102.193,1400,o),
(1091,1388.807,o),
(1091,1375,c),
(1091,1361.193,o),
(1102.193,1350,o),
(1116,1350,c)
);
}
);
width = 2007;
},
{
layerId = "19FA402B-9607-46D9-AAD6-815AECBA5B6B";
shapes = (
{
closed = 1;
nodes = (
(220,351,l),
(220,384.137,o),
(193.137,411,o),
(160,411,c),
(126.863,411,o),
(100,384.137,o),
(100,351,c),
(100,60,l),
(100,26.863,o),
(126.863,0,o),
(160,0,c),
(193.137,0,o),
(220,26.863,o),
(220,60,c)
);
},
{
closed = 1;
nodes = (
(100,700,l),
(100,666.863,o),
(126.863,640,o),
(160,640,c),
(193.137,640,o),
(220,666.863,o),
(220,700,c),
(220,1340,l),
(220,1373.137,o),
(193.137,1400,o),
(160,1400,c),
(126.863,1400,o),
(100,1373.137,o),
(100,1340,c)
);
},
{
closed = 1;
nodes = (
(160,760,l),
(160,640,l),
(1166,640,l),
(1166,760,l)
);
},
{
closed = 1;
nodes = (
(1106,60,l),
(1106,26.863,o),
(1132.863,0,o),
(1166,0,c),
(1199.137,0,o),
(1226,26.863,o),
(1226,60,c),
(1226,700,l),
(1226,733.137,o),
(1199.137,760,o),
(1166,760,c),
(1132.863,760,o),
(1106,733.137,o),
(1106,700,c)
);
},
{
closed = 1;
nodes = (
(1166,120,l),
(1132.863,120,o),
(1106,93.137,o),
(1106,60,c),
(1106,26.863,o),
(1132.863,0,o),
(1166,0,c),
(1930,0,l),
(1963.137,0,o),
(1990,26.863,o),
(1990,60,c),
(1990,93.137,o),
(1963.137,120,o),
(1930,120,c)
);
},
{
closed = 1;
nodes = (
(1930,640,l),
(1963.137,640,o),
(1990,666.863,o),
(1990,700,c),
(1990,733.137,o),
(1963.137,760,o),
(1930,760,c),
(1493,760,l),
(1459.863,760,o),
(1433,733.137,o),
(1433,700,c),
(1433,666.863,o),
(1459.863,640,o),
(1493,640,c)
);
},
{
closed = 1;
nodes = (
(1930,1280,l),
(1963.137,1280,o),
(1990,1306.863,o),
(1990,1340,c),
(1990,1373.137,o),
(1963.137,1400,o),
(1930,1400,c),
(1166,1400,l),
(1132.863,1400,o),
(1106,1373.137,o),
(1106,1340,c),
(1106,1306.863,o),
(1132.863,1280,o),
(1166,1280,c)
);
}
);
width = 2070;
},
{
layerId = "FF87E3F2-B049-41CB-BF2F-09DB15105515";
shapes = (
{
closed = 1;
nodes = (
(410,270,l),
(410,352.843,o),
(342.843,420,o),
(260,420,c),
(177.157,420,o),
(110,352.843,o),
(110,270,c),
(110,150,l),
(110,67.157,o),
(177.157,0,o),
(260,0,c),
(342.843,0,o),
(410,67.157,o),
(410,150,c)
);
},
{
closed = 1;
nodes = (
(110,700,l),
(110,617.157,o),
(177.157,550,o),
(260,550,c),
(342.843,550,o),
(410,617.157,o),
(410,700,c),
(410,1250,l),
(410,1332.843,o),
(342.843,1400,o),
(260,1400,c),
(177.157,1400,o),
(110,1332.843,o),
(110,1250,c)
);
},
{
closed = 1;
nodes = (
(260,850,l),
(260,550,l),
(1266,550,l),
(1266,850,l)
);
},
{
closed = 1;
nodes = (
(1116,150,l),
(1116,67.157,o),
(1183.157,0,o),
(1266,0,c),
(1348.843,0,o),
(1416,67.157,o),
(1416,150,c),
(1416,700,l),
(1416,782.843,o),
(1348.843,850,o),
(1266,850,c),
(1183.157,850,o),
(1116,782.843,o),
(1116,700,c)
);
},
{
closed = 1;
nodes = (
(1266,300,l),
(1183.157,300,o),
(1116,232.843,o),
(1116,150,c),
(1116,67.157,o),
(1183.157,0,o),
(1266,0,c),
(1949,0,l),
(2031.843,0,o),
(2099,67.157,o),
(2099,150,c),
(2099,232.843,o),
(2031.843,300,o),
(1949,300,c)
);
},
{
closed = 1;
nodes = (
(1949,550,l),
(2031.843,550,o),
(2099,617.157,o),
(2099,700,c),
(2099,782.843,o),
(2031.843,850,o),
(1949,850,c),
(1684,850,l),
(1601.157,850,o),
(1534,782.843,o),
(1534,700,c),
(1534,617.157,o),
(1601.157,550,o),
(1684,550,c)
);
},
{
closed = 1;
nodes = (
(1949,1100,l),
(2031.843,1100,o),
(2099,1167.157,o),
(2099,1250,c),
(2099,1332.843,o),
(2031.843,1400,o),
(1949,1400,c),
(1266,1400,l),
(1183.157,1400,o),
(1116,1332.843,o),
(1116,1250,c),
(1116,1167.157,o),
(1183.157,1100,o),
(1266,1100,c)
);
}
);
width = 2201;
}
);
metricLeft = H;
metricRight = E;
},
{
color = 6;
glyphname = L_A;
kernLeft = I;
kernRight = A;
lastChange = "2022-06-05 19:17:50 +0000";
layers = (
{
layerId = m01;
shapes = (
{
closed = 1;
nodes = (
(109.5,50,l),
(95.693,50,o),
(84.5,38.807,o),
(84.5,25,c),
(84.5,11.193,o),
(95.693,0,o),
(109.5,0,c),
(1079.5,0,l),
(1093.307,0,o),
(1104.5,11.193,o),
(1104.5,25,c),
(1104.5,38.807,o),
(1093.307,50,o),
(1079.5,50,c)
);
},
{
closed = 1;
nodes = (
(137,1374.5,l),
(137,1388.307,o),
(125.807,1399.5,o),
(112,1399.5,c),
(98.193,1399.5,o),
(87,1388.307,o),
(87,1374.5,c),
(87,402,l),
(87,388.193,o),
(98.193,377,o),
(112,377,c),
(125.807,377,o),
(137,388.193,o),
(137,402,c)
);
},
{
closed = 1;
nodes = (
(894.048,680.027,l),
(895.456,683.155,o),
(896.239,686.624,o),
(896.239,690.276,c),
(896.239,704.083,o),
(885.046,715.276,o),
(871.239,715.276,c),
(861.083,715.276,o),
(852.342,709.221,o),
(848.429,700.525,c),
(709.952,372.973,l),
(708.544,369.845,o),
(707.761,366.376,o),
(707.761,362.724,c),
(707.761,348.917,o),
(718.954,337.724,o),
(732.761,337.724,c),
(742.917,337.724,o),
(751.658,343.779,o),
(755.571,352.475,c)
);
},
{
closed = 1;
nodes = (
(1215.626,1385.685,l),
(1211.688,1394.32,o),
(1202.979,1400.322,o),
(1192.869,1400.322,c),
(1179.061,1400.322,o),
(1167.869,1389.129,o),
(1167.869,1375.322,c),
(1167.869,1371.821,o),
(1168.588,1368.489,o),
(1175.273,1352.921,c),
(1749.374,14.315,l),
(1753.312,5.68,o),
(1762.021,-0.322,o),
(1772.131,-0.322,c),
(1785.939,-0.322,o),
(1797.131,10.871,o),
(1797.131,24.678,c),
(1797.131,28.179,o),
(1796.412,31.511,o),
(1789.727,47.078,c)
);
}
);
width = 1857;
},
{
layerId = "19FA402B-9607-46D9-AAD6-815AECBA5B6B";
shapes = (
{
closed = 1;
nodes = (
(160,120,l),
(126.863,120,o),
(100,93.137,o),
(100,60,c),
(100,26.863,o),
(126.863,0,o),
(160,0,c),
(1067,0,l),
(1100.137,0,o),
(1127,26.863,o),
(1127,60,c),
(1127,93.137,o),
(1100.137,120,o),
(1067,120,c)
);
},
{
closed = 1;
nodes = (
(226,1340,l),
(226,1373.137,o),
(199.137,1400,o),
(166,1400,c),
(132.863,1400,o),
(106,1373.137,o),
(106,1340,c),
(106,402,l),
(106,368.863,o),
(132.863,342,o),
(166,342,c),
(199.137,342,o),
(226,368.863,o),
(226,402,c)
);
},
{
closed = 1;
nodes = (
(1015.716,636.666,l),
(1019.093,644.171,o),
(1020.973,652.497,o),
(1020.973,661.262,c),
(1020.973,694.4,o),
(994.11,721.262,o),
(960.973,721.262,c),
(936.6,721.262,o),
(915.622,706.731,o),
(906.23,685.859,c),
(792.284,416.334,l),
(788.907,408.829,o),
(787.027,400.503,o),
(787.027,391.738,c),
(787.027,358.6,o),
(813.89,331.738,o),
(847.027,331.738,c),
(871.4,331.738,o),
(892.378,346.269,o),
(901.77,367.141,c)
);
},
{
closed = 1;
nodes = (
(1364.889,1365.205,l),
(1355.443,1385.944,o),
(1334.535,1400.361,o),
(1310.259,1400.361,c),
(1277.121,1400.361,o),
(1250.259,1373.498,o),
(1250.259,1340.361,c),
(1250.259,1331.499,o),
(1252.18,1323.086,o),
(1255.628,1315.516,c),
(1804.111,34.795,l),
(1813.557,14.056,o),
(1834.465,-0.361,o),
(1858.741,-0.361,c),
(1891.879,-0.361,o),
(1918.741,26.502,o),
(1918.741,59.639,c),
(1918.741,68.501,o),
(1916.82,76.914,o),
(1913.372,84.484,c)
);
}
);
width = 1989;
},
{
layerId = "FF87E3F2-B049-41CB-BF2F-09DB15105515";
shapes = (
{
closed = 1;
nodes = (
(260,300,l),
(177.157,300,o),
(110,232.843,o),
(110,150,c),
(110,67.157,o),
(177.157,0,o),
(260,0,c),
(1005,0,l),
(1087.843,0,o),
(1155,67.157,o),
(1155,150,c),
(1155,232.843,o),
(1087.843,300,o),
(1005,300,c)
);
},
{
closed = 1;
nodes = (
(425,1250,l),
(425,1332.843,o),
(357.843,1400,o),
(275,1400,c),
(192.157,1400,o),
(125,1332.843,o),
(125,1250,c),
(125,602,l),
(125,519.157,o),
(192.157,452,o),
(275,452,c),
(357.843,452,o),
(425,519.157,o),
(425,602,c)
);
},
{
closed = 1;
nodes = (
(1114.492,522.349,l),
(1124.364,542.344,o),
(1129.91,564.857,o),
(1129.91,588.665,c),
(1129.91,671.509,o),
(1062.754,738.665,o),
(979.91,738.665,c),
(920.875,738.665,o),
(869.806,704.562,o),
(845.329,654.982,c),
(805.508,569.651,l),
(795.636,549.656,o),
(790.09,527.143,o),
(790.09,503.335,c),
(790.09,420.491,o),
(857.246,353.335,o),
(940.09,353.335,c),
(999.125,353.335,o),
(1050.194,387.438,o),
(1074.671,437.018,c)
);
},
{
closed = 1;
nodes = (
(1463.628,1315.845,l),
(1439.169,1365.477,o),
(1388.073,1399.623,o),
(1329,1399.623,c),
(1246.156,1399.623,o),
(1179,1332.467,o),
(1179,1249.623,c),
(1179,1225.853,o),
(1184.529,1203.374,o),
(1194.371,1183.402,c),
(1706.372,84.155,l),
(1730.831,34.523,o),
(1781.927,0.377,o),
(1841,0.377,c),
(1923.844,0.377,o),
(1991,67.533,o),
(1991,150.377,c),
(1991,174.147,o),
(1985.471,196.626,o),
(1975.629,216.598,c)
);
}
);
width = 2076;
}
);
metricLeft = L;
metricRight = A;
},
{
color = 6;
glyphname = L_I;
kernLeft = I;
kernRight = I;
lastChange = "2022-06-05 19:17:50 +0000";
layers = (
{
layerId = m01;
shapes = (
{
ref = L;
},
{
closed = 1;
nodes = (
(1100,661,l),
(1100,674.807,o),
(1088.807,686,o),
(1075,686,c),
(1061.193,686,o),
(1050,674.807,o),
(1050,661,c),
(1050,276.5,l),
(1050,262.693,o),
(1061.193,251.5,o),
(1075,251.5,c),
(1088.807,251.5,o),
(1100,262.693,o),
(1100,276.5,c)
);
},
{
closed = 1;
nodes = (
(1100,1374.5,l),
(1100,1388.307,o),
(1088.807,1399.5,o),
(1075,1399.5,c),
(1061.193,1399.5,o),
(1050,1388.307,o),
(1050,1374.5,c),
(1050,989,l),
(1050,975.193,o),
(1061.193,964,o),
(1075,964,c),
(1088.807,964,o),
(1100,975.193,o),
(1100,989,c)
);
}
);
width = 1190;
},
{
layerId = "19FA402B-9607-46D9-AAD6-815AECBA5B6B";
shapes = (
{
ref = L;
},
{
closed = 1;
nodes = (
(1127,686,l),
(1127,719.137,o),
(1100.137,746,o),
(1067,746,c),
(1033.863,746,o),
(1007,719.137,o),
(1007,686,c),
(1007,349,l),
(1007,315.863,o),
(1033.863,289,o),
(1067,289,c),
(1100.137,289,o),
(1127,315.863,o),
(1127,349,c)
);
},
{
closed = 1;
nodes = (
(1127,1340,l),
(1127,1373.137,o),
(1100.137,1400,o),
(1067,1400,c),
(1033.863,1400,o),
(1007,1373.137,o),
(1007,1340,c),
(1007,1002,l),
(1007,968.863,o),
(1033.863,942,o),
(1067,942,c),
(1100.137,942,o),
(1127,968.863,o),
(1127,1002,c)
);
}
);
width = 1227;
},
{
layerId = "FF87E3F2-B049-41CB-BF2F-09DB15105515";
shapes = (
{
ref = L;
},
{
closed = 1;
nodes = (
(1195,691,l),
(1195,773.843,o),
(1127.843,841,o),
(1045,841,c),
(962.157,841,o),
(895,773.843,o),
(895,691,c),
(895,589,l),
(895,506.157,o),
(962.157,439,o),
(1045,439,c),
(1127.843,439,o),
(1195,506.157,o),
(1195,589,c)
);
},
{
closed = 1;
nodes = (
(1195,1250,l),
(1195,1332.843,o),
(1127.843,1400,o),
(1045,1400,c),
(962.157,1400,o),
(895,1332.843,o),
(895,1250,c),
(895,1147,l),
(895,1064.157,o),
(962.157,997,o),
(1045,997,c),
(1127.843,997,o),
(1195,1064.157,o),
(1195,1147,c)
);
}
);
width = 1305;
}
);
metricLeft = L;
metricRight = I;
},
{
color = 6;
glyphname = L_N;
kernLeft = I;
kernRight = I;
lastChange = "2022-06-05 19:17:50 +0000";
layers = (
{
layerId = m01;
shapes = (
{
ref = L;
},
{
closed = 1;
nodes = (
(1100,1374.5,l),
(1100,1388.307,o),
(1088.807,1399.5,o),
(1075,1399.5,c),
(1061.193,1399.5,o),
(1050,1388.307,o),
(1050,1374.5,c),
(1050,275.5,l),
(1050,261.693,o),
(1061.193,250.5,o),
(1075,250.5,c),
(1088.807,250.5,o),
(1100,261.693,o),
(1100,275.5,c)
);
},
{
closed = 1;
nodes = (
(2216.985,11.02,l),
(2257.015,40.98,l),
(1528.015,1014.981,l),
(1523.456,1021.064,o),
(1516.188,1025,o),
(1508,1025,c),
(1494.193,1025,o),
(1483,1013.807,o),
(1483,1000,c),
(1483,994.38,o),
(1484.854,989.194,o),
(1487.985,985.019,c)
);
},
{
closed = 1;
nodes = (
(2263,1374.5,l),
(2263,1388.307,o),
(2251.807,1399.5,o),
(2238,1399.5,c),
(2224.193,1399.5,o),
(2213,1388.307,o),
(2213,1374.5,c),
(2213,25.5,l),
(2213,11.693,o),
(2224.193,0.5,o),
(2238,0.5,c),
(2251.807,0.5,o),
(2263,11.693,o),
(2263,25.5,c)
);
}
);
width = 2348;
},
{
layerId = "19FA402B-9607-46D9-AAD6-815AECBA5B6B";
shapes = (
{
ref = L;
},
{
closed = 1;
nodes = (
(1127,1340,l),
(1127,1373.137,o),
(1100.137,1400,o),
(1067,1400,c),
(1033.863,1400,o),
(1007,1373.137,o),
(1007,1340,c),
(1007,350,l),
(1007,316.863,o),
(1033.863,290,o),
(1067,290,c),
(1100.137,290,o),
(1127,316.863,o),
(1127,350,c)
);
},
{
closed = 1;
nodes = (
(2113.749,21.337,l),
(2210.251,92.663,l),
(1513.252,1035.665,l),
(1502.324,1050.429,o),
(1484.78,1060,o),
(1465,1060,c),
(1431.863,1060,o),
(1405,1033.137,o),
(1405,1000,c),
(1405,986.642,o),
(1409.365,974.304,o),
(1416.748,964.335,c)
);
},
{
closed = 1;
nodes = (
(2220,1340,l),
(2220,1373.137,o),
(2193.137,1400,o),
(2160,1400,c),
(2126.863,1400,o),
(2100,1373.137,o),
(2100,1340,c),
(2100,60,l),
(2100,26.863,o),
(2126.863,0,o),
(2160,0,c),
(2193.137,0,o),
(2220,26.863,o),
(2220,60,c)
);
}
);
width = 2320;
},
{
layerId = "FF87E3F2-B049-41CB-BF2F-09DB15105515";
shapes = (
{
alignment = -1;
ref = L;
},
{
closed = 1;
nodes = (
(1195,1250,l),
(1195,1332.843,o),
(1127.843,1400,o),
(1045,1400,c),
(962.157,1400,o),
(895,1332.843,o),
(895,1250,c),
(895,590,l),
(895,507.157,o),
(962.157,440,o),
(1045,440,c),
(1127.843,440,o),
(1195,507.157,o),
(1195,590,c)
);
},
{
closed = 1;
nodes = (
(1938.232,37.96,l),
(2161.768,238.04,l),
(1598.768,867.041,l),
(1571.304,897.705,o),
(1531.406,917,o),
(1487,917,c),
(1404.157,917,o),
(1337,849.843,o),
(1337,767,c),
(1337,728.562,o),
(1351.457,693.501,o),
(1375.232,666.959,c)
);
},
{
closed = 1;
nodes = (
(2188,1250,l),
(2188,1332.843,o),
(2120.843,1400,o),
(2038,1400,c),
(1955.157,1400,o),
(1888,1332.843,o),
(1888,1250,c),
(1888,150,l),
(1888,67.157,o),
(1955.157,0,o),
(2038,0,c),
(2120.843,0,o),
(2188,67.157,o),
(2188,150,c)
);
}
);
width = 2298;
}
);
metricLeft = L;
metricRight = N;
},
{
color = 6;
glyphname = T_E;
kernLeft = T;
kernRight = E;
lastChange = "2022-06-05 19:17:50 +0000";
layers = (
{
layerId = m01;
shapes = (
{
ref = T;
},
{
alignment = -1;
pos = (1030,0);
ref = E;
},
{
closed = 1;
nodes = (
(1114,1350,l),
(1164,1350,l),
(1164,1400,l),
(1114,1400,l)
);
}
);
width = 2031;
},
{
layerId = "19FA402B-9607-46D9-AAD6-815AECBA5B6B";
shapes = (
{
ref = T;
},
{
alignment = -1;
pos = (1030,0);
ref = E;
},
{
closed = 1;
nodes = (
(1120,1280,l),
(1190,1280,l),
(1190,1400,l),
(1120,1400,l)
);
}
);
width = 2094;
},
{
layerId = "FF87E3F2-B049-41CB-BF2F-09DB15105515";
shapes = (
{
ref = T;
},
{
alignment = -1;
pos = (1118,0);
ref = E;
},
{
closed = 1;
nodes = (
(1123,1100,l),
(1415,1100,l),
(1415,1400,l),
(1123,1400,l)
);
}
);
width = 2313;
}
);
metricLeft = T;
metricRight = E;
},
{
color = 6;
glyphname = T_T;
kernLeft = T;
kernRight = T;
lastChange = "2022-06-05 19:17:50 +0000";
layers = (
{
layerId = m01;
shapes = (
{
ref = T;
},
{
alignment = -1;
pos = (1053,0);
ref = T;
},
{
closed = 1;
nodes = (
(1113,1350,l),
(1163,1350,l),
(1163,1400,l),
(1113,1400,l)
);
}
);
width = 2276;
},
{
layerId = "19FA402B-9607-46D9-AAD6-815AECBA5B6B";
shapes = (
{
ref = T;
},
{
alignment = -1;
pos = (1053,0);
ref = T;
},
{
closed = 1;
nodes = (
(1121,1280,l),
(1183,1280,l),
(1183,1400,l),
(1121,1400,l)
);
}
);
width = 2303;
},
{
layerId = "FF87E3F2-B049-41CB-BF2F-09DB15105515";
shapes = (
{
ref = T;
},
{
alignment = -1;
pos = (1168,0);
ref = T;
},
{
closed = 1;
nodes = (
(1117,1100,l),
(1418,1100,l),
(1418,1400,l),
(1117,1400,l)
);
}
);
width = 2506;
}
);
metricLeft = T;
metricRight = T;
},
{
color = 5;
glyphname = fi;
kernLeft = E;
kernRight = I;
lastChange = "2022-06-05 19:17:50 +0000";
layers = (
{
anchors = (
{
name = caret_1;
pos = (623,0);
}
);
layerId = m01;
shapes = (
{
closed = 1;
nodes = (
(85,25,l),
(85,11.193,o),
(96.193,0,o),
(110,0,c),
(123.807,0,o),
(135,11.193,o),
(135,25,c),
(135,700,l),
(85,700,l)
);
},
{
closed = 1;
nodes = (
(110,725,l),
(96.193,725,o),
(85,713.807,o),
(85,700,c),
(85,686.193,o),
(96.193,675,o),
(110,675,c),
(813.5,675,l),
(827.307,675,o),
(838.5,686.193,o),
(838.5,700,c),
(838.5,713.807,o),
(827.307,725,o),
(813.5,725,c)
);
},
{
closed = 1;
nodes = (
(1161,500,l),
(1161,513.807,o),
(1149.807,525,o),
(1136,525,c),
(1122.193,525,o),
(1111,513.807,o),
(1111,500,c),
(1111,25.5,l),
(1111,11.693,o),
(1122.193,0.5,o),
(1136,0.5,c),
(1149.807,0.5,o),
(1161,11.693,o),
(1161,25.5,c)
);
},
{
closed = 1;
nodes = (
(1137,1350,l),
(1137,1400,l),
(110,1400,l),
(96.193,1400,o),
(85,1388.807,o),
(85,1375,c),
(85,1361.193,o),
(96.193,1350,o),
(110,1350,c)
);
},
{
closed = 1;
nodes = (
(1161,1374.5,l),
(1161,1388.307,o),
(1149.807,1399.5,o),
(1136,1399.5,c),
(1122.193,1399.5,o),
(1111,1388.307,o),
(1111,1374.5,c),
(1111,900,l),
(1111,886.193,o),
(1122.193,875,o),
(1136,875,c),
(1149.807,875,o),
(1161,886.193,o),
(1161,900,c)
);
}
);
width = 1246;
},
{
anchors = (
{
name = caret_1;
pos = (679.5,0);
}
);
layerId = "19FA402B-9607-46D9-AAD6-815AECBA5B6B";
shapes = (
{
closed = 1;
nodes = (
(100,60,l),
(100,26.863,o),
(126.863,0,o),
(160,0,c),
(193.137,0,o),
(220,26.863,o),
(220,60,c),
(220,700,l),
(100,700,l)
);
},
{
closed = 1;
nodes = (
(160,760,l),
(126.863,760,o),
(100,733.137,o),
(100,700,c),
(100,666.863,o),
(126.863,640,o),
(160,640,c),
(829,640,l),
(862.137,640,o),
(889,666.863,o),
(889,700,c),
(889,733.137,o),
(862.137,760,o),
(829,760,c)
);
},
{
closed = 1;
nodes = (
(1259,500,l),
(1259,533.137,o),
(1232.137,560,o),
(1199,560,c),
(1165.863,560,o),
(1139,533.137,o),
(1139,500,c),
(1139,60,l),
(1139,26.863,o),
(1165.863,0,o),
(1199,0,c),
(1232.137,0,o),
(1259,26.863,o),
(1259,60,c)
);
},
{
closed = 1;
nodes = (
(1199,1280,l),
(1199,1400,l),
(160,1400,l),
(126.863,1400,o),
(100,1373.137,o),
(100,1340,c),
(100,1306.863,o),
(126.863,1280,o),
(160,1280,c)
);
},
{
closed = 1;
nodes = (
(1259,1340,l),
(1259,1373.137,o),
(1232.137,1400,o),
(1199,1400,c),
(1165.863,1400,o),
(1139,1373.137,o),
(1139,1340,c),
(1139,900,l),
(1139,866.863,o),
(1165.863,840,o),
(1199,840,c),
(1232.137,840,o),
(1259,866.863,o),
(1259,900,c)
);
}
);
width = 1359;
},
{
anchors = (
{
name = caret_1;
pos = (889,0);
}
);
layerId = "FF87E3F2-B049-41CB-BF2F-09DB15105515";
shapes = (
{
closed = 1;
nodes = (
(110,150,l),
(110,67.157,o),
(177.157,0,o),
(260,0,c),
(342.843,0,o),
(410,67.157,o),
(410,150,c),
(410,710,l),
(110,710,l)
);
},
{
closed = 1;
nodes = (
(260,850,l),
(177.157,850,o),
(110,782.843,o),
(110,700,c),
(110,617.157,o),
(177.157,550,o),
(260,550,c),
(848,550,l),
(930.843,550,o),
(998,617.157,o),
(998,700,c),
(998,782.843,o),
(930.843,850,o),
(848,850,c)
);
},
{
closed = 1;
nodes = (
(1668,440,l),
(1668,522.843,o),
(1600.843,590,o),
(1518,590,c),
(1435.157,590,o),
(1368,522.843,o),
(1368,440,c),
(1368,141,l),
(1368,58.157,o),
(1435.157,-9,o),
(1518,-9,c),
(1600.843,-9,o),
(1668,58.157,o),
(1668,141,c)
);
},
{
closed = 1;
nodes = (
(1513,1100,l),
(1513,1400,l),
(260,1400,l),
(177.157,1400,o),
(110,1332.843,o),
(110,1250,c),
(110,1167.157,o),
(177.157,1100,o),
(260,1100,c)
);
},
{
closed = 1;
nodes = (
(1668,1250,l),
(1668,1332.843,o),
(1600.843,1400,o),
(1518,1400,c),
(1435.157,1400,o),
(1368,1332.843,o),
(1368,1250,c),
(1368,960,l),
(1368,877.157,o),
(1435.157,810,o),
(1518,810,c),
(1600.843,810,o),
(1668,877.157,o),
(1668,960,c)
);
}
);
width = 1778;
}
);
metricLeft = F;
metricRight = I;
unicode = 64257;
},
{
color = 5;
glyphname = fl;
kernLeft = E;
kernRight = L;
lastChange = "2022-06-05 19:17:50 +0000";
layers = (
{
anchors = (
{
name = caret_1;
pos = (1083,0);
}
);
layerId = m01;
shapes = (
{
closed = 1;
nodes = (
(85,25,l),
(85,11.193,o),
(96.193,0,o),
(110,0,c),
(123.807,0,o),
(135,11.193,o),
(135,25,c),
(135,700,l),
(85,700,l)
);
},
{
closed = 1;
nodes = (
(110,725,l),
(96.193,725,o),
(85,713.807,o),
(85,700,c),
(85,686.193,o),
(96.193,675,o),
(110,675,c),
(813.5,675,l),
(827.307,675,o),
(838.5,686.193,o),
(838.5,700,c),
(838.5,713.807,o),
(827.307,725,o),
(813.5,725,c)
);
},
{
closed = 1;
nodes = (
(1135.5,54,l),
(1121.693,54,o),
(1110.5,42.807,o),
(1110.5,29,c),
(1110.5,15.193,o),
(1121.693,4,o),
(1135.5,4,c),
(2105.5,4,l),
(2119.307,4,o),
(2130.5,15.193,o),
(2130.5,29,c),
(2130.5,42.807,o),
(2119.307,54,o),
(2105.5,54,c)
);
},
{
closed = 1;
nodes = (
(1139,1350,l),
(1139,1400,l),
(110,1400,l),
(96.193,1400,o),
(85,1388.807,o),
(85,1375,c),
(85,1361.193,o),
(96.193,1350,o),
(110,1350,c)
);
},
{
closed = 1;
nodes = (
(1163,1374.5,l),
(1163,1388.307,o),
(1151.807,1399.5,o),
(1138,1399.5,c),
(1124.193,1399.5,o),
(1113,1388.307,o),
(1113,1374.5,c),
(1113,402,l),
(1113,388.193,o),
(1124.193,377,o),
(1138,377,c),
(1151.807,377,o),
(1163,388.193,o),
(1163,402,c)
);
}
);
width = 2191;
},
{
anchors = (
{
name = caret_1;
pos = (1118,0);
}
);
layerId = "19FA402B-9607-46D9-AAD6-815AECBA5B6B";
shapes = (
{
closed = 1;
nodes = (
(100,60,l),
(100,26.863,o),
(126.863,0,o),
(160,0,c),
(193.137,0,o),
(220,26.863,o),
(220,60,c),
(220,700,l),
(100,700,l)
);
},
{
closed = 1;
nodes = (
(160,760,l),
(126.863,760,o),
(100,733.137,o),
(100,700,c),
(100,666.863,o),
(126.863,640,o),
(160,640,c),
(829,640,l),
(862.137,640,o),
(889,666.863,o),
(889,700,c),
(889,733.137,o),
(862.137,760,o),
(829,760,c)
);
},
{
closed = 1;
nodes = (
(1199,124,l),
(1165.863,124,o),
(1139,97.137,o),
(1139,64,c),
(1139,30.863,o),
(1165.863,4,o),
(1199,4,c),
(2106,4,l),
(2139.137,4,o),
(2166,30.863,o),
(2166,64,c),
(2166,97.137,o),
(2139.137,124,o),
(2106,124,c)
);
},
{
closed = 1;
nodes = (
(1204,1280,l),
(1204,1400,l),
(160,1400,l),
(126.863,1400,o),
(100,1373.137,o),
(100,1340,c),
(100,1306.863,o),
(126.863,1280,o),
(160,1280,c)
);
},
{
closed = 1;
nodes = (
(1265,1340,l),
(1265,1373.137,o),
(1238.137,1400,o),
(1205,1400,c),
(1171.863,1400,o),
(1145,1373.137,o),
(1145,1340,c),
(1145,402,l),
(1145,368.863,o),
(1171.863,342,o),
(1205,342,c),
(1238.137,342,o),
(1265,368.863,o),
(1265,402,c)
);
}
);
width = 2236;
},
{
anchors = (
{
name = caret_1;
pos = (1237,0);
}
);
layerId = "FF87E3F2-B049-41CB-BF2F-09DB15105515";
shapes = (
{
closed = 1;
nodes = (
(110,150,l),
(110,67.157,o),
(177.157,0,o),
(260,0,c),
(342.843,0,o),
(410,67.157,o),
(410,150,c),
(410,710,l),
(110,710,l)
);
},
{
closed = 1;
nodes = (
(260,850,l),
(177.157,850,o),
(110,782.843,o),
(110,700,c),
(110,617.157,o),
(177.157,550,o),
(260,550,c),
(848,550,l),
(930.843,550,o),
(998,617.157,o),
(998,700,c),
(998,782.843,o),
(930.843,850,o),
(848,850,c)
);
},
{
closed = 1;
nodes = (
(1518,304,l),
(1435.157,304,o),
(1368,236.843,o),
(1368,154,c),
(1368,71.157,o),
(1435.157,4,o),
(1518,4,c),
(2263,4,l),
(2345.843,4,o),
(2413,71.157,o),
(2413,154,c),
(2413,236.843,o),
(2345.843,304,o),
(2263,304,c)
);
},
{
closed = 1;
nodes = (
(1533,1100,l),
(1533,1400,l),
(260,1400,l),
(177.157,1400,o),
(110,1332.843,o),
(110,1250,c),
(110,1167.157,o),
(177.157,1100,o),
(260,1100,c)
);
},
{
closed = 1;
nodes = (
(1683,1250,l),
(1683,1332.843,o),
(1615.843,1400,o),
(1533,1400,c),
(1450.157,1400,o),
(1383,1332.843,o),
(1383,1250,c),
(1383,602,l),
(1383,519.157,o),
(1450.157,452,o),
(1533,452,c),
(1615.843,452,o),
(1683,519.157,o),
(1683,602,c)
);
}
);
width = 2498;
}
);
metricLeft = F;
metricRight = L;
unicode = 64258;
},
{
color = 8;
glyphname = ordfeminine;
lastChange = "2022-06-05 19:17:50 +0000";
layers = (
{
layerId = m01;
shapes = (
{
closed = 1;
nodes = (
(209.976,1090.996,l),
(211.398,1094.137,o),
(212.19,1097.624,o),
(212.19,1101.297,c),
(212.19,1115.104,o),
(200.997,1126.297,o),
(187.19,1126.297,c),
(177.055,1126.297,o),
(168.329,1120.266,o),
(164.404,1111.597,c),
(62.024,871.004,l),
(60.602,867.863,o),
(59.81,864.376,o),
(59.81,860.703,c),
(59.81,846.896,o),
(71.003,835.703,o),
(84.81,835.703,c),
(94.945,835.703,o),
(103.671,841.734,o),
(107.596,850.403,c)
);
},
{
closed = 1;
nodes = (
(348.635,1385.711,l),
(344.692,1394.336,o),
(335.989,1400.329,o),
(325.886,1400.329,c),
(312.078,1400.329,o),
(300.886,1389.136,o),
(300.886,1375.329,c),
(300.886,1371.625,o),
(301.691,1368.109,o),
(303.136,1364.947,c),
(524.365,850.289,l),
(528.308,841.664,o),
(537.011,835.671,o),
(547.114,835.671,c),
(560.922,835.671,o),
(572.114,846.864,o),
(572.114,860.671,c),
(572.114,864.375,o),
(571.309,867.891,o),
(569.864,871.053,c)
);
}
);
width = 632;
},
{
layerId = "19FA402B-9607-46D9-AAD6-815AECBA5B6B";
shapes = (
{
closed = 1;
nodes = (
(261.67,1043.646,l),
(265.057,1051.16,o),
(266.942,1059.498,o),
(266.942,1068.275,c),
(266.942,1101.412,o),
(240.08,1128.275,o),
(206.942,1128.275,c),
(182.582,1128.275,o),
(161.613,1113.759,o),
(152.214,1092.904,c),
(75.33,911.354,l),
(71.943,903.84,o),
(70.058,895.502,o),
(70.058,886.725,c),
(70.058,853.588,o),
(96.92,826.725,o),
(130.058,826.725,c),
(154.418,826.725,o),
(175.387,841.241,o),
(184.786,862.096,c)
);
},
{
closed = 1;
nodes = (
(426.896,1365.225,l),
(417.447,1385.956,o),
(396.542,1400.366,o),
(372.272,1400.366,c),
(339.134,1400.366,o),
(312.272,1373.504,o),
(312.272,1340.366,c),
(312.272,1331.499,o),
(314.195,1323.082,o),
(317.647,1315.508,c),
(512.104,861.775,l),
(521.553,841.044,o),
(542.458,826.634,o),
(566.728,826.634,c),
(599.866,826.634,o),
(626.728,853.496,o),
(626.728,886.634,c),
(626.728,895.501,o),
(624.805,903.918,o),
(621.353,911.492,c)
);
}
);
width = 697;
},
{
layerId = "FF87E3F2-B049-41CB-BF2F-09DB15105515";
shapes = (
{
closed = 1;
nodes = (
(418.076,834.578,l),
(427.822,854.471,o),
(433.294,876.84,o),
(433.294,900.487,c),
(433.294,983.331,o),
(366.137,1050.487,o),
(283.294,1050.487,c),
(224.097,1050.487,o),
(172.91,1016.197,o),
(148.512,966.396,c),
(99.924,861.422,l),
(90.178,841.529,o),
(84.706,819.16,o),
(84.706,795.513,c),
(84.706,712.669,o),
(151.863,645.513,o),
(234.706,645.513,c),
(293.903,645.513,o),
(345.09,679.803,o),
(369.488,729.604,c)
);
},
{
closed = 1;
nodes = (
(621.051,1331.165,l),
(594.824,1374.814,o),
(547.015,1404.019,o),
(492.384,1404.019,c),
(409.54,1404.019,o),
(342.384,1336.863,o),
(342.384,1254.019,c),
(342.384,1225.807,o),
(350.172,1199.414,o),
(363.716,1176.874,c),
(622.949,726.835,l),
(649.176,683.185,o),
(696.985,653.981,o),
(751.616,653.981,c),
(834.46,653.981,o),
(901.616,721.137,o),
(901.616,803.981,c),
(901.616,832.193,o),
(893.828,858.585,o),
(880.284,881.126,c)
);
}
);
width = 987;
}
);
metricLeft = A;
metricRight = A;
unicode = 170;
},
{
color = 8;
glyphname = ordmasculine;
lastChange = "2022-06-05 19:17:50 +0000";
layers = (
{
layerId = m01;
shapes = (
{
closed = 1;
nodes = (
(186,1263,o),
(197,1274,o),
(197,1288,cs),
(197,1302,o),
(186,1313,o),
(172,1313,cs),
(158,1313,o),
(147,1302,o),
(147,1288,cs),
(147,1274,o),
(158,1263,o),
(172,1263,cs)
);
},
{
closed = 1;
nodes = (
(514,1350,o),
(630,1234,o),
(630,1090,c),
(630,946,o),
(514,830,o),
(370,830,c),
(226,830,o),
(110,946,o),
(110,1090,c),
(110,1103.807,o),
(98.807,1115,o),
(85,1115,c),
(71.193,1115,o),
(60,1103.807,o),
(60,1090,c),
(60,918.489,o),
(198.489,780,o),
(370,780,c),
(541.511,780,o),
(680,918.489,o),
(680,1090,c),
(680,1261.511,o),
(541.511,1400,o),
(370,1400,c),
(356.193,1400,o),
(345,1388.807,o),
(345,1375,c),
(345,1361.193,o),
(356.193,1350,o),
(370,1350,c)
);
}
);
width = 740;
},
{
layerId = "19FA402B-9607-46D9-AAD6-815AECBA5B6B";
shapes = (
{
closed = 1;
nodes = (
(185,1259,o),
(212,1286,o),
(212,1318,cs),
(212,1351,o),
(185,1378,o),
(153,1378,cs),
(120,1378,o),
(93,1351,o),
(93,1318,cs),
(93,1286,o),
(120,1259,o),
(153,1259,cs)
);
},
{
closed = 1;
nodes = (
(440,1280,o),
(511,1208,o),
(511,1119,c),
(511,1030,o),
(440,959,o),
(351,959,c),
(262,959,o),
(190,1030,o),
(190,1119,c),
(190,1152.137,o),
(163.137,1179,o),
(130,1179,c),
(96.863,1179,o),
(70,1152.137,o),
(70,1119,c),
(70,963.8,o),
(195.8,839,o),
(351,839,c),
(506.2,839,o),
(631,963.8,o),
(631,1119,c),
(631,1274.2,o),
(506.2,1400,o),
(351,1400,c),
(317.863,1400,o),
(291,1373.137,o),
(291,1340,c),
(291,1306.863,o),
(317.863,1280,o),
(351,1280,c)
);
}
);
width = 701;
},
{
layerId = "FF87E3F2-B049-41CB-BF2F-09DB15105515";
shapes = (
{
closed = 1;
nodes = (
(250,1195,o),
(287,1230,o),
(287,1276,cs),
(287,1321,o),
(250,1358,o),
(206,1358,cs),
(161,1358,o),
(124,1321,o),
(124,1276,cs),
(124,1230,o),
(161,1195,o),
(206,1195,cs)
);
},
{
closed = 1;
nodes = (
(499,1097,o),
(533,1064,o),
(533,1023,c),
(533,983,o),
(499,949,o),
(459,949,c),
(419,949,o),
(385,983,o),
(385,1023,c),
(385,1105.843,o),
(317.843,1173,o),
(235,1173,c),
(152.157,1173,o),
(85,1105.843,o),
(85,1023,c),
(85,817.4,o),
(253.4,649,o),
(459,649,c),
(664.6,649,o),
(833,817.4,o),
(833,1023,c),
(833,1229.6,o),
(664.6,1397,o),
(459,1397,c),
(376.157,1397,o),
(309,1329.843,o),
(309,1247,c),
(309,1164.157,o),
(376.157,1097,o),
(459,1097,c)
);
}
);
width = 918;
}
);
metricLeft = A;
metricRight = A;
unicode = 186;
},
{
color = 1;
glyphname = zero;
lastChange = "2022-06-03 22:35:53 +0000";
layers = (
{
layerId = m01;
shapes = (
{
closed = 1;
nodes = (
(644,307,l),
(644,165,o),
(529,50,o),
(387,50,c),
(245,50,o),
(130,165,o),
(130,307,c),
(130,320.807,o),
(118.807,332,o),
(105,332,c),
(91.193,332,o),
(80,320.807,o),
(80,307,c),
(80,137.489,o),
(217.489,0,o),
(387,0,c),
(556.511,0,o),
(694,137.489,o),
(694,307,c),
(694,588,l),
(694,601.807,o),
(682.807,613,o),
(669,613,c),
(655.193,613,o),
(644,601.807,o),
(644,588,c)
);
},
{
closed = 1;
nodes = (
(205.132,608.802,l),
(198.42,604.321,o),
(194,596.676,o),
(194,588,c),
(194,574.193,o),
(205.193,563,o),
(219,563,c),
(224.131,563,o),
(228.9,564.546,o),
(232.868,567.198,c),
(568.868,791.198,l),
(575.58,795.679,o),
(580,803.323,o),
(580,812,c),
(580,825.807,o),
(568.807,837,o),
(555,837,c),
(549.869,837,o),
(545.1,835.454,o),
(541.132,832.802,c)
);
},
{
closed = 1;
nodes = (
(130,1093,l),
(130,1235,o),
(245,1350,o),
(387,1350,c),
(529,1350,o),
(644,1235,o),
(644,1093,c),
(644,1079.193,o),
(655.193,1068,o),
(669,1068,c),
(682.807,1068,o),
(694,1079.193,o),
(694,1093,c),
(694,1262.511,o),
(556.511,1400,o),
(387,1400,c),
(217.489,1400,o),
(80,1262.511,o),
(80,1093,c),
(80,812,l),
(80,798.193,o),
(91.193,787,o),
(105,787,c),
(118.807,787,o),
(130,798.193,o),
(130,812,c)
);
}
);
width = 774;
},
{
layerId = "19FA402B-9607-46D9-AAD6-815AECBA5B6B";
shapes = (
{
closed = 1;
nodes = (
(676,352,l),
(676,226,o),
(574,124,o),
(448,124,c),
(322,124,o),
(220,226,o),
(220,352,c),
(220,385.137,o),
(193.137,412,o),
(160,412,c),
(126.863,412,o),
(100,385.137,o),
(100,352,c),
(100,159.894,o),
(255.894,4,o),
(448,4,c),
(640.106,4,o),
(796,159.894,o),
(796,352,c),
(796,601,l),
(796,634.137,o),
(769.137,661,o),
(736,661,c),
(702.863,661,o),
(676,634.137,o),
(676,601,c)
);
},
{
closed = 1;
nodes = (
(265.794,650.977,l),
(249.642,640.228,o),
(239,621.857,o),
(239,601,c),
(239,567.863,o),
(265.863,541,o),
(299,541,c),
(311.28,541,o),
(322.699,544.689,o),
(332.206,551.023,c),
(630.206,749.023,l),
(646.358,759.772,o),
(657,778.143,o),
(657,799,c),
(657,832.137,o),
(630.137,859,o),
(597,859,c),
(584.72,859,o),
(573.301,855.311,o),
(563.794,848.977,c)
);
},
{
closed = 1;
nodes = (
(220,1048,l),
(220,1174,o),
(322,1276,o),
(448,1276,c),
(574,1276,o),
(676,1174,o),
(676,1048,c),
(676,1014.863,o),
(702.863,988,o),
(736,988,c),
(769.137,988,o),
(796,1014.863,o),
(796,1048,c),
(796,1240.106,o),
(640.106,1396,o),
(448,1396,c),
(255.894,1396,o),
(100,1240.106,o),
(100,1048,c),
(100,799,l),
(100,765.863,o),
(126.863,739,o),
(160,739,c),
(193.137,739,o),
(220,765.863,o),
(220,799,c)
);
}
);
width = 896;
},
{
layerId = "FF87E3F2-B049-41CB-BF2F-09DB15105515";
shapes = (
{
closed = 1;
nodes = (
(707,449,l),
(707,361,o),
(636,290,o),
(549,290,c),
(462,290,o),
(391,361,o),
(391,449,c),
(391,531.843,o),
(323.843,599,o),
(241,599,c),
(158.157,599,o),
(91,531.843,o),
(91,449,c),
(91,195.4,o),
(296.4,-10,o),
(549,-10,c),
(801.6,-10,o),
(1007,195.4,o),
(1007,449,c),
(1007,461,l),
(1007,543.843,o),
(939.843,611,o),
(857,611,c),
(774.157,611,o),
(707,543.843,o),
(707,461,c)
);
},
{
closed = 1;
nodes = (
(435.198,820.533,l),
(375.271,800.889,o),
(332,744.498,o),
(332,678,c),
(332,595.157,o),
(399.157,528,o),
(482,528,c),
(498.345,528,o),
(514.08,530.614,o),
(528.802,535.467,c),
(662.802,579.467,l),
(722.729,599.111,o),
(766,655.502,o),
(766,722,c),
(766,804.843,o),
(698.843,872,o),
(616,872,c),
(599.655,872,o),
(583.92,869.386,o),
(569.198,864.533,c)
);
},
{
closed = 1;
nodes = (
(391,951,l),
(391,1039,o),
(462,1110,o),
(549,1110,c),
(636,1110,o),
(707,1039,o),
(707,951,c),
(707,868.157,o),
(774.157,801,o),
(857,801,c),
(939.843,801,o),
(1007,868.157,o),
(1007,951,c),
(1007,1204.6,o),
(801.6,1410,o),
(549,1410,c),
(296.4,1410,o),
(91,1204.6,o),
(91,951,c),
(91,939,l),
(91,856.157,o),
(158.157,789,o),
(241,789,c),
(323.843,789,o),
(391,856.157,o),
(391,939,c)
);
}
);
width = 1098;
}
);
unicode = 48;
},
{
color = 1;
glyphname = one;
lastChange = "2022-06-01 20:42:43 +0000";
layers = (
{
layerId = m01;
shapes = (
{
closed = 1;
nodes = (
(497,440,l),
(497,453.807,o),
(485.807,465,o),
(472,465,c),
(458.193,465,o),
(447,453.807,o),
(447,440,c),
(447,25.5,l),
(447,11.693,o),
(458.193,0.5,o),
(472,0.5,c),
(485.807,0.5,o),
(497,11.693,o),
(497,25.5,c)
);
},
{
closed = 1;
nodes = (
(159.447,1157.573,l),
(153.69,1152.994,o),
(150,1145.928,o),
(150,1138,c),
(150,1124.193,o),
(161.193,1113,o),
(175,1113,c),
(180.879,1113,o),
(186.285,1115.029,o),
(190.553,1118.427,c),
(487.553,1354.427,l),
(493.31,1359.006,o),
(497,1366.072,o),
(497,1374,c),
(497,1387.807,o),
(485.807,1399,o),
(472,1399,c),
(466.121,1399,o),
(460.715,1396.971,o),
(456.447,1393.573,c)
);
},
{
closed = 1;
nodes = (
(497,1374.5,l),
(497,1388.307,o),
(485.807,1399.5,o),
(472,1399.5,c),
(458.193,1399.5,o),
(447,1388.307,o),
(447,1374.5,c),
(447,840,l),
(447,826.193,o),
(458.193,815,o),
(472,815,c),
(485.807,815,o),
(497,826.193,o),
(497,840,c)
);
}
);
width = 774;
},
{
layerId = "19FA402B-9607-46D9-AAD6-815AECBA5B6B";
shapes = (
{
closed = 1;
nodes = (
(588,440,l),
(588,473.137,o),
(561.137,500,o),
(528,500,c),
(494.863,500,o),
(468,473.137,o),
(468,440,c),
(468,60,l),
(468,26.863,o),
(494.863,0,o),
(528,0,c),
(561.137,0,o),
(588,26.863,o),
(588,60,c)
);
},
{
closed = 1;
nodes = (
(197.028,1187.459,l),
(181.306,1176.644,o),
(171,1158.526,o),
(171,1138,c),
(171,1104.863,o),
(197.863,1078,o),
(231,1078,c),
(243.612,1078,o),
(255.315,1081.891,o),
(264.972,1088.541,c),
(561.972,1292.541,l),
(577.694,1303.356,o),
(588,1321.474,o),
(588,1342,c),
(588,1375.137,o),
(561.137,1402,o),
(528,1402,c),
(515.388,1402,o),
(503.685,1398.109,o),
(494.028,1391.459,c)
);
},
{
closed = 1;
nodes = (
(588,1340,l),
(588,1373.137,o),
(561.137,1400,o),
(528,1400,c),
(494.863,1400,o),
(468,1373.137,o),
(468,1340,c),
(468,840,l),
(468,806.863,o),
(494.863,780,o),
(528,780,c),
(561.137,780,o),
(588,806.863,o),
(588,840,c)
);
}
);
width = 896;
},
{
layerId = "FF87E3F2-B049-41CB-BF2F-09DB15105515";
shapes = (
{
closed = 1;
nodes = (
(764,410,l),
(764,492.843,o),
(696.843,560,o),
(614,560,c),
(531.157,560,o),
(464,492.843,o),
(464,410,c),
(464,150,l),
(464,67.157,o),
(531.157,0,o),
(614,0,c),
(696.843,0,o),
(764,67.157,o),
(764,150,c)
);
},
{
closed = 1;
nodes = (
(234.082,1178.008,l),
(193.647,1151.144,o),
(167,1105.185,o),
(167,1053,c),
(167,970.157,o),
(234.157,903,o),
(317,903,c),
(347.659,903,o),
(376.169,912.198,o),
(399.918,927.992,c),
(696.918,1124.992,l),
(737.353,1151.856,o),
(764,1197.815,o),
(764,1250,c),
(764,1332.843,o),
(696.843,1400,o),
(614,1400,c),
(583.341,1400,o),
(554.831,1390.802,o),
(531.082,1375.008,c)
);
},
{
closed = 1;
nodes = (
(764,1250,l),
(764,1332.843,o),
(696.843,1400,o),
(614,1400,c),
(531.157,1400,o),
(464,1332.843,o),
(464,1250,c),
(464,850,l),
(464,767.157,o),
(531.157,700,o),
(614,700,c),
(696.843,700,o),
(764,767.157,o),
(764,850,c)
);
}
);
width = 1098;
}
);
unicode = 49;
},
{
color = 1;
glyphname = two;
lastChange = "2022-06-03 22:36:02 +0000";
layers = (
{
layerId = m01;
shapes = (
{
closed = 1;
nodes = (
(669.5,0,l),
(683.307,0,o),
(694.5,11.193,o),
(694.5,25,c),
(694.5,38.807,o),
(683.307,50,o),
(669.5,50,c),
(103.5,50,l),
(89.693,50,o),
(78.5,38.807,o),
(78.5,25,c),
(78.5,11.193,o),
(89.693,0,o),
(103.5,0,c)
);
},
{
closed = 1;
nodes = (
(418.194,487.737,l),
(420.606,491.581,o),
(422,496.128,o),
(422,501,c),
(422,514.807,o),
(410.807,526,o),
(397,526,c),
(388.065,526,o),
(380.225,521.313,o),
(375.806,514.263,c),
(86.947,52.66,l),
(84.409,48.749,o),
(82.936,44.083,o),
(82.936,39.073,c),
(82.936,25.266,o),
(94.128,14.073,o),
(107.936,14.073,c),
(116.733,14.073,o),
(124.469,18.617,o),
(128.925,25.486,c)
);
},
{
closed = 1;
nodes = (
(130,1235,o),
(245,1350,o),
(387,1350,c),
(529,1350,o),
(644,1235,o),
(644,1093,c),
(644,1079.193,o),
(655.193,1068,o),
(669,1068,c),
(682.807,1068,o),
(694,1079.193,o),
(694,1093,c),
(694,1262.511,o),
(556.511,1400,o),
(387,1400,c),
(217.489,1400,o),
(80,1262.511,o),
(80,1093,c),
(80,1079.193,o),
(91.193,1068,o),
(105,1068,c),
(118.807,1068,o),
(130,1079.193,o),
(130,1093,c)
);
}
);
width = 774;
},
{
layerId = "19FA402B-9607-46D9-AAD6-815AECBA5B6B";
shapes = (
{
closed = 1;
nodes = (
(736,0,l),
(769.137,0,o),
(796,26.863,o),
(796,60,c),
(796,93.137,o),
(769.137,120,o),
(736,120,c),
(160,120,l),
(126.863,120,o),
(100,93.137,o),
(100,60,c),
(100,26.863,o),
(126.863,0,o),
(160,0,c)
);
},
{
closed = 1;
nodes = (
(544.272,464.047,l),
(552.247,474.232,o),
(557,487.061,o),
(557,501,c),
(557,534.137,o),
(530.137,561,o),
(497,561,c),
(477.802,561,o),
(460.709,551.983,o),
(449.728,537.953,c),
(107.31,99.911,l),
(99.14,89.66,o),
(94.257,76.672,o),
(94.257,62.544,c),
(94.257,29.407,o),
(121.119,2.544,o),
(154.257,2.544,c),
(173.266,2.544,o),
(190.21,11.384,o),
(201.203,25.176,c)
);
},
{
closed = 1;
nodes = (
(218,1177,o),
(321,1280,o),
(448,1280,c),
(575,1280,o),
(678,1177,o),
(678,1050,c),
(678,1016.863,o),
(704.863,990,o),
(738,990,c),
(771.137,990,o),
(798,1016.863,o),
(798,1050,c),
(798,1243.106,o),
(641.106,1400,o),
(448,1400,c),
(254.894,1400,o),
(98,1243.106,o),
(98,1050,c),
(98,1016.863,o),
(124.863,990,o),
(158,990,c),
(191.137,990,o),
(218,1016.863,o),
(218,1050,c)
);
}
);
width = 896;
},
{
layerId = "FF87E3F2-B049-41CB-BF2F-09DB15105515";
shapes = (
{
closed = 1;
nodes = (
(877,0,l),
(959.843,0,o),
(1027,67.157,o),
(1027,150,c),
(1027,232.843,o),
(959.843,300,o),
(877,300,c),
(243,300,l),
(160.157,300,o),
(93,232.843,o),
(93,150,c),
(93,67.157,o),
(160.157,0,o),
(243,0,c)
);
},
{
closed = 1;
nodes = (
(670.026,400.137,l),
(694.241,426.775,o),
(709,462.164,o),
(709,501,c),
(709,583.843,o),
(641.843,651,o),
(559,651,c),
(514.993,651,o),
(475.412,632.05,o),
(447.974,601.863,c),
(142.144,265.218,l),
(117.695,238.531,o),
(102.777,202.969,o),
(102.777,163.923,c),
(102.777,81.079,o),
(169.933,13.923,o),
(252.777,13.923,c),
(296.574,13.923,o),
(335.987,32.693,o),
(363.41,62.628,c)
);
},
{
closed = 1;
nodes = (
(392,1039,o),
(463,1110,o),
(550,1110,c),
(637,1110,o),
(708,1039,o),
(708,951,c),
(708,868.157,o),
(775.157,801,o),
(858,801,c),
(940.843,801,o),
(1008,868.157,o),
(1008,951,c),
(1008,1204.6,o),
(802.6,1410,o),
(550,1410,c),
(297.4,1410,o),
(92,1204.6,o),
(92,951,c),
(92,868.157,o),
(159.157,801,o),
(242,801,c),
(324.843,801,o),
(392,868.157,o),
(392,951,c)
);
}
);
width = 1098;
}
);
unicode = 50;
},
{
color = 1;
glyphname = three;
lastChange = "2022-06-03 22:36:06 +0000";
layers = (
{
layerId = m01;
shapes = (
{
closed = 1;
nodes = (
(644,165,o),
(529,50,o),
(387,50,c),
(245,50,o),
(130,165,o),
(130,307,c),
(130,320.807,o),
(118.807,332,o),
(105,332,c),
(91.193,332,o),
(80,320.807,o),
(80,307,c),
(80,137.489,o),
(217.489,0,o),
(387,0,c),
(556.511,0,o),
(694,137.489,o),
(694,307,c),
(694,320.807,o),
(682.807,332,o),
(669,332,c),
(655.193,332,o),
(644,320.807,o),
(644,307,c)
);
},
{
closed = 1;
nodes = (
(130,1235,o),
(245,1350,o),
(387,1350,c),
(529,1350,o),
(644,1235,o),
(644,1093,c),
(644,951,o),
(529,836,o),
(387,836,c),
(373.193,836,o),
(362,824.807,o),
(362,811,c),
(362,797.193,o),
(373.193,786,o),
(387,786,c),
(556.511,786,o),
(694,923.489,o),
(694,1093,c),
(694,1262.511,o),
(556.511,1400,o),
(387,1400,c),
(217.489,1400,o),
(80,1262.511,o),
(80,1093,c),
(80,1079.193,o),
(91.193,1068,o),
(105,1068,c),
(118.807,1068,o),
(130,1079.193,o),
(130,1093,c)
);
}
);
width = 774;
},
{
layerId = "19FA402B-9607-46D9-AAD6-815AECBA5B6B";
shapes = (
{
closed = 1;
nodes = (
(678,223,o),
(575,120,o),
(448,120,c),
(321,120,o),
(218,223,o),
(218,350,c),
(218,383.137,o),
(191.137,410,o),
(158,410,c),
(124.863,410,o),
(98,383.137,o),
(98,350,c),
(98,156.894,o),
(254.894,0,o),
(448,0,c),
(641.106,0,o),
(798,156.894,o),
(798,350,c),
(798,383.137,o),
(771.137,410,o),
(738,410,c),
(704.863,410,o),
(678,383.137,o),
(678,350,c)
);
},
{
closed = 1;
nodes = (
(220,1177,o),
(323,1280,o),
(450,1280,c),
(577,1280,o),
(680,1177,o),
(680,1050,c),
(680,923,o),
(577,820,o),
(450,820,c),
(416.863,820,o),
(390,793.137,o),
(390,760,c),
(390,726.863,o),
(416.863,700,o),
(450,700,c),
(643.106,700,o),
(800,856.894,o),
(800,1050,c),
(800,1243.106,o),
(643.106,1400,o),
(450,1400,c),
(256.894,1400,o),
(100,1243.106,o),
(100,1050,c),
(100,1016.863,o),
(126.863,990,o),
(160,990,c),
(193.137,990,o),
(220,1016.863,o),
(220,1050,c)
);
}
);
width = 896;
},
{
layerId = "FF87E3F2-B049-41CB-BF2F-09DB15105515";
shapes = (
{
closed = 1;
nodes = (
(670,344,o),
(616,290,o),
(548,290,c),
(481,290,o),
(427,344,o),
(427,411,c),
(427,493.843,o),
(359.843,561,o),
(277,561,c),
(194.157,561,o),
(127,493.843,o),
(127,411,c),
(127,178.4,o),
(315.4,-10,o),
(548,-10,c),
(781.6,-10,o),
(970,178.4,o),
(970,411,c),
(970,493.843,o),
(902.843,561,o),
(820,561,c),
(737.157,561,o),
(670,493.843,o),
(670,411,c)
);
},
{
closed = 1;
nodes = (
(428,1056,o),
(482,1110,o),
(550,1110,c),
(617,1110,o),
(671,1056,o),
(671,989,c),
(671,922,o),
(617,867,o),
(550,867,c),
(467.157,867,o),
(400,799.843,o),
(400,717,c),
(400,634.157,o),
(467.157,567,o),
(550,567,c),
(782.6,567,o),
(971,756.4,o),
(971,989,c),
(971,1221.6,o),
(782.6,1410,o),
(550,1410,c),
(316.4,1410,o),
(128,1221.6,o),
(128,989,c),
(128,906.157,o),
(195.157,839,o),
(278,839,c),
(360.843,839,o),
(428,906.157,o),
(428,989,c)
);
}
);
width = 1098;
}
);
unicode = 51;
},
{
color = 1;
glyphname = four;
lastChange = "2022-06-02 05:48:04 +0000";
layers = (
{
layerId = m01;
shapes = (
{
closed = 1;
nodes = (
(68.5,425,l),
(54.693,425,o),
(43.5,413.807,o),
(43.5,400,c),
(43.5,386.193,o),
(54.693,375,o),
(68.5,375,c),
(435,375,l),
(448.807,375,o),
(460,386.193,o),
(460,400,c),
(460,413.807,o),
(448.807,425,o),
(435,425,c)
);
},
{
closed = 1;
nodes = (
(670,25.5,l),
(670,11.693,o),
(681.193,0.5,o),
(695,0.5,c),
(708.807,0.5,o),
(720,11.693,o),
(720,25.5,c),
(720,1000,l),
(720,1013.807,o),
(708.807,1025,o),
(695,1025,c),
(681.193,1025,o),
(670,1013.807,o),
(670,1000,c)
);
},
{
closed = 1;
nodes = (
(546.135,1364.044,l),
(547.636,1367.255,o),
(548.474,1370.838,o),
(548.474,1374.616,c),
(548.474,1388.423,o),
(537.281,1399.616,o),
(523.474,1399.616,c),
(513.639,1399.616,o),
(505.131,1393.938,o),
(501.049,1385.681,c),
(45.349,410.586,l),
(43.841,407.372,o),
(43,403.784,o),
(43,400,c),
(43,386.193,o),
(54.193,375,o),
(68,375,c),
(78.023,375,o),
(86.668,380.898,o),
(90.651,389.414,c)
);
}
);
width = 774;
},
{
layerId = "19FA402B-9607-46D9-AAD6-815AECBA5B6B";
shapes = (
{
closed = 1;
nodes = (
(140,460,l),
(106.863,460,o),
(80,433.137,o),
(80,400,c),
(80,366.863,o),
(106.863,340,o),
(140,340,c),
(475,340,l),
(508.137,340,o),
(535,366.863,o),
(535,400,c),
(535,433.137,o),
(508.137,460,o),
(475,460,c)
);
},
{
closed = 1;
nodes = (
(675,60,l),
(675,26.863,o),
(701.863,0,o),
(735,0,c),
(768.137,0,o),
(795,26.863,o),
(795,60,c),
(795,1000,l),
(795,1033.137,o),
(768.137,1060,o),
(735,1060,c),
(701.863,1060,o),
(675,1033.137,o),
(675,1000,c)
);
},
{
closed = 1;
nodes = (
(602.025,1313.95,l),
(605.755,1321.767,o),
(607.842,1330.517,o),
(607.842,1339.755,c),
(607.842,1372.893,o),
(580.98,1399.755,o),
(547.842,1399.755,c),
(523.943,1399.755,o),
(503.308,1385.782,o),
(493.659,1365.56,c),
(70.277,424.623,l),
(66.884,417.112,o),
(65,408.776,o),
(65,400,c),
(65,366.863,o),
(91.863,340,o),
(125,340,c),
(149.361,340,o),
(170.331,354.518,o),
(179.723,375.377,c)
);
}
);
width = 896;
},
{
layerId = "FF87E3F2-B049-41CB-BF2F-09DB15105515";
shapes = (
{
closed = 1;
nodes = (
(223,550,l),
(140.157,550,o),
(73,482.843,o),
(73,400,c),
(73,317.157,o),
(140.157,250,o),
(223,250,c),
(517,250,l),
(599.843,250,o),
(667,317.157,o),
(667,400,c),
(667,482.843,o),
(599.843,550,o),
(517,550,c)
);
},
{
closed = 1;
nodes = (
(727,150,l),
(727,67.157,o),
(794.157,0,o),
(877,0,c),
(959.843,0,o),
(1027,67.157,o),
(1027,150,c),
(1027,1000,l),
(1027,1082.843,o),
(959.843,1150,o),
(877,1150,c),
(794.157,1150,o),
(727,1082.843,o),
(727,1000,c)
);
},
{
closed = 1;
nodes = (
(692.412,1190.111,l),
(700.425,1208.471,o),
(704.87,1228.745,o),
(704.87,1250.057,c),
(704.87,1332.901,o),
(637.713,1400.057,o),
(554.87,1400.057,c),
(493.338,1400.057,o),
(440.461,1363.01,o),
(417.327,1310.003,c),
(68.156,456.819,l),
(60.958,439.3,o),
(57,420.112,o),
(57,400,c),
(57,317.157,o),
(124.157,250,o),
(207,250,c),
(269.731,250,o),
(323.468,288.507,o),
(345.844,343.181,c)
);
}
);
width = 1098;
}
);
unicode = 52;
},
{
color = 1;
glyphname = five;
lastChange = "2022-06-03 22:36:10 +0000";
layers = (
{
layerId = m01;
shapes = (
{
closed = 1;
nodes = (
(559,758,o),
(689,628,o),
(689,467,c),
(689,341,l),
(689,180,o),
(559,50,o),
(398,50,c),
(237,50,o),
(107,180,o),
(107,341,c),
(107,354.807,o),
(95.807,366,o),
(82,366,c),
(68.193,366,o),
(57,354.807,o),
(57,341,c),
(57,152.489,o),
(209.489,0,o),
(398,0,c),
(586.511,0,o),
(739,152.489,o),
(739,341,c),
(739,467,l),
(739,655.511,o),
(586.511,808,o),
(398,808,c),
(384.193,808,o),
(373,796.807,o),
(373,783,c),
(373,769.193,o),
(384.193,758,o),
(398,758,c)
);
},
{
closed = 1;
nodes = (
(106,1378,l),
(56,1378,l),
(56,880,l),
(56,866.193,o),
(67.193,855,o),
(81,855,c),
(94.807,855,o),
(106,866.193,o),
(106,880,c)
);
},
{
closed = 1;
nodes = (
(713.5,1350,l),
(727.307,1350,o),
(738.5,1361.193,o),
(738.5,1375,c),
(738.5,1388.807,o),
(727.307,1400,o),
(713.5,1400,c),
(80.5,1400,l),
(66.693,1400,o),
(55.5,1388.807,o),
(55.5,1375,c),
(55.5,1361.193,o),
(66.693,1350,o),
(80.5,1350,c)
);
}
);
width = 774;
},
{
layerId = "19FA402B-9607-46D9-AAD6-815AECBA5B6B";
shapes = (
{
closed = 1;
nodes = (
(575,680,o),
(678,577,o),
(678,450,c),
(678,350,l),
(678,223,o),
(575,120,o),
(448,120,c),
(321,120,o),
(218,223,o),
(218,350,c),
(218,383.137,o),
(191.137,410,o),
(158,410,c),
(124.863,410,o),
(98,383.137,o),
(98,350,c),
(98,156.894,o),
(254.894,0,o),
(448,0,c),
(641.106,0,o),
(798,156.894,o),
(798,350,c),
(798,450,l),
(798,643.106,o),
(641.106,800,o),
(448,800,c),
(414.863,800,o),
(388,773.137,o),
(388,740,c),
(388,706.863,o),
(414.863,680,o),
(448,680,c)
);
},
{
closed = 1;
nodes = (
(221,1338,l),
(101,1338,l),
(101,930,l),
(101,896.863,o),
(127.863,870,o),
(161,870,c),
(194.137,870,o),
(221,896.863,o),
(221,930,c)
);
},
{
closed = 1;
nodes = (
(753,1280,l),
(786.137,1280,o),
(813,1306.863,o),
(813,1340,c),
(813,1373.137,o),
(786.137,1400,o),
(753,1400,c),
(161,1400,l),
(127.863,1400,o),
(101,1373.137,o),
(101,1340,c),
(101,1306.863,o),
(127.863,1280,o),
(161,1280,c)
);
}
);
width = 896;
},
{
layerId = "FF87E3F2-B049-41CB-BF2F-09DB15105515";
shapes = (
{
closed = 1;
nodes = (
(637,638,o),
(708,567,o),
(708,479,c),
(708,449,l),
(708,361,o),
(637,290,o),
(550,290,c),
(463,290,o),
(392,361,o),
(392,449,c),
(392,531.843,o),
(324.843,599,o),
(242,599,c),
(159.157,599,o),
(92,531.843,o),
(92,449,c),
(92,195.4,o),
(297.4,-10,o),
(550,-10,c),
(802.6,-10,o),
(1008,195.4,o),
(1008,449,c),
(1008,479,l),
(1008,732.6,o),
(802.6,938,o),
(550,938,c),
(467.157,938,o),
(400,870.843,o),
(400,788,c),
(400,705.157,o),
(467.157,638,o),
(550,638,c)
);
},
{
closed = 1;
nodes = (
(392,1238,l),
(92,1238,l),
(92,930,l),
(92,847.157,o),
(159.157,780,o),
(242,780,c),
(324.843,780,o),
(392,847.157,o),
(392,930,c)
);
},
{
closed = 1;
nodes = (
(859,1100,l),
(941.843,1100,o),
(1009,1167.157,o),
(1009,1250,c),
(1009,1332.843,o),
(941.843,1400,o),
(859,1400,c),
(242,1400,l),
(159.157,1400,o),
(92,1332.843,o),
(92,1250,c),
(92,1167.157,o),
(159.157,1100,o),
(242,1100,c)
);
}
);
width = 1098;
}
);
unicode = 53;
},
{
color = 1;
glyphname = six;
lastChange = "2022-06-03 22:36:12 +0000";
layers = (
{
layerId = m01;
shapes = (
{
closed = 1;
nodes = (
(231,50,o),
(103,176,o),
(103,334,c),
(103,490,o),
(231,618,o),
(387,618,c),
(543,618,o),
(671,490,o),
(671,334,c),
(671,176,o),
(543,50,o),
(387,50,c)
);
},
{
closed = 1;
nodes = (
(570.28,0,o),
(721,148.258,o),
(721,334,c),
(721,517.511,o),
(570.511,668,o),
(387,668,c),
(203.489,668,o),
(53,517.511,o),
(53,334,c),
(53,148.258,o),
(203.72,0,o),
(387,0,c)
);
},
{
closed = 1;
nodes = (
(274.87,921.635,l),
(273.036,918.161,o),
(272,914.202,o),
(272,910,c),
(272,896.193,o),
(283.193,885,o),
(297,885,c),
(306.606,885,o),
(314.946,890.417,o),
(319.13,898.365,c),
(563.435,1363.028,l),
(565.407,1366.603,o),
(566.529,1370.713,o),
(566.529,1375.085,c),
(566.529,1388.892,o),
(555.336,1400.085,o),
(541.529,1400.085,c),
(532.094,1400.085,o),
(523.88,1394.858,o),
(519.624,1387.142,c)
);
}
);
width = 774;
},
{
layerId = "19FA402B-9607-46D9-AAD6-815AECBA5B6B";
shapes = (
{
closed = 1;
nodes = (
(319,120,o),
(216,223,o),
(216,350,c),
(216,477,o),
(319,580,o),
(446,580,c),
(573,580,o),
(676,477,o),
(676,350,c),
(676,223,o),
(573,120,o),
(446,120,c)
);
},
{
closed = 1;
nodes = (
(639.106,0,o),
(796,156.894,o),
(796,350,c),
(796,543.106,o),
(639.106,700,o),
(446,700,c),
(252.894,700,o),
(96,543.106,o),
(96,350,c),
(96,156.894,o),
(252.894,0,o),
(446,0,c)
);
},
{
closed = 1;
nodes = (
(302.873,937.897,l),
(298.482,929.565,o),
(296,920.073,o),
(296,910,c),
(296,876.863,o),
(322.863,850,o),
(356,850,c),
(379.065,850,o),
(399.09,863.014,o),
(409.127,882.103,c),
(634.493,1311.297,l),
(639.211,1319.868,o),
(641.895,1329.716,o),
(641.895,1340.191,c),
(641.895,1373.328,o),
(615.032,1400.191,o),
(581.895,1400.191,c),
(559.233,1400.191,o),
(539.506,1387.627,o),
(529.298,1369.085,c)
);
}
);
width = 896;
},
{
layerId = "FF87E3F2-B049-41CB-BF2F-09DB15105515";
shapes = (
{
closed = 1;
nodes = (
(455,290,o),
(383,362,o),
(383,450,c),
(383,538,o),
(455,610,o),
(543,610,c),
(631,610,o),
(703,538,o),
(703,450,c),
(703,362,o),
(631,290,o),
(543,290,c)
);
},
{
closed = 1;
nodes = (
(796.6,-10,o),
(1003,196.4,o),
(1003,450,c),
(1003,703.6,o),
(796.6,910,o),
(543,910,c),
(289.4,910,o),
(83,703.6,o),
(83,450,c),
(83,196.4,o),
(289.4,-10,o),
(543,-10,c)
);
},
{
closed = 1;
nodes = (
(449.958,1196.819,l),
(429.336,1171.13,o),
(417,1138.506,o),
(417,1103,c),
(417,1020.157,o),
(484.157,953,o),
(567,953,c),
(614.338,953,o),
(656.553,974.927,o),
(684.042,1009.181,c),
(800.933,1155.007,l),
(821.958,1180.825,o),
(834.564,1213.772,o),
(834.564,1249.664,c),
(834.564,1332.508,o),
(767.408,1399.664,o),
(684.564,1399.664,c),
(637.614,1399.664,o),
(595.702,1378.094,o),
(568.197,1344.323,c)
);
}
);
width = 1098;
}
);
unicode = 54;
},
{
color = 1;
glyphname = seven;
lastChange = "2022-06-02 04:01:11 +0000";
layers = (
{
layerId = m01;
shapes = (
{
closed = 1;
nodes = (
(230,0,o),
(240,7,o),
(243,16,cs),
(729,1366,ls),
(734,1380,o),
(725,1400,o),
(705,1400,cs),
(695,1400,o),
(685,1393,o),
(682,1384,cs),
(196,34,ls),
(191,20,o),
(200,0,o),
(220,0,cs)
);
},
{
closed = 1;
nodes = (
(83.5,1400,l),
(69.693,1400,o),
(58.5,1388.807,o),
(58.5,1375,c),
(58.5,1361.193,o),
(69.693,1350,o),
(83.5,1350,c),
(418.5,1350,l),
(432.307,1350,o),
(443.5,1361.193,o),
(443.5,1375,c),
(443.5,1388.807,o),
(432.307,1400,o),
(418.5,1400,c)
);
}
);
width = 774;
},
{
layerId = "19FA402B-9607-46D9-AAD6-815AECBA5B6B";
shapes = (
{
closed = 1;
nodes = (
(308,0,o),
(330,16,o),
(338,38,cs),
(799,1319,ls),
(814,1358,o),
(785,1400,o),
(743,1400,cs),
(717,1400,o),
(695,1384,o),
(687,1362,cs),
(226,81,ls),
(211,42,o),
(240,0,o),
(282,0,cs)
);
},
{
closed = 1;
nodes = (
(165,1400,l),
(131.863,1400,o),
(105,1373.137,o),
(105,1340,c),
(105,1306.863,o),
(131.863,1280,o),
(165,1280,c),
(437,1280,l),
(470.137,1280,o),
(497,1306.863,o),
(497,1340,c),
(497,1373.137,o),
(470.137,1400,o),
(437,1400,c)
);
}
);
width = 896;
},
{
layerId = "FF87E3F2-B049-41CB-BF2F-09DB15105515";
shapes = (
{
closed = 1;
nodes = (
(468,0,o),
(520,36,o),
(544,87,cs),
(1020,1188,ls),
(1060,1276,o),
(1003,1400,o),
(883,1400,cs),
(823,1400,o),
(771,1364,o),
(747,1313,cs),
(271,212,ls),
(231,124,o),
(288,0,o),
(408,0,cs)
);
},
{
closed = 1;
nodes = (
(229,1400,l),
(146.157,1400,o),
(79,1332.843,o),
(79,1250,c),
(79,1167.157,o),
(146.157,1100,o),
(229,1100,c),
(439,1100,l),
(521.843,1100,o),
(589,1167.157,o),
(589,1250,c),
(589,1332.843,o),
(521.843,1400,o),
(439,1400,c)
);
}
);
width = 1098;
}
);
unicode = 55;
},
{
color = 1;
glyphname = eight;
lastChange = "2022-06-03 22:36:17 +0000";
layers = (
{
layerId = m01;
shapes = (
{
closed = 1;
nodes = (
(694,165,o),
(579,50,o),
(437,50,c),
(423.193,50,o),
(412,38.807,o),
(412,25,c),
(412,11.193,o),
(423.193,0,o),
(437,0,c),
(606.511,0,o),
(744,137.489,o),
(744,307,c),
(744,320.807,o),
(732.807,332,o),
(719,332,c),
(705.193,332,o),
(694,320.807,o),
(694,307,c)
);
},
{
closed = 1;
nodes = (
(644,836.355,o),
(532.645,725,o),
(387,725,c),
(217.045,725,o),
(80,587.955,o),
(80,418,c),
(80,404.193,o),
(91.193,393,o),
(105,393,c),
(118.807,393,o),
(130,404.193,o),
(130,418,c),
(130,563.645,o),
(241.355,675,o),
(387,675,c),
(556.955,675,o),
(694,812.045,o),
(694,982,c),
(694,995.807,o),
(682.807,1007,o),
(669,1007,c),
(655.193,1007,o),
(644,995.807,o),
(644,982,c)
);
},
{
closed = 1;
nodes = (
(130,1235,o),
(245,1350,o),
(387,1350,c),
(400.807,1350,o),
(412,1361.193,o),
(412,1375,c),
(412,1388.807,o),
(400.807,1400,o),
(387,1400,c),
(217.489,1400,o),
(80,1262.511,o),
(80,1093,c),
(80,1079.193,o),
(91.193,1068,o),
(105,1068,c),
(118.807,1068,o),
(130,1079.193,o),
(130,1093,c)
);
}
);
width = 774;
},
{
layerId = "19FA402B-9607-46D9-AAD6-815AECBA5B6B";
shapes = (
{
closed = 1;
nodes = (
(678,223,o),
(575,120,o),
(448,120,c),
(414.863,120,o),
(388,93.137,o),
(388,60,c),
(388,26.863,o),
(414.863,0,o),
(448,0,c),
(641.106,0,o),
(798,156.894,o),
(798,350,c),
(798,383.137,o),
(771.137,410,o),
(738,410,c),
(704.863,410,o),
(678,383.137,o),
(678,350,c)
);
},
{
closed = 1;
nodes = (
(676,853.853,o),
(581.147,759,o),
(446,759,c),
(252.947,759,o),
(96,602.053,o),
(96,409,c),
(96,375.863,o),
(122.863,349,o),
(156,349,c),
(189.137,349,o),
(216,375.863,o),
(216,409,c),
(216,544.147,o),
(310.853,639,o),
(446,639,c),
(639.053,639,o),
(796,795.947,o),
(796,989,c),
(796,1022.137,o),
(769.137,1049,o),
(736,1049,c),
(702.863,1049,o),
(676,1022.137,o),
(676,989,c)
);
},
{
closed = 1;
nodes = (
(218,1177,o),
(321,1280,o),
(448,1280,c),
(481.137,1280,o),
(508,1306.863,o),
(508,1340,c),
(508,1373.137,o),
(481.137,1400,o),
(448,1400,c),
(254.894,1400,o),
(98,1243.106,o),
(98,1050,c),
(98,1016.863,o),
(124.863,990,o),
(158,990,c),
(191.137,990,o),
(218,1016.863,o),
(218,1050,c)
);
}
);
width = 896;
},
{
layerId = "FF87E3F2-B049-41CB-BF2F-09DB15105515";
shapes = (
{
closed = 1;
nodes = (
(698,358,o),
(623,290,o),
(540,290,c),
(457.157,290,o),
(390,222.843,o),
(390,140,c),
(390,57.157,o),
(457.157,-10,o),
(540,-10,c),
(786.2,-10,o),
(998,190.2,o),
(998,449,c),
(998,531.843,o),
(930.843,599,o),
(848,599,c),
(765.157,599,o),
(698,531.843,o),
(698,449,c)
);
},
{
closed = 1;
nodes = (
(694,893.451,o),
(646.101,850,o),
(549,850,c),
(313.901,850,o),
(104,658.451,o),
(104,403,c),
(104,320.157,o),
(171.157,253,o),
(254,253,c),
(336.843,253,o),
(404,320.157,o),
(404,403,c),
(404,506.549,o),
(451.899,550,o),
(549,550,c),
(784.099,550,o),
(994,741.549,o),
(994,997,c),
(994,1079.843,o),
(926.843,1147,o),
(844,1147,c),
(761.157,1147,o),
(694,1079.843,o),
(694,997,c)
);
},
{
closed = 1;
nodes = (
(400,1042,o),
(475,1110,o),
(558,1110,c),
(640.843,1110,o),
(708,1177.157,o),
(708,1260,c),
(708,1342.843,o),
(640.843,1410,o),
(558,1410,c),
(311.8,1410,o),
(100,1209.8,o),
(100,951,c),
(100,868.157,o),
(167.157,801,o),
(250,801,c),
(332.843,801,o),
(400,868.157,o),
(400,951,c)
);
}
);
width = 1098;
}
);
unicode = 56;
},
{
color = 1;
glyphname = nine;
lastChange = "2022-06-03 22:36:20 +0000";
layers = (
{
layerId = m01;
shapes = (
{
closed = 1;
nodes = (
(231,782,o),
(103,910,o),
(103,1066,c),
(103,1224,o),
(231,1350,o),
(387,1350,c),
(543,1350,o),
(671,1224,o),
(671,1066,c),
(671,910,o),
(543,782,o),
(387,782,c)
);
},
{
closed = 1;
nodes = (
(570.511,732,o),
(721,882.489,o),
(721,1066,c),
(721,1251.742,o),
(570.28,1400,o),
(387,1400,c),
(203.72,1400,o),
(53,1251.742,o),
(53,1066,c),
(53,882.489,o),
(203.489,732,o),
(387,732,c)
);
},
{
closed = 1;
nodes = (
(499.13,478.365,l),
(500.964,481.839,o),
(502,485.798,o),
(502,490,c),
(502,503.807,o),
(490.807,515,o),
(477,515,c),
(467.394,515,o),
(459.054,509.583,o),
(454.87,501.635,c),
(210.565,36.972,l),
(208.593,33.397,o),
(207.471,29.287,o),
(207.471,24.915,c),
(207.471,11.108,o),
(218.664,-0.085,o),
(232.471,-0.085,c),
(241.906,-0.085,o),
(250.12,5.142,o),
(254.376,12.858,c)
);
}
);
width = 774;
},
{
layerId = "19FA402B-9607-46D9-AAD6-815AECBA5B6B";
shapes = (
{
closed = 1;
nodes = (
(323,820,o),
(220,923,o),
(220,1050,c),
(220,1177,o),
(323,1280,o),
(450,1280,c),
(577,1280,o),
(680,1177,o),
(680,1050,c),
(680,923,o),
(577,820,o),
(450,820,c)
);
},
{
closed = 1;
nodes = (
(643.106,700,o),
(800,856.894,o),
(800,1050,c),
(800,1243.106,o),
(643.106,1400,o),
(450,1400,c),
(256.894,1400,o),
(100,1243.106,o),
(100,1050,c),
(100,856.894,o),
(256.894,700,o),
(450,700,c)
);
},
{
closed = 1;
nodes = (
(593.127,462.103,l),
(597.518,470.435,o),
(600,479.927,o),
(600,490,c),
(600,523.137,o),
(573.137,550,o),
(540,550,c),
(516.935,550,o),
(496.91,536.986,o),
(486.873,517.897,c),
(261.507,88.703,l),
(256.789,80.132,o),
(254.105,70.284,o),
(254.105,59.809,c),
(254.105,26.672,o),
(280.968,-0.191,o),
(314.105,-0.191,c),
(336.767,-0.191,o),
(356.494,12.373,o),
(366.702,30.915,c)
);
}
);
width = 896;
},
{
layerId = "FF87E3F2-B049-41CB-BF2F-09DB15105515";
shapes = (
{
closed = 1;
nodes = (
(467,790,o),
(395,862,o),
(395,950,c),
(395,1038,o),
(467,1110,o),
(555,1110,c),
(643,1110,o),
(715,1038,o),
(715,950,c),
(715,862,o),
(643,790,o),
(555,790,c)
);
},
{
closed = 1;
nodes = (
(808.6,490,o),
(1015,696.4,o),
(1015,950,c),
(1015,1203.6,o),
(808.6,1410,o),
(555,1410,c),
(301.4,1410,o),
(95,1203.6,o),
(95,950,c),
(95,696.4,o),
(301.4,490,o),
(555,490,c)
);
},
{
closed = 1;
nodes = (
(648.087,203.237,l),
(668.682,228.917,o),
(681,261.52,o),
(681,297,c),
(681,379.843,o),
(613.843,447,o),
(531,447,c),
(483.636,447,o),
(441.401,425.049,o),
(413.913,390.763,c),
(297.974,245.98,l),
(276.974,220.171,o),
(264.385,187.244,o),
(264.385,151.376,c),
(264.385,68.533,o),
(331.542,1.376,o),
(414.385,1.376,c),
(461.36,1.376,o),
(503.291,22.969,o),
(530.795,56.77,c)
);
}
);
width = 1098;
}
);
unicode = 57;
},
{
color = 2;
glyphname = fraction;
lastChange = "2022-06-01 21:40:13 +0000";
layers = (
{
layerId = m01;
shapes = (
{
closed = 1;
nodes = (
(-409.509,52.323,l),
(-413.209,47.964,o),
(-415.44,42.32,o),
(-415.44,36.154,c),
(-415.44,22.347,o),
(-404.248,11.154,o),
(-390.44,11.154,c),
(-383.672,11.154,o),
(-377.531,13.844,o),
(-373.03,18.213,c),
(755.508,1347.676,l),
(759.208,1352.035,o),
(761.44,1357.68,o),
(761.44,1363.846,c),
(761.44,1377.653,o),
(750.248,1388.846,o),
(736.44,1388.846,c),
(729.672,1388.846,o),
(723.531,1386.156,o),
(719.03,1381.787,c)
);
}
);
width = 346;
},
{
layerId = "19FA402B-9607-46D9-AAD6-815AECBA5B6B";
shapes = (
{
closed = 1;
nodes = (
(-415.555,99.286,l),
(-424.593,88.782,o),
(-430.057,75.114,o),
(-430.057,60.17,c),
(-430.057,27.033,o),
(-403.194,0.17,o),
(-370.057,0.17,c),
(-351.864,0.17,o),
(-335.562,8.267,o),
(-324.559,21.054,c),
(761.555,1300.714,l),
(770.593,1311.218,o),
(776.057,1324.886,o),
(776.057,1339.83,c),
(776.057,1372.967,o),
(749.194,1399.83,o),
(716.057,1399.83,c),
(697.864,1399.83,o),
(681.562,1391.733,o),
(670.559,1378.946,c)
);
}
);
width = 346;
},
{
layerId = "FF87E3F2-B049-41CB-BF2F-09DB15105515";
shapes = (
{
closed = 1;
nodes = (
(-421.741,161.889,l),
(-437.044,144.323,o),
(-446.312,121.36,o),
(-446.312,96.233,c),
(-446.312,41.004,o),
(-401.541,-3.767,o),
(-346.312,-3.767,c),
(-316.21,-3.767,o),
(-289.215,9.532,o),
(-270.883,30.576,c),
(767.741,1238.111,l),
(783.044,1255.677,o),
(792.312,1278.64,o),
(792.312,1303.767,c),
(792.312,1358.996,o),
(747.541,1403.767,o),
(692.312,1403.767,c),
(662.21,1403.767,o),
(635.215,1390.468,o),
(616.883,1369.424,c)
);
}
);
width = 346;
}
);
unicode = 8260;
},
{
color = 2;
glyphname = zerosuperior;
lastChange = "2022-06-02 20:29:32 +0000";
layers = (
{
layerId = m01;
shapes = (
{
closed = 1;
nodes = (
(368,1208,l),
(368,1134,o),
(308,1074,o),
(234,1074,c),
(160,1074,o),
(100,1134,o),
(100,1208,c),
(100,1221.807,o),
(88.807,1233,o),
(75,1233,c),
(61.193,1233,o),
(50,1221.807,o),
(50,1208,c),
(50,1106.489,o),
(132.489,1024,o),
(234,1024,c),
(335.511,1024,o),
(418,1106.489,o),
(418,1208,c),
(418,1354,l),
(418,1367.807,o),
(406.807,1379,o),
(393,1379,c),
(379.193,1379,o),
(368,1367.807,o),
(368,1354,c)
);
},
{
closed = 1;
nodes = (
(133.132,1374.802,l),
(126.42,1370.321,o),
(122,1362.676,o),
(122,1354,c),
(122,1340.193,o),
(133.193,1329,o),
(147,1329,c),
(152.131,1329,o),
(156.9,1330.546,o),
(160.868,1333.198,c),
(334.868,1449.198,l),
(341.58,1453.679,o),
(346,1461.323,o),
(346,1470,c),
(346,1483.807,o),
(334.807,1495,o),
(321,1495,c),
(315.869,1495,o),
(311.1,1493.454,o),
(307.132,1490.802,c)
);
},
{
closed = 1;
nodes = (
(100,1616,l),
(100,1690,o),
(160,1750,o),
(234,1750,c),
(308,1750,o),
(368,1690,o),
(368,1616,c),
(368,1602.193,o),
(379.193,1591,o),
(393,1591,c),
(406.807,1591,o),
(418,1602.193,o),
(418,1616,c),
(418,1717.511,o),
(335.511,1800,o),
(234,1800,c),
(132.489,1800,o),
(50,1717.511,o),
(50,1616,c),
(50,1470,l),
(50,1456.193,o),
(61.193,1445,o),
(75,1445,c),
(88.807,1445,o),
(100,1456.193,o),
(100,1470,c)
);
}
);
width = 468;
},
{
layerId = "19FA402B-9607-46D9-AAD6-815AECBA5B6B";
shapes = (
{
closed = 1;
nodes = (
(384,1238,l),
(384,1175,o),
(333,1124,o),
(270,1124,c),
(207,1124,o),
(156,1175,o),
(156,1238,c),
(156,1265.614,o),
(133.614,1288,o),
(106,1288,c),
(78.386,1288,o),
(56,1265.614,o),
(56,1238,c),
(56,1120,o),
(152,1024,o),
(270,1024,c),
(388,1024,o),
(484,1120,o),
(484,1238,c),
(484,1303,l),
(484,1330.614,o),
(461.614,1353,o),
(434,1353,c),
(406.386,1353,o),
(384,1330.614,o),
(384,1303,c)
);
},
{
closed = 1;
nodes = (
(168.328,1404.648,l),
(154.868,1395.69,o),
(146,1380.381,o),
(146,1363,c),
(146,1335.385,o),
(168.385,1313,o),
(196,1313,c),
(206.234,1313,o),
(215.749,1316.074,o),
(223.672,1321.352,c),
(372.672,1420.352,l),
(386.132,1429.31,o),
(395,1444.619,o),
(395,1462,c),
(395,1489.615,o),
(372.615,1512,o),
(345,1512,c),
(334.766,1512,o),
(325.251,1508.926,o),
(317.328,1503.648,c)
);
},
{
closed = 1;
nodes = (
(156,1586,l),
(156,1649,o),
(207,1700,o),
(270,1700,c),
(333,1700,o),
(384,1649,o),
(384,1586,c),
(384,1558.386,o),
(406.386,1536,o),
(434,1536,c),
(461.614,1536,o),
(484,1558.386,o),
(484,1586,c),
(484,1704,o),
(388,1800,o),
(270,1800,c),
(152,1800,o),
(56,1704,o),
(56,1586,c),
(56,1522,l),
(56,1494.386,o),
(78.386,1472,o),
(106,1472,c),
(133.614,1472,o),
(156,1494.386,o),
(156,1522,c)
);
}
);
width = 540;
},
{
layerId = "FF87E3F2-B049-41CB-BF2F-09DB15105515";
shapes = (
{
closed = 1;
nodes = (
(413,1268,l),
(413,1216,o),
(371,1174,o),
(319,1174,c),
(267,1174,o),
(225,1216,o),
(225,1268,c),
(225,1309.422,o),
(191.422,1343,o),
(150,1343,c),
(108.578,1343,o),
(75,1309.422,o),
(75,1268,c),
(75,1133.4,o),
(184.4,1024,o),
(319,1024,c),
(453.6,1024,o),
(563,1133.4,o),
(563,1268,c),
(563,1322,l),
(563,1363.422,o),
(529.422,1397,o),
(488,1397,c),
(446.578,1397,o),
(413,1363.422,o),
(413,1322,c)
);
},
{
closed = 1;
nodes = (
(234.395,1445.407,l),
(214.26,1431.962,o),
(201,1409.029,o),
(201,1383,c),
(201,1341.578,o),
(234.578,1308,o),
(276,1308,c),
(291.392,1308,o),
(305.701,1312.637,o),
(317.605,1320.593,c),
(404.605,1378.593,l),
(424.74,1392.038,o),
(438,1414.97,o),
(438,1441,c),
(438,1482.422,o),
(404.422,1516,o),
(363,1516,c),
(347.608,1516,o),
(333.299,1511.363,o),
(321.395,1503.407,c)
);
},
{
closed = 1;
nodes = (
(225,1556,l),
(225,1608,o),
(267,1650,o),
(319,1650,c),
(371,1650,o),
(413,1608,o),
(413,1556,c),
(413,1514.578,o),
(446.578,1481,o),
(488,1481,c),
(529.422,1481,o),
(563,1514.578,o),
(563,1556,c),
(563,1690.6,o),
(453.6,1800,o),
(319,1800,c),
(184.4,1800,o),
(75,1690.6,o),
(75,1556,c),
(75,1503,l),
(75,1461.578,o),
(108.578,1428,o),
(150,1428,c),
(191.422,1428,o),
(225,1461.578,o),
(225,1503,c)
);
}
);
width = 638;
}
);
unicode = 8304;
},
{
color = 2;
glyphname = onesuperior;
lastChange = "2022-06-02 20:29:32 +0000";
layers = (
{
layerId = m01;
shapes = (
{
closed = 1;
nodes = (
(279,1268,l),
(279,1281.807,o),
(267.807,1293,o),
(254,1293,c),
(240.193,1293,o),
(229,1281.807,o),
(229,1268,c),
(229,1049.5,l),
(229,1035.693,o),
(240.193,1024.5,o),
(254,1024.5,c),
(267.807,1024.5,o),
(279,1035.693,o),
(279,1049.5,c)
);
},
{
closed = 1;
nodes = (
(73.528,1664.638,l),
(67.725,1660.06,o),
(64,1652.965,o),
(64,1645,c),
(64,1631.193,o),
(75.193,1620,o),
(89,1620,c),
(94.842,1620,o),
(100.216,1622.004,o),
(104.472,1625.362,c),
(269.472,1755.362,l),
(275.275,1759.94,o),
(279,1767.035,o),
(279,1775,c),
(279,1788.807,o),
(267.807,1800,o),
(254,1800,c),
(248.158,1800,o),
(242.784,1797.996,o),
(238.528,1794.638,c)
);
},
{
closed = 1;
nodes = (
(279,1774.5,l),
(279,1788.307,o),
(267.807,1799.5,o),
(254,1799.5,c),
(240.193,1799.5,o),
(229,1788.307,o),
(229,1774.5,c),
(229,1489,l),
(229,1475.193,o),
(240.193,1464,o),
(254,1464,c),
(267.807,1464,o),
(279,1475.193,o),
(279,1489,c)
);
}
);
width = 468;
},
{
layerId = "19FA402B-9607-46D9-AAD6-815AECBA5B6B";
shapes = (
{
closed = 1;
nodes = (
(354,1302,l),
(354,1329.614,o),
(331.614,1352,o),
(304,1352,c),
(276.386,1352,o),
(254,1329.614,o),
(254,1302,c),
(254,1074,l),
(254,1046.386,o),
(276.386,1024,o),
(304,1024,c),
(331.614,1024,o),
(354,1046.386,o),
(354,1074,c)
);
},
{
closed = 1;
nodes = (
(127.625,1689.172,l),
(114.56,1680.153,o),
(106,1665.076,o),
(106,1648,c),
(106,1620.386,o),
(128.386,1598,o),
(156,1598,c),
(166.538,1598,o),
(176.315,1601.26,o),
(184.375,1606.828,c),
(332.375,1708.828,l),
(345.44,1717.847,o),
(354,1732.924,o),
(354,1750,c),
(354,1777.614,o),
(331.614,1800,o),
(304,1800,c),
(293.462,1800,o),
(283.685,1796.74,o),
(275.625,1791.172,c)
);
},
{
closed = 1;
nodes = (
(354,1750,l),
(354,1777.614,o),
(331.614,1800,o),
(304,1800,c),
(276.386,1800,o),
(254,1777.614,o),
(254,1750,c),
(254,1502,l),
(254,1474.386,o),
(276.386,1452,o),
(304,1452,c),
(331.614,1452,o),
(354,1474.386,o),
(354,1502,c)
);
}
);
width = 540;
},
{
layerId = "FF87E3F2-B049-41CB-BF2F-09DB15105515";
shapes = (
{
closed = 1;
nodes = (
(409,1251,l),
(409,1292.422,o),
(375.422,1326,o),
(334,1326,c),
(292.578,1326,o),
(259,1292.422,o),
(259,1251,c),
(259,1098.5,l),
(259,1057.078,o),
(292.578,1023.5,o),
(334,1023.5,c),
(375.422,1023.5,o),
(409,1057.078,o),
(409,1098.5,c)
);
},
{
closed = 1;
nodes = (
(127.658,1678.582,l),
(107.375,1665.161,o),
(94,1642.143,o),
(94,1616,c),
(94,1574.578,o),
(127.578,1541,o),
(169,1541,c),
(184.279,1541,o),
(198.491,1545.569,o),
(210.342,1553.418,c),
(375.342,1662.418,l),
(395.625,1675.839,o),
(409,1698.857,o),
(409,1725,c),
(409,1766.422,o),
(375.422,1800,o),
(334,1800,c),
(318.721,1800,o),
(304.509,1795.431,o),
(292.658,1787.582,c)
);
},
{
closed = 1;
nodes = (
(409,1724.5,l),
(409,1765.922,o),
(375.422,1799.5,o),
(334,1799.5,c),
(292.578,1799.5,o),
(259,1765.922,o),
(259,1724.5,c),
(259,1495,l),
(259,1453.578,o),
(292.578,1420,o),
(334,1420,c),
(375.422,1420,o),
(409,1453.578,o),
(409,1495,c)
);
}
);
width = 638;
}
);
unicode = 185;
},
{
color = 2;
glyphname = twosuperior;
lastChange = "2022-06-02 20:29:32 +0000";
layers = (
{
layerId = m01;
shapes = (
{
closed = 1;
nodes = (
(393.5,1024,l),
(407.307,1024,o),
(418.5,1035.193,o),
(418.5,1049,c),
(418.5,1062.807,o),
(407.307,1074,o),
(393.5,1074,c),
(74.5,1074,l),
(60.693,1074,o),
(49.5,1062.807,o),
(49.5,1049,c),
(49.5,1035.193,o),
(60.693,1024,o),
(74.5,1024,c)
);
},
{
closed = 1;
nodes = (
(262.643,1279.896,l),
(265.392,1283.91,o),
(267,1288.767,o),
(267,1294,c),
(267,1307.807,o),
(255.807,1319,o),
(242,1319,c),
(233.425,1319,o),
(225.859,1314.683,o),
(221.357,1308.104,c),
(55.232,1064.947,l),
(52.372,1060.882,o),
(50.693,1055.926,o),
(50.693,1050.578,c),
(50.693,1036.771,o),
(61.885,1025.578,o),
(75.693,1025.578,c),
(84.152,1025.578,o),
(91.63,1029.779,o),
(96.154,1036.209,c)
);
},
{
closed = 1;
nodes = (
(100,1690,o),
(160,1750,o),
(234,1750,c),
(308,1750,o),
(368,1690,o),
(368,1616,c),
(368,1602.193,o),
(379.193,1591,o),
(393,1591,c),
(406.807,1591,o),
(418,1602.193,o),
(418,1616,c),
(418,1717.511,o),
(335.511,1800,o),
(234,1800,c),
(132.489,1800,o),
(50,1717.511,o),
(50,1616,c),
(50,1602.193,o),
(61.193,1591,o),
(75,1591,c),
(88.807,1591,o),
(100,1602.193,o),
(100,1616,c)
);
}
);
width = 468;
},
{
layerId = "19FA402B-9607-46D9-AAD6-815AECBA5B6B";
shapes = (
{
closed = 1;
nodes = (
(433,1024,l),
(460.614,1024,o),
(483,1046.386,o),
(483,1074,c),
(483,1101.614,o),
(460.614,1124,o),
(433,1124,c),
(101,1124,l),
(73.386,1124,o),
(51,1101.614,o),
(51,1074,c),
(51,1046.386,o),
(73.386,1024,o),
(101,1024,c)
);
},
{
closed = 1;
nodes = (
(301.424,1251.246,l),
(308.051,1259.727,o),
(312,1270.402,o),
(312,1282,c),
(312,1309.614,o),
(289.614,1332,o),
(262,1332,c),
(245.983,1332,o),
(231.725,1324.469,o),
(222.576,1312.754,c),
(62.522,1107.577,l),
(55.734,1099.041,o),
(51.678,1088.235,o),
(51.678,1076.481,c),
(51.678,1048.867,o),
(74.064,1026.481,o),
(101.678,1026.481,c),
(117.539,1026.481,o),
(131.675,1033.866,o),
(140.835,1045.385,c)
);
},
{
closed = 1;
nodes = (
(151,1648,o),
(203,1700,o),
(266,1700,c),
(329,1700,o),
(381,1648,o),
(381,1585,c),
(381,1557.386,o),
(403.386,1535,o),
(431,1535,c),
(458.614,1535,o),
(481,1557.386,o),
(481,1585,c),
(481,1703,o),
(384,1800,o),
(266,1800,c),
(148,1800,o),
(51,1703,o),
(51,1585,c),
(51,1557.386,o),
(73.386,1535,o),
(101,1535,c),
(128.614,1535,o),
(151,1557.386,o),
(151,1585,c)
);
}
);
width = 540;
},
{
layerId = "FF87E3F2-B049-41CB-BF2F-09DB15105515";
shapes = (
{
closed = 1;
nodes = (
(485.5,1023,l),
(526.922,1023,o),
(560.5,1056.578,o),
(560.5,1098,c),
(560.5,1139.422,o),
(526.922,1173,o),
(485.5,1173,c),
(153.5,1173,l),
(112.078,1173,o),
(78.5,1139.422,o),
(78.5,1098,c),
(78.5,1056.578,o),
(112.078,1023,o),
(153.5,1023,c)
);
},
{
closed = 1;
nodes = (
(374.069,1261.782,l),
(384.05,1274.518,o),
(390,1290.564,o),
(390,1308,c),
(390,1349.422,o),
(356.422,1383,o),
(315,1383,c),
(291.014,1383,o),
(269.659,1371.741,o),
(255.931,1354.218,c),
(92.917,1145.877,l),
(82.701,1133.061,o),
(76.595,1116.824,o),
(76.595,1099.161,c),
(76.595,1057.739,o),
(110.174,1024.161,o),
(151.595,1024.161,c),
(175.354,1024.161,o),
(196.531,1035.207,o),
(210.273,1052.445,c)
);
},
{
closed = 1;
nodes = (
(230,1610,o),
(271,1650,o),
(320,1650,c),
(370,1650,o),
(410,1610,o),
(410,1559,c),
(410,1517.578,o),
(443.578,1484,o),
(485,1484,c),
(526.422,1484,o),
(560,1517.578,o),
(560,1559,c),
(560,1692.6,o),
(452.6,1800,o),
(320,1800,c),
(188.4,1800,o),
(80,1692.6,o),
(80,1559,c),
(80,1517.578,o),
(113.578,1484,o),
(155,1484,c),
(196.422,1484,o),
(230,1517.578,o),
(230,1559,c)
);
}
);
width = 638;
}
);
unicode = 178;
},
{
color = 2;
glyphname = threesuperior;
lastChange = "2022-06-02 20:29:32 +0000";
layers = (
{
layerId = m01;
shapes = (
{
closed = 1;
nodes = (
(368,1134,o),
(308,1074,o),
(234,1074,c),
(160,1074,o),
(100,1134,o),
(100,1208,c),
(100,1221.807,o),
(88.807,1233,o),
(75,1233,c),
(61.193,1233,o),
(50,1221.807,o),
(50,1208,c),
(50,1106.489,o),
(132.489,1024,o),
(234,1024,c),
(335.511,1024,o),
(418,1106.489,o),
(418,1208,c),
(418,1221.807,o),
(406.807,1233,o),
(393,1233,c),
(379.193,1233,o),
(368,1221.807,o),
(368,1208,c)
);
},
{
closed = 1;
nodes = (
(100,1690,o),
(160,1750,o),
(234,1750,c),
(308,1750,o),
(368,1690,o),
(368,1616,c),
(368,1543,o),
(308,1483,o),
(234,1483,c),
(220.193,1483,o),
(209,1471.807,o),
(209,1458,c),
(209,1444.193,o),
(220.193,1433,o),
(234,1433,c),
(335.511,1433,o),
(418,1515.489,o),
(418,1616,c),
(418,1717.511,o),
(335.511,1800,o),
(234,1800,c),
(132.489,1800,o),
(50,1717.511,o),
(50,1616,c),
(50,1602.193,o),
(61.193,1591,o),
(75,1591,c),
(88.807,1591,o),
(100,1602.193,o),
(100,1616,c)
);
}
);
width = 468;
},
{
layerId = "19FA402B-9607-46D9-AAD6-815AECBA5B6B";
shapes = (
{
closed = 1;
nodes = (
(382,1178,o),
(331,1126,o),
(267,1126,c),
(204,1126,o),
(152,1178,o),
(152,1241,c),
(152,1268.614,o),
(129.614,1291,o),
(102,1291,c),
(74.386,1291,o),
(52,1268.614,o),
(52,1241,c),
(52,1123,o),
(149,1026,o),
(267,1026,c),
(386,1026,o),
(482,1123,o),
(482,1241,c),
(482,1268.614,o),
(459.614,1291,o),
(432,1291,c),
(404.386,1291,o),
(382,1268.614,o),
(382,1241,c)
);
},
{
closed = 1;
nodes = (
(153,1652,o),
(205,1704,o),
(268,1704,c),
(331,1704,o),
(383,1652,o),
(383,1589,c),
(383,1526,o),
(331,1474,o),
(268,1474,c),
(240.386,1474,o),
(218,1451.614,o),
(218,1424,c),
(218,1396.386,o),
(240.386,1374,o),
(268,1374,c),
(386,1374,o),
(483,1471,o),
(483,1589,c),
(483,1707,o),
(386,1804,o),
(268,1804,c),
(150,1804,o),
(53,1707,o),
(53,1589,c),
(53,1561.386,o),
(75.386,1539,o),
(103,1539,c),
(130.614,1539,o),
(153,1561.386,o),
(153,1589,c)
);
}
);
width = 540;
},
{
layerId = "FF87E3F2-B049-41CB-BF2F-09DB15105515";
shapes = (
{
closed = 1;
nodes = (
(390,1205,o),
(357,1173,o),
(316,1173,c),
(276,1173,o),
(244,1205,o),
(244,1245,c),
(244,1286.422,o),
(210.422,1320,o),
(169,1320,c),
(127.578,1320,o),
(94,1286.422,o),
(94,1245,c),
(94,1122.4,o),
(193.4,1023,o),
(316,1023,c),
(439.6,1023,o),
(540,1122.4,o),
(540,1245,c),
(540,1286.422,o),
(506.422,1320,o),
(465,1320,c),
(423.578,1320,o),
(390,1286.422,o),
(390,1245,c)
);
},
{
closed = 1;
nodes = (
(244,1618,o),
(277,1650,o),
(318,1650,c),
(358,1650,o),
(390,1618,o),
(390,1577,c),
(390,1537,o),
(358,1504,o),
(318,1504,c),
(276.578,1504,o),
(243,1470.422,o),
(243,1429,c),
(243,1387.578,o),
(276.578,1354,o),
(318,1354,c),
(440.6,1354,o),
(540,1454.4,o),
(540,1577,c),
(540,1700.6,o),
(440.6,1800,o),
(318,1800,c),
(194.4,1800,o),
(94,1700.6,o),
(94,1577,c),
(94,1535.578,o),
(127.578,1502,o),
(169,1502,c),
(210.422,1502,o),
(244,1535.578,o),
(244,1577,c)
);
}
);
width = 638;
}
);
unicode = 179;
},
{
color = 2;
glyphname = foursuperior;
lastChange = "2022-06-02 20:29:32 +0000";
layers = (
{
layerId = m01;
shapes = (
{
closed = 1;
nodes = (
(63,1271,l),
(63,1221,l),
(256,1221,l),
(269.807,1221,o),
(281,1232.193,o),
(281,1246,c),
(281,1259.807,o),
(269.807,1271,o),
(256,1271,c)
);
},
{
closed = 1;
nodes = (
(355,1049.5,l),
(355,1035.693,o),
(366.193,1024.5,o),
(380,1024.5,c),
(393.807,1024.5,o),
(405,1035.693,o),
(405,1049.5,c),
(405,1577,l),
(405,1590.807,o),
(393.807,1602,o),
(380,1602,c),
(366.193,1602,o),
(355,1590.807,o),
(355,1577,c)
);
},
{
closed = 1;
nodes = (
(313.883,1764.956,l),
(315.325,1768.114,o),
(316.128,1771.625,o),
(316.128,1775.323,c),
(316.128,1789.13,o),
(304.935,1800.323,o),
(291.128,1800.323,c),
(281.019,1800.323,o),
(272.311,1794.323,o),
(268.372,1785.691,c),
(41.023,1255.859,l),
(39.72,1252.835,o),
(39,1249.502,o),
(39,1246,c),
(39,1232.193,o),
(50.193,1221,o),
(64,1221,c),
(74.306,1221,o),
(83.155,1227.235,o),
(86.977,1236.141,c)
);
}
);
width = 468;
},
{
layerId = "19FA402B-9607-46D9-AAD6-815AECBA5B6B";
shapes = (
{
closed = 1;
nodes = (
(107,1279,l),
(107,1179,l),
(268,1179,l),
(295.614,1179,o),
(318,1201.386,o),
(318,1229,c),
(318,1256.614,o),
(295.614,1279,o),
(268,1279,c)
);
},
{
closed = 1;
nodes = (
(368,1074,l),
(368,1046.386,o),
(390.386,1024,o),
(418,1024,c),
(445.614,1024,o),
(468,1046.386,o),
(468,1074,c),
(468,1469,l),
(468,1496.614,o),
(445.614,1519,o),
(418,1519,c),
(390.386,1519,o),
(368,1496.614,o),
(368,1469,c)
);
},
{
closed = 1;
nodes = (
(372.648,1727.86,l),
(375.555,1734.199,o),
(377.176,1741.251,o),
(377.176,1748.68,c),
(377.176,1776.295,o),
(354.79,1798.68,o),
(327.176,1798.68,c),
(306.991,1798.68,o),
(289.601,1786.721,o),
(281.703,1769.501,c),
(57.084,1248.807,l),
(54.454,1242.735,o),
(53,1236.037,o),
(53,1229,c),
(53,1201.385,o),
(75.385,1179,o),
(103,1179,c),
(123.577,1179,o),
(141.251,1191.43,o),
(148.916,1209.193,c)
);
}
);
width = 540;
},
{
layerId = "FF87E3F2-B049-41CB-BF2F-09DB15105515";
shapes = (
{
closed = 1;
nodes = (
(140,1320,l),
(140,1170,l),
(291,1170,l),
(332.422,1170,o),
(366,1203.578,o),
(366,1245,c),
(366,1286.422,o),
(332.422,1320,o),
(291,1320,c)
);
},
{
closed = 1;
nodes = (
(395,1091.5,l),
(395,1050.078,o),
(428.578,1016.5,o),
(470,1016.5,c),
(511.422,1016.5,o),
(545,1050.078,o),
(545,1091.5,c),
(545,1498,l),
(545,1539.422,o),
(511.422,1573,o),
(470,1573,c),
(428.578,1573,o),
(395,1539.422,o),
(395,1498,c)
);
},
{
closed = 1;
nodes = (
(429.172,1690.842,l),
(434.016,1700.765,o),
(436.735,1711.916,o),
(436.735,1723.703,c),
(436.735,1765.125,o),
(403.157,1798.703,o),
(361.735,1798.703,c),
(332.1,1798.703,o),
(306.479,1781.515,o),
(294.298,1756.564,c),
(72.884,1276.409,l),
(68.462,1266.858,o),
(66,1256.216,o),
(66,1245,c),
(66,1203.578,o),
(99.578,1170,o),
(141,1170,c),
(171.205,1170,o),
(197.24,1187.855,o),
(209.116,1213.591,c)
);
}
);
width = 638;
}
);
unicode = 8308;
},
